<svg width="111" height="48" viewBox="0 0 111 48" fill="none" xmlns="http://www.w3.org/2000/svg">
<path d="M10.1483 2.96583C11.5431 0.129708 14.6322 -0.842019 17.0481 0.795417C19.464 2.43285 20.2917 6.05939 18.8969 8.89551L9.42621 28.1527C8.03141 30.9888 4.94224 31.9606 2.52636 30.3231C0.110488 28.6857 -0.717252 25.0592 0.677554 22.223L10.1483 2.96583Z" fill="#6C5CE7"/>
<path d="M18.8969 25.2553C18.8969 21.9805 21.1583 19.3257 23.948 19.3257C26.7376 19.3257 28.999 21.9805 28.999 25.2553C28.999 28.5302 26.7376 31.185 23.948 31.185C21.1583 31.185 18.8969 28.5302 18.8969 25.2553Z" fill="#6C5CE7"/>
<path d="M43.3549 30.9532C41.4004 30.9532 39.6593 30.71 38.1315 30.2237C36.6037 29.7211 35.3511 29.0484 34.3739 28.2054C32.8736 26.9085 32.1235 25.336 32.1235 23.4879C32.1235 22.6773 32.3644 21.883 32.8461 21.1048C33.3416 20.3105 34.1399 19.9133 35.241 19.9133C36.1632 19.9133 36.9409 20.1403 37.574 20.5942C38.2072 21.0481 38.7921 21.5669 39.3289 22.1505C39.8657 22.7341 40.4507 23.269 41.0839 23.7554C41.717 24.2255 42.5291 24.4606 43.5201 24.4606C44.1808 24.4606 44.7588 24.3633 45.2543 24.1688C45.7499 23.958 46.1352 23.6662 46.4105 23.2934C46.6858 22.9205 46.8234 22.4747 46.8234 21.9559C46.8234 21.1129 46.4312 20.505 45.6466 20.1322C44.8758 19.7593 43.6646 19.3702 42.0129 18.965C38.6545 18.1058 36.2389 16.7845 34.7662 15.0013C33.2934 13.2181 32.557 11.143 32.557 8.77617C32.557 6.99293 33.0388 5.45286 34.0023 4.15596C34.9795 2.84285 36.3146 1.82964 38.0076 1.11635C39.7006 0.403053 41.6275 0.0464063 43.7885 0.0464063C45.2337 0.0464063 46.6652 0.249047 48.0829 0.654328C49.5006 1.0434 50.7049 1.63511 51.6959 2.42946C52.3566 2.96443 52.8865 3.59667 53.2857 4.32618C53.6986 5.03947 53.905 5.85814 53.905 6.78219C53.905 7.86834 53.6229 8.72754 53.0586 9.35978C52.4942 9.99202 51.751 10.3081 50.8288 10.3081C49.9066 10.3081 49.122 10.0407 48.4751 9.50568C47.842 8.97071 47.3258 8.48437 46.9267 8.04666C46.5688 7.62517 46.1008 7.26852 45.5227 6.97672C44.9584 6.68492 44.2496 6.53902 43.3962 6.53902C42.7906 6.53902 42.2676 6.62818 41.8271 6.8065C41.4004 6.98483 41.077 7.2361 40.8568 7.56033C40.6365 7.86834 40.5264 8.22499 40.5264 8.63027C40.5264 9.27872 40.9324 9.86233 41.7445 10.3811C42.5566 10.8998 43.8091 11.3943 45.5021 11.8644C47.2501 12.3345 48.8192 12.9506 50.2094 13.7125C51.6133 14.4582 52.7282 15.4471 53.5541 16.6792C54.3799 17.895 54.7928 19.4432 54.7928 21.3237C54.7928 23.269 54.318 24.9631 53.3682 26.4059C52.4185 27.8487 51.0834 28.9673 49.3629 29.7617C47.6562 30.556 45.6535 30.9532 43.3549 30.9532Z" fill="#6C5CE7"/>
<path d="M62.3901 30.9046C61.3165 30.9046 60.4562 30.556 59.8093 29.8589C59.1624 29.1456 58.839 28.1567 58.839 26.8923C58.839 26.6329 58.8527 26.3735 58.8803 26.1141C58.9078 25.8385 58.956 25.5629 59.0248 25.2873L63.8559 5.49339C64.2138 4.00195 64.8676 2.7699 65.8173 1.79722C66.7808 0.824546 67.8613 0.338208 69.0587 0.338208H71.8666C73.0641 0.338208 74.1377 0.824546 75.0874 1.79722C76.0509 2.7699 76.7115 4.00195 77.0694 5.49339L81.9006 25.2873C81.9694 25.5629 82.0176 25.8385 82.0451 26.1141C82.0726 26.3735 82.0864 26.6329 82.0864 26.8923C82.0864 28.1567 81.7629 29.1456 81.116 29.8589C80.4691 30.556 79.6089 30.9046 78.5353 30.9046C77.2277 30.9046 76.2573 30.5236 75.6242 29.7617C74.991 28.9997 74.5299 27.8568 74.2409 26.333L73.8693 24.3633H67.0561L66.6845 26.333C66.3954 27.8568 65.9343 28.9997 65.3012 29.7617C64.668 30.5236 63.6977 30.9046 62.3901 30.9046ZM68.3155 17.8707H72.6099L70.8962 8.89776C70.8137 8.47626 70.738 8.08719 70.6691 7.73055C70.6003 7.35769 70.5315 7.01725 70.4627 6.70923C70.4076 7.01725 70.3388 7.35769 70.2562 7.73055C70.1874 8.08719 70.1117 8.47626 70.0291 8.89776L68.3155 17.8707Z" fill="#6C5CE7"/>
<path d="M95.8775 0.338208C96.6895 0.338208 97.6599 0.419264 98.7885 0.581377C99.9172 0.727277 101.073 1.05961 102.257 1.57837C103.455 2.09713 104.569 2.89959 105.602 3.98574C106.648 5.0719 107.487 6.53902 108.121 8.3871C108.767 10.2352 109.091 12.5696 109.091 15.3904C109.091 18.2111 108.767 20.5456 108.121 22.3936C107.487 24.2417 106.648 25.7088 105.602 26.795C104.569 27.8812 103.455 28.6836 102.257 29.2024C101.073 29.7211 99.9172 30.0616 98.7885 30.2237C97.6599 30.3696 96.6895 30.4425 95.8775 30.4425H90.9637C88.087 30.4425 86.6487 28.7403 86.6487 25.336V5.42044C86.6487 2.03229 88.087 0.338208 90.9637 0.338208H95.8775ZM95.8775 23.9499C96.7584 23.9499 97.5223 23.7878 98.1692 23.4636C98.8298 23.1394 99.3804 22.6368 99.8208 21.9559C100.261 21.2588 100.592 20.3672 100.812 19.2811C101.032 18.1949 101.142 16.898 101.142 15.3904C101.142 13.8665 101.032 12.5696 100.812 11.4997C100.592 10.4135 100.261 9.53 99.8208 8.84912C99.3804 8.15204 98.8298 7.64138 98.1692 7.31716C97.5223 6.99293 96.7584 6.83082 95.8775 6.83082H94.4942V23.9499H95.8775Z" fill="#6C5CE7"/>
<path d="M4.48831 45.0374C3.92312 45.0374 3.40779 44.9231 2.94234 44.6944C2.47688 44.4615 2.10494 44.0956 1.82649 43.5967C1.55221 43.0977 1.41506 42.4428 1.41506 41.632V38.0146C1.41506 37.4615 1.64571 37.185 2.10701 37.185C2.56831 37.185 2.79896 37.4615 2.79896 38.0146V41.5572C2.79896 42.3472 2.94857 42.9543 3.24779 43.3784C3.54701 43.7983 3.96052 44.0083 4.48831 44.0083C5.02026 44.0083 5.43377 43.7983 5.72883 43.3784C6.0239 42.9543 6.17143 42.3472 6.17143 41.5572V38.0146C6.17143 37.4615 6.40208 37.185 6.86338 37.185C7.32468 37.185 7.55533 37.4615 7.55533 38.0146V41.632C7.55533 42.4428 7.41818 43.0977 7.1439 43.5967C6.86961 44.0956 6.50182 44.4615 6.04052 44.6944C5.57922 44.9231 5.06182 45.0374 4.48831 45.0374Z" fill="#6C5CE7"/>
<path d="M10.2438 44.9064C9.99032 44.9064 9.79916 44.8628 9.67032 44.7755C9.54565 44.684 9.48331 44.5572 9.48331 44.395C9.48331 44.2287 9.54565 44.1019 9.67032 44.0146C9.79916 43.9272 9.99032 43.8836 10.2438 43.8836H11.5218V38.2079H10.2438C9.99032 38.2079 9.79916 38.1642 9.67032 38.0769C9.54565 37.9854 9.48331 37.8565 9.48331 37.6902C9.48331 37.5281 9.54565 37.4033 9.67032 37.316C9.79916 37.2287 9.99032 37.185 10.2438 37.185H14.0901C14.3477 37.185 14.5389 37.2287 14.6636 37.316C14.7882 37.4033 14.8506 37.5281 14.8506 37.6902C14.8506 37.8565 14.7882 37.9854 14.6636 38.0769C14.5389 38.1642 14.3477 38.2079 14.0901 38.2079H12.8433V43.8836H14.0901C14.3477 43.8836 14.5389 43.9272 14.6636 44.0146C14.7882 44.1019 14.8506 44.2287 14.8506 44.395C14.8506 44.5572 14.7882 44.684 14.6636 44.7755C14.5389 44.8628 14.3477 44.9064 14.0901 44.9064H10.2438Z" fill="#6C5CE7"/>
<path d="M21.0425 35.4012C21.1879 35.4012 21.3084 35.4511 21.404 35.5509C21.4996 35.6507 21.5474 35.7921 21.5474 35.9751C21.5474 36.0624 21.5329 36.1642 21.5038 36.2807L18.9729 45.8794C18.9105 46.1206 18.8253 46.2994 18.7173 46.4158C18.6134 46.5322 18.4596 46.5904 18.256 46.5904C18.1105 46.5904 17.9942 46.5405 17.9069 46.4407C17.8238 46.341 17.7822 46.2058 17.7822 46.0353C17.7822 45.9231 17.7947 45.815 17.8196 45.711L20.3568 36.1123C20.4191 35.8711 20.4981 35.6923 20.5936 35.5759C20.6934 35.4595 20.843 35.4012 21.0425 35.4012Z" fill="#6C5CE7"/>
<path d="M27.6458 45.0374C27.0806 45.0374 26.5653 44.9231 26.0998 44.6944C25.6344 44.4615 25.2624 44.0956 24.984 43.5967C24.7097 43.0977 24.5725 42.4428 24.5725 41.632V38.0146C24.5725 37.4615 24.8032 37.185 25.2645 37.185C25.7258 37.185 25.9564 37.4615 25.9564 38.0146V41.5572C25.9564 42.3472 26.106 42.9543 26.4053 43.3784C26.7045 43.7983 27.118 44.0083 27.6458 44.0083C28.1777 44.0083 28.5912 43.7983 28.8863 43.3784C29.1814 42.9543 29.3289 42.3472 29.3289 41.5572V38.0146C29.3289 37.4615 29.5595 37.185 30.0208 37.185C30.4821 37.185 30.7128 37.4615 30.7128 38.0146V41.632C30.7128 42.4428 30.5756 43.0977 30.3014 43.5967C30.0271 44.0956 29.6593 44.4615 29.198 44.6944C28.7367 44.9231 28.2193 45.0374 27.6458 45.0374Z" fill="#6C5CE7"/>
<path d="M33.0584 45.0249C32.8631 45.0249 32.7093 44.975 32.5971 44.8753C32.4891 44.7713 32.4351 44.6445 32.4351 44.4948C32.4351 44.42 32.4475 44.3451 32.4725 44.2703C32.5016 44.1954 32.5494 44.1102 32.6158 44.0146L34.5545 41.1331L32.5161 38.0582C32.4662 37.9834 32.433 37.9127 32.4164 37.8462C32.3997 37.7796 32.3914 37.7131 32.3914 37.6466C32.3914 37.4761 32.4538 37.3451 32.5784 37.2536C32.7073 37.158 32.859 37.1102 33.0335 37.1102C33.1623 37.1102 33.2662 37.1331 33.3452 37.1788C33.4283 37.2204 33.5052 37.289 33.5758 37.3846C33.6506 37.4761 33.7358 37.5988 33.8314 37.7526L35.3338 40.1164L36.8236 37.7526C36.9691 37.5156 37.0958 37.3513 37.2039 37.2599C37.3161 37.1642 37.4678 37.1164 37.659 37.1164C37.8335 37.1164 37.979 37.1601 38.0953 37.2474C38.2117 37.3306 38.2699 37.4636 38.2699 37.6466C38.2699 37.7921 38.2242 37.9293 38.1327 38.0582L36.1068 41.0832L38.0392 44.0146C38.1057 44.1185 38.1514 44.21 38.1764 44.289C38.2055 44.368 38.22 44.4428 38.22 44.5135C38.22 44.6674 38.1597 44.7921 38.0392 44.8877C37.9229 44.9792 37.7691 45.0249 37.5779 45.0249C37.3868 45.0249 37.2413 44.973 37.1416 44.869C37.0418 44.7651 36.9296 44.6154 36.8049 44.42L35.3213 42.1123L33.8314 44.42C33.7068 44.6154 33.5945 44.7651 33.4948 44.869C33.3951 44.973 33.2496 45.0249 33.0584 45.0249Z" fill="#6C5CE7"/>
<path d="M50.2547 37.185C50.5123 37.185 50.8032 37.2121 51.1274 37.2661C51.4516 37.3202 51.7778 37.4241 52.1061 37.578C52.4344 37.7277 52.7378 37.9459 53.0162 38.2328C53.2947 38.5197 53.5191 38.8919 53.6895 39.3493C53.8599 39.8067 53.9451 40.3721 53.9451 41.0457C53.9451 41.7152 53.8599 42.2786 53.6895 42.736C53.5191 43.1933 53.2947 43.5655 53.0162 43.8524C52.7378 44.1393 52.4344 44.3597 52.1061 44.5135C51.7778 44.6632 51.4516 44.7672 51.1274 44.8254C50.8032 44.8794 50.5123 44.9064 50.2547 44.9064H48.69C48.1373 44.9064 47.8609 44.6279 47.8609 44.0707V38.0146C47.8609 37.4615 48.1373 37.185 48.69 37.185H50.2547ZM50.236 43.8836C50.5394 43.8836 50.8282 43.8316 51.1025 43.7277C51.3809 43.6237 51.6282 43.4595 51.8443 43.2349C52.0604 43.0104 52.2308 42.7173 52.3555 42.3555C52.4843 41.9938 52.5487 41.5572 52.5487 41.0457C52.5487 40.5301 52.4843 40.0915 52.3555 39.7297C52.2308 39.368 52.0604 39.0748 51.8443 38.8503C51.6282 38.6258 51.3809 38.4636 51.1025 38.3638C50.8282 38.2599 50.5394 38.2079 50.236 38.2079H49.2448V43.8836H50.236Z" fill="#6C5CE7"/>
<path d="M58.5286 45.0374C58.0092 45.0374 57.5146 44.921 57.045 44.6882C56.5795 44.4553 56.2014 44.1081 55.9105 43.6466C55.6195 43.185 55.4741 42.6112 55.4741 41.9252C55.4741 41.4054 55.5593 40.9522 55.7297 40.5655C55.9001 40.1788 56.1286 39.8565 56.4154 39.5988C56.7021 39.341 57.0263 39.1476 57.3879 39.0187C57.7536 38.8898 58.1297 38.8254 58.5162 38.8254C59.0731 38.8254 59.5593 38.9355 59.9749 39.1559C60.3905 39.3763 60.7125 39.6861 60.9411 40.0852C61.1738 40.4802 61.2902 40.9459 61.2902 41.4823C61.2902 41.7277 61.2382 41.9044 61.1343 42.0125C61.0346 42.1206 60.8601 42.1746 60.6107 42.1746H56.8268C56.8601 42.5738 56.9598 42.9106 57.126 43.185C57.2923 43.4553 57.5042 43.6611 57.7619 43.8025C58.0195 43.9397 58.2959 44.0083 58.591 44.0083C58.9816 44.0083 59.2954 43.948 59.5323 43.8274C59.7692 43.7027 59.9686 43.5717 60.1307 43.4345C60.218 43.3638 60.3094 43.3056 60.405 43.2599C60.5047 43.2141 60.6128 43.1913 60.7292 43.1913C60.8829 43.1913 61.0055 43.2391 61.0969 43.3347C61.1884 43.4262 61.2341 43.5489 61.2341 43.7027C61.2341 43.8191 61.2008 43.9252 61.1343 44.0208C61.0679 44.1164 60.9785 44.21 60.8663 44.3015C60.6336 44.4927 60.324 44.6632 59.9375 44.8129C59.551 44.9626 59.0814 45.0374 58.5286 45.0374ZM56.8954 41.1642H60.0185C59.9562 40.7152 59.7962 40.3742 59.5385 40.1414C59.285 39.9044 58.9421 39.7859 58.5099 39.7859C58.2772 39.7859 58.0507 39.8337 57.8305 39.9293C57.6143 40.0249 57.4232 40.1746 57.2569 40.3784C57.0949 40.578 56.9744 40.8399 56.8954 41.1642Z" fill="#6C5CE7"/>
<path d="M66.2104 45.0374C65.8613 45.0374 65.5184 45.0062 65.1818 44.9439C64.8452 44.8815 64.5418 44.7942 64.2717 44.6819C64.0057 44.5696 63.7938 44.4387 63.6358 44.289C63.4779 44.1393 63.399 43.9771 63.399 43.8025C63.399 43.6362 63.453 43.5073 63.561 43.4158C63.6691 43.3243 63.8083 43.2786 63.9787 43.2786C64.066 43.2786 64.1553 43.2952 64.2468 43.3285C64.3382 43.3617 64.4421 43.4116 64.5584 43.4782C64.6873 43.5613 64.8286 43.6445 64.9823 43.7277C65.1361 43.8067 65.3127 43.8732 65.5122 43.9272C65.7117 43.9813 65.9444 44.0083 66.2104 44.0083C66.6177 44.0083 66.9439 43.948 67.1891 43.8274C67.4343 43.7027 67.5569 43.499 67.5569 43.2162C67.5569 43.0499 67.4883 42.9148 67.3512 42.8108C67.2182 42.7069 67.0312 42.6216 66.7901 42.5551C66.5532 42.4844 66.279 42.42 65.9673 42.3617C65.5226 42.2786 65.1216 42.1684 64.7642 42.0312C64.4068 41.8898 64.1242 41.6985 63.9164 41.4574C63.7127 41.2162 63.6109 40.9023 63.6109 40.5156C63.6109 40.2079 63.6857 39.948 63.8353 39.736C63.9891 39.5197 64.1927 39.3451 64.4462 39.2121C64.6997 39.079 64.9823 38.9813 65.294 38.9189C65.6057 38.8565 65.9195 38.8254 66.2353 38.8254C66.5429 38.8254 66.8421 38.8503 67.133 38.9002C67.428 38.9459 67.6919 39.0166 67.9247 39.1123C68.1574 39.2037 68.3423 39.3181 68.4795 39.4553C68.6208 39.5925 68.6914 39.7484 68.6914 39.9231C68.6914 40.0811 68.6374 40.2017 68.5294 40.2848C68.4255 40.368 68.2925 40.4096 68.1304 40.4096C68.0306 40.4096 67.9392 40.3971 67.8561 40.3721C67.773 40.343 67.6836 40.3015 67.5881 40.2474C67.4675 40.1642 67.3013 40.0769 67.0893 39.9854C66.8774 39.894 66.599 39.8482 66.254 39.8482C66.1169 39.8482 65.9735 39.8586 65.8239 39.8794C65.6784 39.896 65.5392 39.9314 65.4062 39.9854C65.2774 40.0353 65.1735 40.106 65.0945 40.1975C65.0156 40.289 64.9761 40.4054 64.9761 40.5468C64.9761 40.7089 65.0405 40.8399 65.1694 40.9397C65.3023 41.0395 65.4831 41.1227 65.7117 41.1892C65.9403 41.2516 66.2 41.3119 66.4909 41.3701C66.9439 41.4491 67.3553 41.553 67.7252 41.6819C68.0992 41.8108 68.3964 41.9917 68.6166 42.2245C68.8369 42.4574 68.947 42.7692 68.947 43.1601C68.947 43.5884 68.8203 43.9418 68.5668 44.2204C68.3132 44.4948 67.9787 44.7006 67.5631 44.8378C67.1517 44.9709 66.7008 45.0374 66.2104 45.0374Z" fill="#6C5CE7"/>
<path d="M71.9784 43.8836H73.3872V39.9854H72.3462C72.076 39.9854 71.8703 39.9418 71.729 39.8545C71.5919 39.7672 71.5233 39.6403 71.5233 39.474C71.5233 39.3119 71.5919 39.1871 71.729 39.0998C71.8703 39.0125 72.076 38.9688 72.3462 38.9688H73.9295C74.4823 38.9688 74.7586 39.2453 74.7586 39.7983V43.8836H76.0864C76.3441 43.8836 76.5353 43.9272 76.6599 44.0146C76.7888 44.1019 76.8532 44.2287 76.8532 44.395C76.8532 44.5572 76.7888 44.684 76.6599 44.7755C76.5353 44.8628 76.3441 44.9064 76.0864 44.9064H71.9784C71.7249 44.9064 71.5337 44.8628 71.4049 44.7755C71.2802 44.684 71.2179 44.5572 71.2179 44.395C71.2179 44.2287 71.2802 44.1019 71.4049 44.0146C71.5337 43.9272 71.7249 43.8836 71.9784 43.8836ZM72.982 36.5489C72.982 36.3576 73.0277 36.183 73.1192 36.0249C73.2147 35.8669 73.3415 35.7422 73.4994 35.6507C73.6615 35.5551 73.8381 35.5073 74.0293 35.5073C74.2246 35.5073 74.4012 35.5551 74.5592 35.6507C74.7171 35.7422 74.8418 35.8669 74.9332 36.0249C75.0288 36.183 75.0766 36.3576 75.0766 36.5489C75.0766 36.7443 75.0288 36.9231 74.9332 37.0852C74.8418 37.2432 74.7171 37.368 74.5592 37.4595C74.4012 37.5509 74.2246 37.5967 74.0293 37.5967C73.8381 37.5967 73.6615 37.5509 73.4994 37.4595C73.3415 37.368 73.2147 37.2432 73.1192 37.0852C73.0277 36.9231 72.982 36.7443 72.982 36.5489Z" fill="#6C5CE7"/>
<path d="M81.5926 48C81.2601 48 80.936 47.9626 80.6201 47.8877C80.3084 47.8129 80.0258 47.7048 79.7723 47.5634C79.523 47.422 79.3235 47.2453 79.1739 47.0333C79.0284 46.8212 78.9557 46.5759 78.9557 46.2973C78.9557 46.0894 79.016 45.9335 79.1365 45.8295C79.257 45.7297 79.4149 45.6798 79.6103 45.6798C79.7973 45.6798 79.9407 45.7277 80.0404 45.8233C80.1401 45.9231 80.2212 46.027 80.2835 46.1351C80.3666 46.4179 80.5266 46.6258 80.7635 46.7588C81.0045 46.8919 81.2934 46.9584 81.63 46.9584C81.8793 46.9584 82.11 46.9064 82.3219 46.8025C82.538 46.7027 82.7105 46.5364 82.8393 46.3035C82.9723 46.0707 83.0388 45.7588 83.0388 45.368V44.2079C82.8394 44.4615 82.5838 44.6632 82.2721 44.8129C81.9604 44.9626 81.6175 45.0374 81.2435 45.0374C80.7822 45.0374 80.35 44.921 79.9469 44.6882C79.5438 44.4553 79.2175 44.1081 78.9682 43.6466C78.723 43.1809 78.6004 42.6071 78.6004 41.9252C78.6004 41.2391 78.723 40.6674 78.9682 40.21C79.2175 39.7526 79.5438 39.4096 79.9469 39.1809C80.35 38.9522 80.7822 38.8378 81.2435 38.8378C81.6383 38.8378 81.9957 38.9189 82.3157 39.0811C82.6357 39.2391 82.8934 39.4595 83.0887 39.7422L83.0949 39.3555C83.1864 39.0353 83.3983 38.8753 83.7308 38.8753C84.1921 38.8753 84.4227 39.1476 84.4227 39.6923V45.0499C84.4227 45.5988 84.3438 46.0624 84.1858 46.4407C84.0279 46.8191 83.816 47.1227 83.55 47.3513C83.284 47.58 82.9807 47.7443 82.6399 47.8441C82.3032 47.948 81.9542 48 81.5926 48ZM81.5864 43.9771C81.8191 43.9771 82.0414 43.9252 82.2534 43.8212C82.4653 43.7131 82.6419 43.5655 82.7832 43.3784C82.9245 43.1871 83.0097 42.973 83.0388 42.736V41.2204C83.0181 40.975 82.937 40.7526 82.7957 40.553C82.6544 40.3534 82.4757 40.1933 82.2596 40.0728C82.0477 39.9522 81.8232 39.8919 81.5864 39.8919C81.3038 39.8919 81.0419 39.9667 80.8009 40.1164C80.564 40.262 80.3729 40.4844 80.2274 40.7838C80.0819 41.0832 80.0092 41.4636 80.0092 41.9252C80.0092 42.3742 80.0819 42.7526 80.2274 43.0603C80.3729 43.3638 80.564 43.5925 80.8009 43.7464C81.0419 43.9002 81.3038 43.9771 81.5864 43.9771Z" fill="#6C5CE7"/>
<path d="M91.4562 44.9688C90.9907 44.9688 90.758 44.6902 90.758 44.1331V41.6445C90.758 41.0499 90.6666 40.6071 90.4837 40.316C90.305 40.0208 90.0079 39.8732 89.5923 39.8732C89.3969 39.8732 89.2099 39.9168 89.0312 40.0042C88.8567 40.0915 88.7008 40.21 88.5637 40.3597C88.4307 40.5052 88.3247 40.6736 88.2458 40.8649C88.1668 41.052 88.1273 41.2453 88.1273 41.4449V44.1331C88.1273 44.6902 87.8946 44.9688 87.4291 44.9688C86.972 44.9688 86.7434 44.6902 86.7434 44.1331V39.6861C86.7434 39.1331 86.972 38.8565 87.4291 38.8565C87.8073 38.8565 88.0297 39.0478 88.0962 39.4304V39.8794C88.2998 39.58 88.5679 39.3306 88.9003 39.131C89.2328 38.9314 89.613 38.8316 90.0411 38.8316C90.4733 38.8316 90.8473 38.9189 91.1632 39.0936C91.479 39.2682 91.7201 39.5489 91.8863 39.9355C92.0567 40.3181 92.1419 40.8212 92.1419 41.4449V44.1331C92.1419 44.4033 92.0816 44.6112 91.9611 44.7568C91.8447 44.8981 91.6764 44.9688 91.4562 44.9688Z" fill="#6C5CE7"/>
<path d="M97.1244 45.0374C96.6049 45.0374 96.1104 44.921 95.6408 44.6882C95.1753 44.4553 94.7971 44.1081 94.5062 43.6466C94.2153 43.185 94.0699 42.6112 94.0699 41.9252C94.0699 41.4054 94.1551 40.9522 94.3255 40.5655C94.4958 40.1788 94.7244 39.8565 95.0112 39.5988C95.2979 39.341 95.6221 39.1476 95.9836 39.0187C96.3494 38.8898 96.7255 38.8254 97.1119 38.8254C97.6688 38.8254 98.1551 38.9355 98.5706 39.1559C98.9862 39.3763 99.3083 39.6861 99.5369 40.0852C99.7696 40.4802 99.886 40.9459 99.886 41.4823C99.886 41.7277 99.834 41.9044 99.7301 42.0125C99.6304 42.1206 99.4558 42.1746 99.2065 42.1746H95.4226C95.4558 42.5738 95.5556 42.9106 95.7218 43.185C95.8881 43.4553 96.1 43.6611 96.3577 43.8025C96.6153 43.9397 96.8917 44.0083 97.1867 44.0083C97.5774 44.0083 97.8912 43.948 98.1281 43.8274C98.3649 43.7027 98.5644 43.5717 98.7265 43.4345C98.8138 43.3638 98.9052 43.3056 99.0008 43.2599C99.1005 43.2141 99.2086 43.1913 99.3249 43.1913C99.4787 43.1913 99.6013 43.2391 99.6927 43.3347C99.7842 43.4262 99.8299 43.5489 99.8299 43.7027C99.8299 43.8191 99.7966 43.9252 99.7301 44.0208C99.6636 44.1164 99.5743 44.21 99.4621 44.3015C99.2294 44.4927 98.9197 44.6632 98.5332 44.8129C98.1468 44.9626 97.6771 45.0374 97.1244 45.0374ZM95.4912 41.1642H98.6143C98.5519 40.7152 98.3919 40.3742 98.1343 40.1414C97.8808 39.9044 97.5379 39.7859 97.1057 39.7859C96.873 39.7859 96.6465 39.8337 96.4262 39.9293C96.2101 40.0249 96.019 40.1746 95.8527 40.3784C95.6906 40.578 95.5701 40.8399 95.4912 41.1642Z" fill="#6C5CE7"/>
<path d="M104.681 43.9148H105.648C105.876 43.9148 106.043 43.9605 106.146 44.052C106.25 44.1434 106.302 44.262 106.302 44.4075C106.302 44.553 106.248 44.6736 106.14 44.7692C106.036 44.8607 105.872 44.9064 105.648 44.9064H102.786C102.545 44.9064 102.371 44.8607 102.263 44.7692C102.155 44.6736 102.101 44.553 102.101 44.4075C102.101 44.262 102.151 44.1434 102.25 44.052C102.354 43.9605 102.506 43.9148 102.705 43.9148H103.447V39.9605H102.712C102.504 39.9605 102.346 39.9148 102.238 39.8233C102.13 39.7318 102.076 39.6112 102.076 39.4615C102.076 39.3035 102.146 39.183 102.288 39.0998C102.429 39.0125 102.635 38.9688 102.905 38.9688H103.734C103.929 38.9688 104.1 39.0166 104.245 39.1123C104.391 39.2037 104.499 39.3347 104.569 39.5052L104.594 39.9543C104.852 39.6175 105.176 39.3451 105.567 39.1372C105.961 38.9293 106.367 38.8254 106.782 38.8254C107.057 38.8254 107.3 38.8753 107.512 38.9751C107.728 39.0748 107.836 39.2495 107.836 39.499C107.836 39.7193 107.776 39.8877 107.655 40.0042C107.539 40.1206 107.381 40.1788 107.181 40.1788C107.069 40.1788 106.971 40.1705 106.888 40.1538C106.805 40.1331 106.722 40.1102 106.639 40.0852C106.564 40.0603 106.485 40.0416 106.402 40.0291C106.323 40.0166 106.244 40.0104 106.165 40.0104C105.916 40.0104 105.677 40.0832 105.448 40.2287C105.224 40.3701 105.039 40.5634 104.893 40.8087C104.752 41.0541 104.681 41.3326 104.681 41.6445V43.9148Z" fill="#6C5CE7"/>
</svg>
