<svg width="77" height="24" viewBox="0 0 77 24" fill="none" xmlns="http://www.w3.org/2000/svg">
<path d="M16.8212 14.5001V0.671613H19.2143V6.51722L18.8855 6.17013C19.1169 5.5734 19.4944 5.1228 20.0181 4.81834C20.5539 4.5017 21.175 4.34338 21.8813 4.34338C22.612 4.34338 23.2575 4.5017 23.8177 4.81834C24.3901 5.13498 24.8346 5.57949 25.1512 6.15187C25.4679 6.71207 25.6262 7.36361 25.6262 8.10649V14.5001H23.2331V8.67278C23.2331 8.23436 23.1479 7.85684 22.9774 7.5402C22.8069 7.22356 22.5694 6.97999 22.265 6.8095C21.9727 6.62682 21.6256 6.53549 21.2237 6.53549C20.834 6.53549 20.4869 6.62682 20.1825 6.8095C19.878 6.97999 19.6405 7.22356 19.47 7.5402C19.2995 7.85684 19.2143 8.23436 19.2143 8.67278V14.5001H16.8212ZM27.2844 14.5001V4.56259H29.5313V6.8643L29.2755 6.48068C29.4582 5.76216 29.8236 5.22631 30.3716 4.87314C30.9196 4.51997 31.5651 4.34338 32.3079 4.34338C33.1239 4.34338 33.8424 4.5565 34.4635 4.98275C35.0846 5.40899 35.4865 5.96919 35.6692 6.66336L34.9933 6.71816C35.2977 5.92657 35.7544 5.33592 36.3633 4.94621C36.9723 4.54433 37.6725 4.34338 38.4641 4.34338C39.1704 4.34338 39.7976 4.5017 40.3457 4.81834C40.9059 5.13498 41.3443 5.57949 41.6609 6.15187C41.9776 6.71207 42.1359 7.36361 42.1359 8.10649V14.5001H39.7428V8.67278C39.7428 8.23436 39.6637 7.85684 39.5054 7.5402C39.347 7.22356 39.1278 6.97999 38.8477 6.8095C38.5676 6.62682 38.2266 6.53549 37.8247 6.53549C37.4472 6.53549 37.1123 6.62682 36.82 6.8095C36.5277 6.97999 36.3024 7.22356 36.1441 7.5402C35.9858 7.85684 35.9067 8.23436 35.9067 8.67278V14.5001H33.5136V8.67278C33.5136 8.23436 33.4344 7.85684 33.2761 7.5402C33.1178 7.22356 32.8925 6.97999 32.6002 6.8095C32.3201 6.62682 31.9852 6.53549 31.5955 6.53549C31.218 6.53549 30.8831 6.62682 30.5908 6.8095C30.2985 6.97999 30.0732 7.22356 29.9149 7.5402C29.7566 7.85684 29.6774 8.23436 29.6774 8.67278V14.5001H27.2844ZM46.8092 14.7193C46.1151 14.7193 45.5122 14.6036 45.0007 14.3722C44.4892 14.1409 44.0934 13.812 43.8133 13.3858C43.5332 12.9474 43.3932 12.442 43.3932 11.8696C43.3932 11.3216 43.515 10.8344 43.7585 10.4082C44.0021 9.96978 44.3796 9.60443 44.8911 9.31215C45.4026 9.01987 46.0481 8.81284 46.8275 8.69105L50.0791 8.16129V9.98805L47.2842 10.463C46.8092 10.5482 46.456 10.7005 46.2247 10.9197C45.9933 11.1389 45.8776 11.4251 45.8776 11.7783C45.8776 12.1193 46.0054 12.3933 46.2612 12.6003C46.5291 12.7952 46.8579 12.8926 47.2476 12.8926C47.747 12.8926 48.1854 12.7891 48.5629 12.582C48.9526 12.3628 49.251 12.0645 49.458 11.6869C49.6772 11.3094 49.7868 10.8953 49.7868 10.4447V7.88728C49.7868 7.46104 49.6163 7.10787 49.2753 6.82777C48.9465 6.53548 48.5081 6.38934 47.9601 6.38934C47.4486 6.38934 46.9919 6.5294 46.59 6.8095C46.2003 7.07742 45.9141 7.43668 45.7314 7.88728L43.7768 6.93737C43.9717 6.4137 44.2761 5.9631 44.6902 5.58557C45.1164 5.19587 45.6157 4.89141 46.1881 4.6722C46.7605 4.45299 47.3816 4.34338 48.0514 4.34338C48.8674 4.34338 49.5859 4.49561 50.207 4.80007C50.8281 5.09235 51.3091 5.50641 51.6501 6.04226C52.0033 6.56593 52.1799 7.18094 52.1799 7.88728V14.5001H49.9147V12.8012L50.4262 12.7647C50.1704 13.191 49.866 13.5502 49.5128 13.8425C49.1596 14.1226 48.7578 14.3418 48.3072 14.5001C47.8566 14.6463 47.3572 14.7193 46.8092 14.7193Z" fill="white"/>
<path d="M63.9414 13.8284H61.6758V12.7327C61.3655 13.1032 60.9767 13.4027 60.5068 13.6282C59.898 13.9082 59.2341 14.0481 58.5156 14.0481C57.5537 14.0481 56.6954 13.8227 55.9404 13.3723C55.1854 12.9095 54.5878 12.2821 54.1494 11.4905C53.7111 10.6989 53.4922 9.82162 53.4922 8.85962C53.4923 7.88565 53.7112 7.00896 54.1494 6.22974C54.5878 5.45032 55.1854 4.82923 55.9404 4.36646C56.7075 3.90383 57.5596 3.67218 58.4971 3.67212C59.2521 3.67212 59.9223 3.82469 60.5068 4.12915C60.9137 4.32843 61.2599 4.58521 61.5479 4.89771V0.000244141H63.9414V13.8284ZM55.8018 6.92603L57.9473 9.07153L55.8018 11.218H58.6729L60.8184 9.07153L58.6729 6.92603H55.8018Z" fill="white"/>
<path d="M2.85435 13.8947L11.4443 11.1212L13.033 13.8947H15.6181L9.694 3.52754L8.40147 5.73562L10.1787 8.85924L2.85435 13.8947Z" fill="#01C881"/>
<path d="M0 13.8947L7.80906 0L9.07466 2.28886L2.50428 13.8947H0Z" fill="#01C881"/>
<path d="M2.2212 21.5629V15.8623H0.460879V14.7678H5.20372V15.8623H3.47076V21.5629H2.2212ZM7.38979 21.6723C6.87903 21.6723 6.43211 21.5568 6.04903 21.3257C5.66596 21.0947 5.36801 20.7815 5.15519 20.3863C4.94237 19.991 4.83596 19.5532 4.83596 19.0729C4.83596 18.5743 4.94237 18.1334 5.15519 17.7504C5.37409 17.3612 5.669 17.0541 6.03991 16.8292C6.41691 16.6042 6.83646 16.4917 7.29859 16.4917C7.68774 16.4917 8.02825 16.5555 8.32012 16.6832C8.61807 16.8109 8.87041 16.9872 9.07715 17.2122C9.28389 17.4372 9.44198 17.6956 9.55143 17.9875C9.66088 18.2733 9.71561 18.5834 9.71561 18.9178C9.71561 19.003 9.70953 19.0911 9.69737 19.1823C9.69129 19.2735 9.67608 19.3526 9.65176 19.4195H5.82101V18.5074H8.97682L8.41133 18.9361C8.46605 18.6564 8.45085 18.4071 8.36572 18.1882C8.28668 17.9693 8.1529 17.796 7.96441 17.6683C7.78199 17.5406 7.56005 17.4767 7.29859 17.4767C7.04928 17.4767 6.82734 17.5406 6.63276 17.6683C6.43819 17.7899 6.28921 17.9723 6.18584 18.2155C6.08855 18.4527 6.05207 18.7415 6.07639 19.082C6.05207 19.386 6.0916 19.6566 6.19496 19.8938C6.30441 20.1248 6.46251 20.3042 6.66925 20.4319C6.88207 20.5596 7.12529 20.6234 7.39892 20.6234C7.67254 20.6234 7.9036 20.5657 8.0921 20.4501C8.28668 20.3346 8.43869 20.1795 8.54814 19.985L9.51495 20.4592C9.41766 20.6964 9.26565 20.9062 9.05891 21.0886C8.85217 21.271 8.60591 21.4139 8.32012 21.5173C8.04041 21.6206 7.73031 21.6723 7.38979 21.6723ZM12.8286 21.6723C12.3361 21.6723 11.8922 21.5598 11.497 21.3348C11.1078 21.1038 10.8007 20.7937 10.5757 20.4045C10.3508 20.0093 10.2383 19.5654 10.2383 19.0729C10.2383 18.5804 10.3508 18.1395 10.5757 17.7504C10.8007 17.3612 11.1078 17.0541 11.497 16.8292C11.8922 16.6042 12.3361 16.4917 12.8286 16.4917C13.1813 16.4917 13.5096 16.5555 13.8136 16.6832C14.1177 16.8048 14.3791 16.9751 14.598 17.194C14.823 17.4068 14.9842 17.6622 15.0814 17.9601L14.0325 18.4162C13.9413 18.1669 13.7863 17.9662 13.5674 17.8142C13.3546 17.6622 13.1083 17.5862 12.8286 17.5862C12.5671 17.5862 12.333 17.65 12.1263 17.7777C11.9256 17.9054 11.7675 18.0817 11.652 18.3067C11.5365 18.5317 11.4787 18.7901 11.4787 19.082C11.4787 19.3739 11.5365 19.6323 11.652 19.8573C11.7675 20.0823 11.9256 20.2586 12.1263 20.3863C12.333 20.514 12.5671 20.5778 12.8286 20.5778C13.1144 20.5778 13.3637 20.5018 13.5765 20.3498C13.7893 20.1978 13.9413 19.9941 14.0325 19.7387L15.0814 20.213C14.9842 20.4927 14.8261 20.745 14.6072 20.97C14.3883 21.1889 14.1268 21.3622 13.8228 21.4899C13.5187 21.6115 13.1873 21.6723 12.8286 21.6723ZM15.8056 21.5629V14.6584H17.0005V17.5771L16.8363 17.4038C16.9518 17.1058 17.1403 16.8808 17.4018 16.7288C17.6693 16.5707 17.9794 16.4917 18.3321 16.4917C18.6969 16.4917 19.0192 16.5707 19.2989 16.7288C19.5847 16.8869 19.8066 17.1089 19.9647 17.3946C20.1228 17.6743 20.2019 17.9997 20.2019 18.3706V21.5629H19.007V18.6533C19.007 18.4344 18.9645 18.2459 18.8793 18.0878C18.7942 17.9297 18.6756 17.8081 18.5236 17.723C18.3777 17.6318 18.2044 17.5862 18.0037 17.5862C17.8092 17.5862 17.6359 17.6318 17.4839 17.723C17.3318 17.8081 17.2133 17.9297 17.1281 18.0878C17.043 18.2459 17.0005 18.4344 17.0005 18.6533V21.5629H15.8056ZM21.0298 21.5629V16.6011H22.1517V17.5771L22.0604 17.4038C22.176 17.1058 22.3645 16.8808 22.6259 16.7288C22.8935 16.5707 23.2036 16.4917 23.5563 16.4917C23.9211 16.4917 24.2434 16.5707 24.5231 16.7288C24.8089 16.8869 25.0308 17.1089 25.1889 17.3946C25.347 17.6743 25.426 17.9997 25.426 18.3706V21.5629H24.2312V18.6533C24.2312 18.4344 24.1886 18.2459 24.1035 18.0878C24.0184 17.9297 23.8998 17.8081 23.7478 17.723C23.6019 17.6318 23.4286 17.5862 23.2279 17.5862C23.0333 17.5862 22.86 17.6318 22.708 17.723C22.556 17.8081 22.4374 17.9297 22.3523 18.0878C22.2672 18.2459 22.2246 18.4344 22.2246 18.6533V21.5629H21.0298ZM28.6801 21.6723C28.1937 21.6723 27.7498 21.5598 27.3485 21.3348C26.9532 21.1099 26.637 20.8028 26.3999 20.4136C26.1688 20.0245 26.0533 19.5806 26.0533 19.082C26.0533 18.5834 26.1688 18.1395 26.3999 17.7504C26.637 17.3612 26.9532 17.0541 27.3485 16.8292C27.7437 16.6042 28.1876 16.4917 28.6801 16.4917C29.1666 16.4917 29.6074 16.6042 30.0026 16.8292C30.3979 17.0541 30.711 17.3612 30.9421 17.7504C31.1792 18.1334 31.2978 18.5773 31.2978 19.082C31.2978 19.5806 31.1792 20.0245 30.9421 20.4136C30.7049 20.8028 30.3887 21.1099 29.9935 21.3348C29.5983 21.5598 29.1605 21.6723 28.6801 21.6723ZM28.6801 20.5778C28.9477 20.5778 29.1818 20.514 29.3824 20.3863C29.5892 20.2586 29.7503 20.0823 29.8658 19.8573C29.9874 19.6262 30.0482 19.3678 30.0482 19.082C30.0482 18.7901 29.9874 18.5347 29.8658 18.3158C29.7503 18.0909 29.5892 17.9145 29.3824 17.7868C29.1818 17.6531 28.9477 17.5862 28.6801 17.5862C28.4065 17.5862 28.1663 17.6531 27.9596 17.7868C27.7528 17.9145 27.5887 18.0909 27.467 18.3158C27.3515 18.5347 27.2937 18.7901 27.2937 19.082C27.2937 19.3678 27.3515 19.6262 27.467 19.8573C27.5887 20.0823 27.7528 20.2586 27.9596 20.3863C28.1663 20.514 28.4065 20.5778 28.6801 20.5778ZM32.0215 21.5629V14.6584H33.2163V21.5629H32.0215ZM36.5632 21.6723C36.0768 21.6723 35.6329 21.5598 35.2316 21.3348C34.8363 21.1099 34.5202 20.8028 34.283 20.4136C34.052 20.0245 33.9364 19.5806 33.9364 19.082C33.9364 18.5834 34.052 18.1395 34.283 17.7504C34.5202 17.3612 34.8363 17.0541 35.2316 16.8292C35.6268 16.6042 36.0707 16.4917 36.5632 16.4917C37.0497 16.4917 37.4905 16.6042 37.8857 16.8292C38.281 17.0541 38.5941 17.3612 38.8252 17.7504C39.0623 18.1334 39.1809 18.5773 39.1809 19.082C39.1809 19.5806 39.0623 20.0245 38.8252 20.4136C38.588 20.8028 38.2719 21.1099 37.8766 21.3348C37.4814 21.5598 37.0436 21.6723 36.5632 21.6723ZM36.5632 20.5778C36.8308 20.5778 37.0649 20.514 37.2655 20.3863C37.4723 20.2586 37.6334 20.0823 37.7489 19.8573C37.8705 19.6262 37.9313 19.3678 37.9313 19.082C37.9313 18.7901 37.8705 18.5347 37.7489 18.3158C37.6334 18.0909 37.4723 17.9145 37.2655 17.7868C37.0649 17.6531 36.8308 17.5862 36.5632 17.5862C36.2896 17.5862 36.0494 17.6531 35.8427 17.7868C35.6359 17.9145 35.4718 18.0909 35.3502 18.3158C35.2346 18.5347 35.1769 18.7901 35.1769 19.082C35.1769 19.3678 35.2346 19.6262 35.3502 19.8573C35.4718 20.0823 35.6359 20.2586 35.8427 20.3863C36.0494 20.514 36.2896 20.5778 36.5632 20.5778ZM42.3125 23.5695C41.9416 23.5695 41.598 23.5086 41.2818 23.387C40.9656 23.2654 40.692 23.0952 40.461 22.8763C40.236 22.6634 40.0718 22.4111 39.9684 22.1192L41.0812 21.6997C41.1541 21.9307 41.297 22.1162 41.5099 22.256C41.7288 22.402 41.9963 22.475 42.3125 22.475C42.5557 22.475 42.7685 22.4293 42.9509 22.3381C43.1394 22.2469 43.2854 22.1132 43.3887 21.9368C43.4921 21.7666 43.5438 21.5598 43.5438 21.3166V20.1856L43.7718 20.4592C43.6016 20.7572 43.3735 20.9822 43.0878 21.1342C42.802 21.2862 42.4767 21.3622 42.1118 21.3622C41.6497 21.3622 41.2362 21.2558 40.8714 21.043C40.5066 20.8302 40.2208 20.5383 40.014 20.1674C39.8073 19.7965 39.7039 19.3799 39.7039 18.9178C39.7039 18.4496 39.8073 18.0331 40.014 17.6683C40.2208 17.3034 40.5035 17.0176 40.8623 16.8109C41.221 16.5981 41.6284 16.4917 42.0845 16.4917C42.4554 16.4917 42.7807 16.5707 43.0604 16.7288C43.3462 16.8808 43.5833 17.1028 43.7718 17.3946L43.6076 17.6956V16.6011H44.7386V21.3166C44.7386 21.7483 44.6322 22.1344 44.4194 22.475C44.2127 22.8155 43.9269 23.083 43.562 23.2776C43.2033 23.4722 42.7868 23.5695 42.3125 23.5695ZM42.2578 20.2586C42.5131 20.2586 42.7351 20.2039 42.9236 20.0944C43.1182 19.9789 43.2702 19.8208 43.3796 19.6201C43.4891 19.4195 43.5438 19.1884 43.5438 18.9269C43.5438 18.6716 43.486 18.4435 43.3705 18.2429C43.2611 18.0361 43.109 17.875 42.9145 17.7595C42.726 17.6439 42.5071 17.5862 42.2578 17.5862C42.0085 17.5862 41.7835 17.6439 41.5828 17.7595C41.3822 17.875 41.2241 18.0361 41.1085 18.2429C40.9991 18.4435 40.9444 18.6716 40.9444 18.9269C40.9444 19.1823 40.9991 19.4103 41.1085 19.611C41.2241 19.8117 41.3791 19.9698 41.5737 20.0853C41.7744 20.2008 42.0024 20.2586 42.2578 20.2586ZM45.6721 21.5629V16.6011H46.8669V21.5629H45.6721ZM45.6721 16.0448V14.7678H46.8669V16.0448H45.6721ZM50.1409 21.6723C49.6301 21.6723 49.1832 21.5568 48.8001 21.3257C48.417 21.0947 48.1191 20.7815 47.9063 20.3863C47.6934 19.991 47.587 19.5532 47.587 19.0729C47.587 18.5743 47.6934 18.1334 47.9063 17.7504C48.1252 17.3612 48.4201 17.0541 48.791 16.8292C49.168 16.6042 49.5875 16.4917 50.0497 16.4917C50.4388 16.4917 50.7793 16.5555 51.0712 16.6832C51.3691 16.8109 51.6215 16.9872 51.8282 17.2122C52.035 17.4372 52.1931 17.6956 52.3025 17.9875C52.412 18.2733 52.4667 18.5834 52.4667 18.9178C52.4667 19.003 52.4606 19.0911 52.4484 19.1823C52.4424 19.2735 52.4272 19.3526 52.4028 19.4195H48.5721V18.5074H51.7279L51.1624 18.9361C51.2171 18.6564 51.2019 18.4071 51.1168 18.1882C51.0378 17.9693 50.904 17.796 50.7155 17.6683C50.5331 17.5406 50.3111 17.4767 50.0497 17.4767C49.8004 17.4767 49.5784 17.5406 49.3838 17.6683C49.1893 17.7899 49.0403 17.9723 48.9369 18.2155C48.8396 18.4527 48.8032 18.7415 48.8275 19.082C48.8032 19.386 48.8427 19.6566 48.946 19.8938C49.0555 20.1248 49.2136 20.3042 49.4203 20.4319C49.6331 20.5596 49.8764 20.6234 50.15 20.6234C50.4236 20.6234 50.6547 20.5657 50.8432 20.4501C51.0378 20.3346 51.1898 20.1795 51.2992 19.985L52.266 20.4592C52.1687 20.6964 52.0167 20.9062 51.81 21.0886C51.6032 21.271 51.357 21.4139 51.0712 21.5173C50.7915 21.6206 50.4814 21.6723 50.1409 21.6723ZM55.078 21.6723C54.549 21.6723 54.0869 21.5477 53.6917 21.2984C53.3025 21.043 53.035 20.6994 52.889 20.2677L53.7829 19.839C53.9106 20.1187 54.0869 20.3376 54.3119 20.4957C54.5429 20.6538 54.7983 20.7329 55.078 20.7329C55.2969 20.7329 55.4702 20.6842 55.5979 20.5869C55.7256 20.4896 55.7895 20.362 55.7895 20.2039C55.7895 20.1066 55.7621 20.0275 55.7074 19.9667C55.6587 19.8998 55.5888 19.8451 55.4976 19.8025C55.4125 19.7539 55.3182 19.7144 55.2148 19.684L54.4031 19.456C53.9835 19.3343 53.6643 19.1489 53.4454 18.8996C53.2326 18.6503 53.1262 18.3554 53.1262 18.0149C53.1262 17.7108 53.2022 17.4463 53.3542 17.2213C53.5123 16.9903 53.7281 16.8109 54.0018 16.6832C54.2815 16.5555 54.6007 16.4917 54.9595 16.4917C55.4277 16.4917 55.8411 16.6042 56.1999 16.8292C56.5586 17.0541 56.814 17.3703 56.966 17.7777L56.054 18.2064C55.9688 17.9814 55.8259 17.802 55.6253 17.6683C55.4246 17.5345 55.1996 17.4676 54.9503 17.4676C54.7497 17.4676 54.5916 17.5132 54.476 17.6044C54.3605 17.6956 54.3028 17.8142 54.3028 17.9601C54.3028 18.0513 54.3271 18.1304 54.3757 18.1973C54.4244 18.2642 54.4913 18.3189 54.5764 18.3615C54.6676 18.404 54.771 18.4435 54.8865 18.48L55.68 18.7172C56.0874 18.8388 56.4005 19.0212 56.6194 19.2644C56.8444 19.5076 56.9569 19.8056 56.9569 20.1583C56.9569 20.4562 56.8779 20.7207 56.7198 20.9518C56.5617 21.1768 56.3428 21.3531 56.0631 21.4808C55.7834 21.6085 55.455 21.6723 55.078 21.6723ZM59.2317 21.5629V14.7678H60.4721V20.4684H63.3817V21.5629H59.2317ZM64.0016 21.5629V14.7678H65.2421V20.4684H68.1516V21.5629H64.0016ZM71.7857 21.6723C71.2992 21.6723 70.8493 21.5841 70.4358 21.4078C70.0284 21.2315 69.6697 20.9852 69.3595 20.669C69.0555 20.3528 68.8184 19.9819 68.6481 19.5563C68.4779 19.1306 68.3927 18.6655 68.3927 18.1608C68.3927 17.6561 68.4748 17.1909 68.639 16.7653C68.8093 16.3336 69.0464 15.9627 69.3504 15.6526C69.6605 15.3364 70.0223 15.0932 70.4358 14.9229C70.8493 14.7466 71.2992 14.6584 71.7857 14.6584C72.2721 14.6584 72.7069 14.7405 73.09 14.9047C73.4791 15.0688 73.8075 15.2877 74.075 15.5614C74.3426 15.8289 74.5341 16.1238 74.6496 16.4461L73.5369 16.966C73.4092 16.6255 73.1933 16.3457 72.8893 16.1268C72.5853 15.9019 72.2174 15.7894 71.7857 15.7894C71.3601 15.7894 70.9831 15.8897 70.6547 16.0904C70.3324 16.291 70.0801 16.5677 69.8977 16.9204C69.7213 17.273 69.6332 17.6865 69.6332 18.1608C69.6332 18.6351 69.7213 19.0516 69.8977 19.4103C70.0801 19.763 70.3324 20.0397 70.6547 20.2403C70.9831 20.441 71.3601 20.5413 71.7857 20.5413C72.2174 20.5413 72.5853 20.4319 72.8893 20.213C73.1933 19.988 73.4092 19.7053 73.5369 19.3647L74.6496 19.8846C74.5341 20.2069 74.3426 20.5048 74.075 20.7785C73.8075 21.046 73.4791 21.2619 73.09 21.4261C72.7069 21.5902 72.2721 21.6723 71.7857 21.6723Z" fill="white"/>
<circle cx="76.1706" cy="21.8922" r="0.67065" fill="#01C881"/>
</svg>
