<svg width="118" height="21" viewBox="0 0 118 21" fill="none" xmlns="http://www.w3.org/2000/svg">
<path d="M11.6587 8.82918C11.6446 8.81541 11.639 8.79511 11.6441 8.77607L12.4472 5.77875C12.4631 5.71925 12.3833 5.6834 12.3494 5.73485L9.43548 10.1586C9.41932 10.1831 9.42565 10.2161 9.44948 10.2332C10.1217 10.7172 10.6279 11.3978 10.8978 12.1817C11.1735 12.9824 11.1886 13.8497 10.9411 14.6594C10.6935 15.4692 10.1959 16.1798 9.51968 16.6894C8.84344 17.199 8.02323 17.4814 7.17662 17.4962C6.33 17.5109 5.50043 17.2573 4.80682 16.7716C4.11321 16.286 3.59115 15.5932 3.31548 14.7926C3.0398 13.9919 3.02466 13.1246 3.27223 12.3149C3.51484 11.5213 3.99755 10.823 4.65324 10.3157C4.67584 10.2983 4.68146 10.2664 4.66583 10.2424L1.86499 5.95596C1.83123 5.9043 1.75115 5.94008 1.76713 5.9997L2.52322 8.82147C2.52827 8.84032 2.52279 8.86043 2.50897 8.87421C1.75443 9.62625 1.19247 10.5555 0.878333 11.583C0.476208 12.8983 0.500799 14.3071 0.948581 15.6075C1.39636 16.908 2.24435 18.0333 3.371 18.8222C4.49765 19.6111 5.84513 20.0231 7.2203 19.999C8.59548 19.975 9.92776 19.5163 11.0262 18.6886C12.1246 17.8608 12.9328 16.7066 13.3349 15.3913C13.7371 14.076 13.7125 12.6672 13.2647 11.3668C12.9328 10.4028 12.3809 9.53501 11.6587 8.82918Z" fill="#2563EB"/>
<circle cx="7.08112" cy="8.2768" r="2.17096" fill="#2563EB"/>
<path d="M7.08556 10.882L8.10796 13.1502C8.34185 13.6691 8.08477 14.2683 7.53377 14.4885C6.64493 14.8438 5.74364 14.0098 6.10536 13.1667L7.08556 10.882Z" fill="#2563EB"/>
<path d="M6.58594 0.227295L8.80816 2.72729L11.5859 1.06063L10.5882 4.802C10.5214 5.05279 10.2942 5.22729 10.0347 5.22729H3.13721C2.87765 5.22729 2.65051 5.05279 2.58364 4.802L1.58594 1.06063L4.36372 2.72729L6.58594 0.227295Z" fill="#2563EB"/>
<path d="M22.06 16.4926H17.44V4.24255H22.06C25.9975 4.24255 28.3075 7.06005 28.3075 10.3676C28.3075 13.6751 26.015 16.4926 22.06 16.4926ZM20.275 6.62255V14.1126H21.7975C24.2125 14.1126 25.385 12.3101 25.385 10.3676C25.385 8.42505 24.2125 6.62255 21.7975 6.62255H20.275ZM33.9049 16.4926H31.5949L27.2724 4.24255H30.2474L32.8024 12.3801L35.2349 4.24255H37.4399L39.8724 12.3801L42.4274 4.24255H45.4024L41.0799 16.4926H38.7699L36.3374 8.79255L33.9049 16.4926ZM53.3347 16.4926H45.8447V4.24255H53.3347V6.51755H48.6797V9.30005H53.3347V11.5226H48.6797V14.2176H53.3347V16.4926ZM62.2538 16.4926H54.8688V4.24255H57.7038V13.9726H62.2538V16.4926ZM70.7994 16.4926H63.4144V4.24255H66.2494V13.9726H70.7994V16.4926ZM82.1479 10.2276C83.5654 10.3676 84.6679 11.4001 84.6679 13.0976C84.6679 15.1976 83.1804 16.4926 80.7479 16.4926H75.5154V4.24255H80.5554C82.9879 4.24255 84.4929 5.45005 84.4929 7.42755C84.4929 9.02005 83.5654 9.96505 82.1479 10.2276ZM79.9254 6.29005H78.3504V9.26505H79.9254C81.0104 9.26505 81.6579 8.70505 81.6579 7.77755C81.6579 6.85005 81.0279 6.29005 79.9254 6.29005ZM78.3504 14.3401H80.1179C81.1679 14.3401 81.8154 13.7451 81.8154 12.7301C81.8154 11.8201 81.1329 11.2251 80.1179 11.2251H78.3504V14.3401ZM91.5804 16.8426C87.4679 16.8426 85.0354 13.8501 85.0354 10.3676C85.0354 6.88505 87.4679 3.89255 91.5804 3.89255C95.6929 3.89255 98.1254 6.88505 98.1254 10.3676C98.1254 13.8501 95.6929 16.8426 91.5804 16.8426ZM91.5804 14.3051C93.9079 14.3051 95.1679 12.5026 95.1679 10.3676C95.1679 8.23255 93.9079 6.43005 91.5804 6.43005C89.2354 6.43005 87.9754 8.23255 87.9929 10.3676C87.9754 12.5026 89.2354 14.3051 91.5804 14.3051ZM102.869 16.8426C99.8594 16.8426 98.0569 15.2326 98.0569 12.4851H100.892C100.892 13.8151 101.644 14.6026 102.887 14.6026C103.937 14.6026 104.532 14.1126 104.532 13.2551C104.532 12.5026 104.147 12.1176 103.044 11.6801L100.839 10.8226C99.1944 10.2101 98.3544 9.07255 98.3544 7.48005C98.3544 5.32755 100.052 3.89255 102.712 3.89255C105.407 3.89255 107.192 5.41505 107.192 7.77755H104.357C104.357 6.64005 103.762 6.01005 102.659 6.01005C101.732 6.01005 101.189 6.48255 101.189 7.21755C101.189 7.90005 101.662 8.32005 102.869 8.81005L104.899 9.61505C106.597 10.2801 107.367 11.4176 107.367 13.0626C107.367 15.3551 105.582 16.8426 102.869 16.8426ZM112.338 16.8426C109.328 16.8426 107.525 15.2326 107.525 12.4851H110.36C110.36 13.8151 111.113 14.6026 112.355 14.6026C113.405 14.6026 114 14.1126 114 13.2551C114 12.5026 113.615 12.1176 112.513 11.6801L110.308 10.8226C108.663 10.2101 107.823 9.07255 107.823 7.48005C107.823 5.32755 109.52 3.89255 112.18 3.89255C114.875 3.89255 116.66 5.41505 116.66 7.77755H113.825C113.825 6.64005 113.23 6.01005 112.128 6.01005C111.2 6.01005 110.658 6.48255 110.658 7.21755C110.658 7.90005 111.13 8.32005 112.338 8.81005L114.368 9.61505C116.065 10.2801 116.835 11.4176 116.835 13.0626C116.835 15.3551 115.05 16.8426 112.338 16.8426Z" fill="#2563EB"/>
</svg>
