<svg width="133" height="24" viewBox="0 0 133 24" fill="none" xmlns="http://www.w3.org/2000/svg">
<g clip-path="url(#clip0_289_7229)">
<path d="M3.75981 14.8845C3.2887 14.1689 2.98314 13.3056 2.86759 12.3434C2.83648 12.0912 2.82093 11.8345 2.81759 11.5789C2.55426 11.1312 2.34981 10.6512 2.21981 10.1456C1.16092 6.16226 4.85426 2.06338 8.88426 2.16227C12.4465 2.13004 15.332 5.21226 15.2876 8.73671C15.3354 10.07 17.2387 10.0856 17.3031 8.74893C17.4676 4.04226 13.6209 -0.0255166 8.88537 0.01115C5.09759 -0.0321833 1.53315 2.58671 0.394259 6.18782C-0.31463 8.32004 -0.0857468 10.8289 1.2287 12.6812C1.8887 13.6123 2.75426 14.3778 3.75981 14.8845Z" fill="#0D6EFD"/>
<path d="M5.67878 14.6823C5.59323 14.5468 5.51212 14.4023 5.4399 14.249C5.40323 14.1712 5.36878 14.0935 5.33767 14.0135C4.60878 12.1879 5.2799 10.0479 6.6699 8.83345C7.89768 7.76012 9.35878 7.69568 9.82101 7.69345C9.84878 8.19012 9.87656 8.68679 9.90434 9.18346C9.90434 9.20457 9.90434 9.28123 9.95656 9.32901C10.0254 9.39012 10.161 9.38345 10.2632 9.28568L13.0043 6.60457C13.1032 6.5079 13.1032 6.3479 13.0032 6.25123C12.141 5.42346 11.2788 4.59679 10.4177 3.76901C10.2632 3.62123 10.0066 3.72679 10.001 3.94012C9.99212 4.29012 9.98323 4.64123 9.97323 4.99123C9.3699 4.99567 8.43434 5.07679 7.3999 5.50123C6.72656 5.7779 4.50656 6.8179 3.63878 9.25123C3.31545 10.1579 3.18656 11.239 3.31434 12.2912C3.44656 13.3812 3.85323 14.439 4.60656 15.2368C4.78545 15.4268 4.98434 15.6023 5.20434 15.7601C6.32212 16.5623 7.57545 16.6179 8.21545 16.5946C7.87434 16.4823 6.511 15.9979 5.67878 14.6823Z" fill="#89C6EF"/>
<path d="M9.37137 17.7211C9.88929 17.7211 10.3091 17.3013 10.3091 16.7834C10.3091 16.2654 9.88929 15.8456 9.37137 15.8456C8.85345 15.8456 8.43359 16.2654 8.43359 16.7834C8.43359 17.3013 8.85345 17.7211 9.37137 17.7211Z" fill="#89C6EF"/>
<path d="M24.754 11.15V15.8445H26.8896V11.2912C26.8896 8.62671 25.1074 6.84338 22.4418 6.84338C19.6707 6.84338 17.9062 8.6256 17.9062 11.2912V15.8445H20.024V11.15C20.024 9.77338 20.9774 8.82005 22.3718 8.82005C23.8007 8.82005 24.754 9.7556 24.754 11.15Z" fill="#0D6EFD"/>
<path d="M32.8375 16.0212C35.2731 16.0212 36.9142 14.8034 37.3031 12.6145H35.132C34.8675 13.4967 34.0731 14.0967 32.8909 14.0967C31.3375 14.0967 30.3675 13.1078 30.3142 11.7489H37.3031V11.2189C37.3031 8.44784 35.4142 6.84229 32.8375 6.84229C30.0486 6.84229 28.1953 8.67784 28.1953 11.4312C28.1953 14.1856 30.0486 16.0212 32.8375 16.0212ZM32.8553 8.57339C34.0909 8.57339 34.9031 9.26117 35.0786 10.3212H30.4198C30.7375 9.35006 31.6198 8.57339 32.8553 8.57339Z" fill="#0D6EFD"/>
<path d="M45.0203 16.0213C48.197 16.0213 50.4381 14.2568 51.0392 11.5379H48.7803C48.1803 13.1268 46.927 14.079 45.0215 14.079C42.427 14.079 40.7148 12.3313 40.7148 9.66682C40.7148 7.00238 42.427 5.2546 45.0215 5.2546C46.9281 5.2546 48.1803 6.20793 48.7803 7.79571H51.0392C50.4392 5.07793 48.1981 3.31238 45.0203 3.31238C41.1548 3.31238 38.5781 5.85349 38.5781 9.66571C38.5781 13.4802 41.1548 16.0213 45.0203 16.0213Z" fill="#0D6EFD"/>
<path d="M54.4615 2.60779H52.3438V15.8445H54.4615V2.60779Z" fill="#0D6EFD"/>
<path d="M58.0631 7.02002H55.9453V15.8445H58.0631V7.02002Z" fill="#0D6EFD"/>
<path d="M57.0051 5.60792C57.7462 5.60792 58.2406 5.14903 58.2406 4.46014C58.2406 3.77237 57.7462 3.31348 57.0051 3.31348C56.264 3.31348 55.7695 3.77237 55.7695 4.46014C55.7695 5.14903 56.264 5.60792 57.0051 5.60792Z" fill="#0D6EFD"/>
<path d="M68.6351 12.4034H66.4285C66.1285 13.3923 65.3873 14.0267 64.1696 14.0267C62.6518 14.0267 61.6284 12.9678 61.6284 11.4323C61.6284 9.87894 62.6518 8.83782 64.1696 8.83782C65.3873 8.83782 66.1285 9.47338 66.4285 10.4612H68.6351C68.2462 8.25449 66.6051 6.84338 64.1696 6.84338C61.3807 6.84338 59.5273 8.67894 59.5273 11.4323C59.5273 14.1856 61.3807 16.0212 64.1696 16.0212C66.6062 16.0212 68.2473 14.6089 68.6351 12.4034Z" fill="#0D6EFD"/>
<path d="M74.3497 12.65L76.9453 15.8445H79.4508L75.5331 11.0089L78.4097 7.02001H76.0097L72.0564 12.7033V2.60779H69.9375V15.8445H72.0564L74.3497 12.65Z" fill="#0D6EFD"/>
<path d="M87.9422 12.3857C87.9422 13.4446 86.9889 14.0624 84.7833 14.0624C82.4889 14.0624 81.3944 13.5324 80.53 13.2324V15.3501C81.8533 15.8446 82.9833 16.0379 84.8545 16.0379C88.0311 16.0379 90.0611 14.8023 90.0611 12.2612C90.0611 7.19568 82.1189 9.91346 82.1189 6.9668C82.1189 5.90791 83.0722 5.29013 85.2778 5.29013C87.59 5.29013 88.6667 5.82013 89.5311 6.12013V4.00235C88.2078 3.50791 87.0778 3.31458 85.2067 3.31458C82.03 3.31458 80 4.55013 80 7.07346C80 12.139 87.9422 9.4379 87.9422 12.3857Z" fill="#0D6EFD"/>
<path d="M93.2536 15.8444H100.614V13.9033H93.4303V10.6378H99.5903V8.69666H93.4303V5.4311H100.614V3.48999H93.2536C92.0892 3.48999 91.3125 4.26666 91.3125 5.4311V7.88444C91.3125 8.89 91.6481 9.57888 92.6714 9.57888H92.7769V9.75555H92.6714C91.6481 9.73777 91.3125 10.4444 91.3125 11.45V13.9033C91.3125 15.0678 92.0892 15.8444 93.2536 15.8444Z" fill="#0D6EFD"/>
<path d="M107.763 3.31348C103.897 3.31348 101.32 5.85459 101.32 9.66681C101.32 13.479 103.897 16.0201 107.763 16.0201C111.61 16.0201 114.187 13.479 114.187 9.66681C114.187 5.8557 111.61 3.31348 107.763 3.31348ZM107.763 14.0801C105.168 14.0801 103.456 12.3324 103.456 9.66792C103.456 7.00348 105.168 5.2557 107.763 5.2557C110.339 5.2557 112.051 7.00348 112.051 9.66792C112.051 12.3324 110.339 14.0801 107.763 14.0801Z" fill="#0D6EFD"/>
<path d="M116.777 13.6389C116.001 13.6389 115.488 14.1156 115.488 14.8211C115.488 15.5445 116.001 16.0211 116.777 16.0211C117.572 16.0211 118.083 15.5445 118.083 14.8211C118.084 14.1156 117.572 13.6389 116.777 13.6389Z" fill="#0D6EFD"/>
<path d="M124.033 6.84338C121.226 6.84338 119.391 8.60782 119.391 11.5734C119.391 14.2556 121.032 16.0212 123.467 16.0212C125.374 16.0212 126.38 15.0323 126.38 14.2212V14.0623L126.538 14.0445V15.8445H128.674V11.4323C128.656 8.67894 126.803 6.84338 124.033 6.84338ZM123.98 14.0267C122.444 14.0267 121.491 13.0212 121.491 11.4323C121.491 9.87894 122.514 8.83782 124.032 8.83782C125.567 8.83782 126.538 9.84338 126.538 11.4323C126.538 12.9678 125.78 14.0267 123.98 14.0267Z" fill="#0D6EFD"/>
<path d="M132.278 7.02002H130.16V15.8445H132.278V7.02002Z" fill="#0D6EFD"/>
<path d="M131.216 5.60792C131.957 5.60792 132.452 5.14903 132.452 4.46014C132.452 3.77237 131.957 3.31348 131.216 3.31348C130.475 3.31348 129.98 3.77237 129.98 4.46014C129.98 5.14903 130.475 5.60792 131.216 5.60792Z" fill="#0D6EFD"/>
<path d="M4.2071 18.1377C4.94265 18.1377 5.42599 18.5055 5.6571 19.1177H6.52821C6.2971 18.0699 5.43265 17.3888 4.2071 17.3888C2.71599 17.3888 1.72266 18.3688 1.72266 19.8399C1.72266 21.3099 2.71599 22.2899 4.2071 22.2899C5.43265 22.2899 6.2971 21.6088 6.52821 20.561H5.6571C5.42599 21.1732 4.94265 21.541 4.2071 21.541C3.20599 21.541 2.54599 20.8677 2.54599 19.8388C2.54599 18.811 3.20599 18.1377 4.2071 18.1377Z" fill="#0D6EFD"/>
<path d="M8.11745 17.1167H7.30078V22.2223H8.11745V17.1167Z" fill="#0D6EFD"/>
<path d="M9.78151 18.8177H8.96484V22.2211H9.78151V18.8177Z" fill="#0D6EFD"/>
<path d="M12.4072 19.5189C12.8772 19.5189 13.1627 19.7644 13.2783 20.1456H14.1294C13.9794 19.2944 13.3472 18.75 12.4072 18.75C11.3316 18.75 10.6172 19.4578 10.6172 20.52C10.6172 21.5822 11.3316 22.29 12.4072 22.29C13.3461 22.29 13.9794 21.7456 14.1294 20.8944H13.2783C13.1627 21.2756 12.8772 21.5211 12.4072 21.5211C11.8216 21.5211 11.4272 21.1122 11.4272 20.52C11.4272 19.9211 11.8216 19.5189 12.4072 19.5189Z" fill="#0D6EFD"/>
<path d="M18.174 18.8178H17.2485L15.724 21.01V17.1167H14.9062V22.2223H15.724L16.6085 20.99L17.6096 22.2223H18.5762L17.0651 20.3567L18.174 18.8178Z" fill="#0D6EFD"/>
<path d="M23.6329 17.3888C22.1418 17.3888 21.1484 18.3688 21.1484 19.8399C21.1484 21.3099 22.1418 22.2899 23.6329 22.2899C25.1173 22.2899 26.1107 21.3099 26.1107 19.8399C26.1107 18.3688 25.1173 17.3888 23.6329 17.3888ZM23.6329 21.541C22.6318 21.541 21.9718 20.8677 21.9718 19.8388C21.9718 18.811 22.6318 18.1366 23.6329 18.1366C24.6262 18.1366 25.2873 18.8099 25.2873 19.8388C25.2873 20.8666 24.6273 21.541 23.6329 21.541Z" fill="#0D6EFD"/>
<path d="M28.6289 18.75C27.56 18.75 26.8789 19.4378 26.8789 20.4656V22.2222H27.6956V20.4111C27.6956 19.88 28.0634 19.5122 28.6011 19.5122C29.1522 19.5122 29.52 19.8733 29.52 20.4111V22.2222H30.3434V20.4656C30.3445 19.4378 29.6567 18.75 28.6289 18.75Z" fill="#0D6EFD"/>
<path d="M32.9111 19.5189C33.3811 19.5189 33.6666 19.7644 33.7822 20.1456H34.6333C34.4833 19.2944 33.8511 18.75 32.9111 18.75C31.8355 18.75 31.1211 19.4578 31.1211 20.52C31.1211 21.5822 31.8355 22.29 32.9111 22.29C33.85 22.29 34.4833 21.7456 34.6333 20.8944H33.7822C33.6666 21.2756 33.3811 21.5211 32.9111 21.5211C32.3255 21.5211 31.9311 21.1122 31.9311 20.52C31.9311 19.9211 32.3266 19.5189 32.9111 19.5189Z" fill="#0D6EFD"/>
<path d="M37.1806 18.75C36.1051 18.75 35.3906 19.4578 35.3906 20.52C35.3906 21.5822 36.1051 22.29 37.1806 22.29C38.1195 22.29 38.7528 21.82 38.9028 20.9767H38.0651C37.9628 21.3167 37.6562 21.5489 37.2006 21.5489C36.6017 21.5489 36.2273 21.1678 36.2073 20.6433H38.9028V20.4389C38.9028 19.37 38.174 18.75 37.1806 18.75ZM36.2473 20.0911C36.3695 19.7167 36.7106 19.4178 37.1862 19.4178C37.6617 19.4178 37.9762 19.6833 38.044 20.0911H36.2473Z" fill="#0D6EFD"/>
<path d="M40.1139 21.3711C39.8139 21.3711 39.6172 21.5544 39.6172 21.8266C39.6172 22.1055 39.815 22.29 40.1139 22.29C40.4205 22.29 40.6172 22.1066 40.6172 21.8266C40.6183 21.5544 40.4205 21.3711 40.1139 21.3711Z" fill="#0D6EFD"/>
<path d="M46.1117 20.4999V20.4388C46.6361 20.4388 47.3306 20.0232 47.3306 19.0632C47.3306 18.0621 46.5483 17.3888 45.3161 17.3888C44.0706 17.3888 43.2539 18.1377 43.2539 19.2743L43.2606 22.2221H44.0772V19.2743C44.0772 18.5732 44.5406 18.1577 45.3161 18.1577C46.0783 18.1577 46.5072 18.5121 46.5072 19.1177C46.5072 19.7377 46.0439 20.0777 45.295 20.0777H45.1583V20.8332H45.3017C45.805 20.8332 46.1117 21.0032 46.275 21.4055L46.6839 22.2221H47.6028L47.0239 21.0855C46.8595 20.7444 46.4995 20.4999 46.1117 20.4999Z" fill="#0D6EFD"/>
<path d="M49.7197 18.75C48.6375 18.75 47.9297 19.4311 47.9297 20.5744C47.9297 21.6089 48.563 22.29 49.5019 22.29C50.2375 22.29 50.6252 21.9089 50.6252 21.5956V21.5344L50.6864 21.5278V22.2222H51.5097V20.52C51.503 19.4578 50.7875 18.75 49.7197 18.75ZM49.6986 21.52C49.1064 21.52 48.7386 21.1322 48.7386 20.5189C48.7386 19.92 49.133 19.5178 49.7186 19.5178C50.3108 19.5178 50.6852 19.9056 50.6852 20.5189C50.6864 21.1122 50.393 21.52 49.6986 21.52Z" fill="#0D6EFD"/>
<path d="M54.038 18.75C52.9691 18.75 52.2891 19.4378 52.2891 20.4656V22.2222H53.1057V20.4111C53.1057 19.88 53.4735 19.5122 54.0113 19.5122C54.5624 19.5122 54.9302 19.8733 54.9302 20.4111V22.2222H55.7535V20.4656C55.7524 19.4378 55.0657 18.75 54.038 18.75Z" fill="#0D6EFD"/>
<path d="M59.7979 18.8178H58.8724L57.3479 21.01V17.1167H56.5312V22.2223H57.3479L58.2324 20.99L59.2335 22.2223H60.2001L58.689 20.3567L59.7979 18.8178Z" fill="#0D6EFD"/>
<path d="M62.7734 18.2055V19.1522C62.7734 19.54 62.9023 19.8055 63.2979 19.8055H63.339V19.8733H63.2979C62.9034 19.8667 62.7734 20.1389 62.7734 20.5267V21.4733C62.7734 21.9222 63.0734 22.2222 63.5223 22.2222H66.3612V21.4733H63.5901V20.2144H65.9657V19.4655H63.5901V18.2067H66.3612V17.4578H63.5223C63.0734 17.4567 62.7734 17.7567 62.7734 18.2055Z" fill="#0D6EFD"/>
<path d="M69.3689 19.6889C69.3689 21.3289 68.2656 21.4389 67.9534 21.4389V18.8177H67.1367V22.2222H67.8789C69.2267 22.2222 70.1934 21.3444 70.1934 19.6289V18.8189H69.37V19.6889H69.3689Z" fill="#0D6EFD"/>
<path d="M72.6884 18.75C71.6129 18.75 70.8984 19.4578 70.8984 20.52C70.8984 21.5822 71.6129 22.29 72.6884 22.29C73.6273 22.29 74.2607 21.82 74.4107 20.9767H73.5729C73.4707 21.3167 73.164 21.5489 72.7084 21.5489C72.1095 21.5489 71.7351 21.1678 71.7151 20.6433H74.4107V20.4389C74.4107 19.37 73.6818 18.75 72.6884 18.75ZM71.7551 20.0911C71.8773 19.7167 72.2184 19.4178 72.694 19.4178C73.1707 19.4178 73.484 19.6833 73.5518 20.0911H71.7551Z" fill="#0D6EFD"/>
<path d="M75.1875 20.6355V22.2222H76.0042V20.5333C76.0042 19.9411 76.4053 19.5867 77.0053 19.58V18.7833C75.8953 18.7844 75.1875 19.4578 75.1875 20.6355Z" fill="#0D6EFD"/>
<path d="M80.3911 20.5611C80.3911 21.1255 80.0444 21.5211 79.4378 21.5211C78.8455 21.5211 78.5667 21.2622 78.5667 20.6977V18.8188H77.75V20.6433C77.75 21.7188 78.1722 22.2911 79.2411 22.2911C79.8333 22.2911 80.33 22.0188 80.33 21.5766V21.5155H80.3911V22.4622C80.3911 23.02 80.0844 23.3 79.4655 23.3C78.9011 23.3 78.6078 23.0822 78.6078 22.5988H77.7911C77.7911 23.5455 78.41 23.9944 79.4389 23.9944C80.5689 23.9944 81.2155 23.4155 81.2155 22.3944V18.8211H80.3922V20.5611H80.3911Z" fill="#0D6EFD"/>
<path d="M86.8655 20.6289C86.8655 21.2411 86.5188 21.5211 86.0833 21.5211C85.5322 21.5211 85.2455 21.1466 85.2455 20.6289V18.8177H84.4222V20.6289C84.4222 21.1466 84.1366 21.5211 83.5844 21.5211C83.1488 21.5211 82.8011 21.2422 82.8011 20.6289V18.8177H81.9844V20.5744C81.9844 21.6844 82.5155 22.29 83.5155 22.29C84.3255 22.29 84.8022 21.7866 84.7955 21.1878H84.8633C84.8633 21.7866 85.3399 22.29 86.1499 22.29C87.1511 22.29 87.681 21.6844 87.681 20.5744V18.8177H86.8644V20.6289H86.8655Z" fill="#0D6EFD"/>
<path d="M90.4515 18.75C89.6893 18.75 89.3493 19.2056 89.3493 19.54H89.2815V17.1167H88.4648V22.2223H89.2815V20.4523C89.2815 19.9145 89.6148 19.52 90.2415 19.52C90.7926 19.52 91.106 19.8334 91.106 20.3711V22.2223H91.9293V20.35C91.9293 19.3834 91.4048 18.75 90.4515 18.75Z" fill="#0D6EFD"/>
<path d="M94.497 18.75C93.4215 18.75 92.707 19.4578 92.707 20.52C92.707 21.5822 93.4215 22.29 94.497 22.29C95.4359 22.29 96.0693 21.82 96.2193 20.9767H95.3815C95.2792 21.3167 94.9726 21.5489 94.517 21.5489C93.9181 21.5489 93.5437 21.1678 93.5226 20.6433H96.2181V20.4389C96.2193 19.37 95.4915 18.75 94.497 18.75ZM93.5648 20.0911C93.687 19.7167 94.0281 19.4178 94.5037 19.4178C94.9804 19.4178 95.2937 19.6833 95.3615 20.0911H93.5648Z" fill="#0D6EFD"/>
<path d="M96.9922 20.6355V22.2222H97.8089V20.5333C97.8089 19.9411 98.21 19.5867 98.81 19.58V18.7833C97.7011 18.7844 96.9922 19.4578 96.9922 20.6355Z" fill="#0D6EFD"/>
<path d="M101.138 18.75C100.062 18.75 99.3477 19.4578 99.3477 20.52C99.3477 21.5822 100.062 22.29 101.138 22.29C102.077 22.29 102.71 21.82 102.86 20.9767H102.022C101.92 21.3167 101.613 21.5489 101.158 21.5489C100.559 21.5489 100.184 21.1678 100.164 20.6433H102.86V20.4389C102.86 19.37 102.132 18.75 101.138 18.75ZM100.205 20.0911C100.328 19.7167 100.669 19.4178 101.144 19.4178C101.621 19.4178 101.934 19.6833 102.002 20.0911H100.205Z" fill="#0D6EFD"/>
</g>
<defs>
<clipPath id="clip0_289_7229">
<rect width="132.444" height="24" fill="white"/>
</clipPath>
</defs>
</svg>
