<svg width="147" height="24" viewBox="0 0 147 24" fill="none" xmlns="http://www.w3.org/2000/svg">
<path d="M7.91797 0.0358118C8.17179 -0.0331181 8.44183 -0.00186201 8.67383 0.123702C8.90577 0.249312 9.08277 0.459633 9.16895 0.71257C9.25505 0.965599 9.24444 1.24281 9.13867 1.48796C9.03284 1.73314 8.83983 1.92863 8.59864 2.03484C8.35741 2.14104 8.08552 2.14981 7.83789 2.06023L6.7666 5.04948C7.67479 4.76806 8.61916 4.62552 9.56836 4.62663H20.8311C26.1081 4.62676 30.4004 8.97287 30.4004 14.3141C30.4002 19.6552 26.108 23.9996 20.8311 23.9997H2.2378e-06V14.3132C-0.00161052 11.9252 0.868557 9.62159 2.44141 7.85222L5.28321 4.56609L7.56836 1.91472C7.35691 1.75568 7.21185 1.52074 7.16309 1.25749C7.11439 0.994355 7.16577 0.722402 7.30567 0.495773C7.44561 0.269145 7.66418 0.104809 7.91797 0.0358118ZM9.27149 8.50847C9.0758 8.51881 8.88274 8.53869 8.69239 8.56804C8.40944 8.61217 8.12989 8.67805 7.85645 8.76433C7.67689 8.82034 7.50013 8.88612 7.32715 8.96062C7.24169 8.99564 7.15216 9.03611 7.07227 9.07683C6.82258 9.19925 6.58159 9.34027 6.35156 9.49773C6.12217 9.65489 5.90327 9.82745 5.69727 10.0153C5.56011 10.1405 5.42948 10.2726 5.30567 10.4108C5.05621 10.6875 4.83346 10.988 4.64063 11.3083C4.54376 11.4642 4.4531 11.6295 4.37305 11.7985C4.33705 11.8833 4.29362 11.9691 4.25684 12.0563C4.18377 12.2293 4.11904 12.4073 4.0625 12.5895C4.03216 12.6799 4.00639 12.7719 3.98242 12.8639C3.88602 13.2403 3.8278 13.6259 3.80762 14.0143C3.80042 14.1131 3.79981 14.2126 3.79981 14.3122C3.79982 17.5116 6.396 20.1235 9.56836 20.1237H20.8291C20.9282 20.1237 21.0267 20.1208 21.125 20.1159C21.6051 20.0914 22.0808 20.0066 22.54 19.862C22.7202 19.8048 22.8972 19.739 23.0693 19.6647C23.1556 19.6305 23.2404 19.5902 23.3242 19.5495C23.5752 19.4268 23.8175 19.2854 24.0488 19.1276C24.2787 18.9711 24.4976 18.7985 24.7031 18.61C24.84 18.4851 24.9708 18.3525 25.0957 18.2145C25.3447 17.9375 25.5674 17.637 25.7607 17.3171C25.8568 17.162 25.9473 16.9958 26.0273 16.8268C26.0681 16.742 26.1068 16.6564 26.1436 16.57C26.2164 16.3961 26.2819 16.218 26.3379 16.0368C26.3675 15.9455 26.394 15.8543 26.418 15.7614C26.515 15.3852 26.5741 14.9994 26.5947 14.611L26.5928 14.613C26.5968 14.5119 26.6006 14.4134 26.6006 14.3132C26.6006 11.1137 24.0043 8.50176 20.8311 8.50163H9.56739C9.46892 8.50163 9.36915 8.50357 9.27149 8.50847ZM9.91016 12.3766C10.9592 12.3767 11.8095 13.2435 11.8096 14.3132C11.8096 15.3828 10.9593 16.2496 9.91016 16.2497C8.86099 16.2497 8.01074 15.3829 8.01074 14.3132C8.0108 13.2435 8.86102 12.3766 9.91016 12.3766ZM20.5977 12.3766C21.6468 12.3766 22.497 13.2435 22.4971 14.3132C22.4971 15.3829 21.6468 16.2497 20.5977 16.2497C19.5485 16.2497 18.6982 15.3829 18.6982 14.3132C18.6983 13.2435 19.5485 12.3766 20.5977 12.3766Z" fill="#6366F1"/>
<path d="M36.7891 19.5822L36.8601 6.61719L42.3973 6.64825C44.2002 6.65831 45.5992 7.08255 46.5944 7.92096C47.5897 8.75938 48.0837 9.91316 48.0766 11.3823C48.0713 12.345 47.8382 13.1733 47.3772 13.8674C46.9163 14.5614 46.2655 15.0919 45.4247 15.4587C44.5833 15.8244 43.5822 16.004 42.4213 15.9974L38.4762 15.9761L39.8173 14.6688L39.7898 19.5946L36.7891 19.5822ZM39.8146 15.0052L38.4887 13.5905L42.2669 13.6109C43.1923 13.6162 43.8848 13.4195 44.3446 13.0207C44.8043 12.6219 45.0357 12.0707 45.0386 11.3672C45.0433 10.6513 44.8179 10.0942 44.3623 9.69601C43.9067 9.29781 43.2165 9.09664 42.2917 9.0925L38.5109 9.0712L39.8519 7.65116L39.8146 15.0052ZM45.0306 19.6274L41.8151 14.9049L45.0191 14.9227L48.2736 19.6452L45.0306 19.6274Z" fill="#6366F1"/>
<path d="M50.7447 8.09434C50.2122 8.09079 49.7812 7.93399 49.4516 7.62395C49.2944 7.47639 49.1694 7.298 49.0843 7.09993C48.9992 6.90185 48.9559 6.68836 48.9571 6.47278C48.9582 6.25721 49.0038 6.04419 49.0911 5.84705C49.1783 5.64991 49.3053 5.47288 49.464 5.32703C49.7971 5.02113 50.23 4.86936 50.7625 4.87173C51.295 4.8741 51.7263 5.02202 52.0565 5.31549C52.2177 5.45387 52.3458 5.62666 52.4313 5.82112C52.5169 6.01558 52.5577 6.22676 52.5508 6.4391C52.556 6.66158 52.5144 6.88266 52.4286 7.088C52.3428 7.29334 52.2148 7.47836 52.0529 7.63105C51.7251 7.94346 51.2891 8.09789 50.7447 8.09434ZM49.2359 19.4396L49.2901 9.47533L52.1798 9.4913L52.1275 19.46L49.2359 19.4396Z" fill="#6366F1"/>
<path d="M53.8438 19.3154L53.8988 9.35113L56.6581 9.36621L56.643 12.1264L56.1291 11.2895C56.4804 10.6356 57.0208 10.103 57.6796 9.76116C58.3842 9.39853 59.1684 9.21819 59.9606 9.23664C60.6948 9.22781 61.4206 9.3936 62.0782 9.72034C62.7021 10.0436 63.2114 10.5508 63.5373 11.1732C63.8923 11.8241 64.0669 12.6554 64.0609 13.6672L64.0299 19.3713L61.141 19.3553L61.1703 14.0958C61.1744 13.2923 61.0016 12.6986 60.652 12.3146C60.3023 11.9306 59.8064 11.7365 59.1645 11.7324C58.7365 11.7233 58.3128 11.8196 57.9308 12.0128C57.5607 12.2076 57.2611 12.5137 57.0743 12.8879C56.8684 13.282 56.7637 13.7876 56.7602 14.4047L56.7335 19.3314L53.8438 19.3154Z" fill="#6366F1"/>
<path d="M69.999 18.9744C69.1253 18.982 68.2636 18.7705 67.4926 18.3593C66.7573 17.9623 66.1405 17.3774 65.7051 16.6641C65.259 15.9387 65.0383 15.0947 65.043 14.132C65.0484 13.1563 65.2785 12.3088 65.7335 11.5893C66.1747 10.8817 66.7983 10.306 67.5388 9.9225C68.3157 9.52518 69.1789 9.32638 70.0514 9.34383C70.8909 9.34797 71.6306 9.52193 72.2702 9.8657C72.9228 10.2215 73.4453 10.7757 73.7621 11.4482C74.1171 12.1582 74.2911 13.0697 74.284 14.1826C74.2775 15.2814 74.0934 16.1849 73.7319 16.8931C73.4064 17.5633 72.8787 18.1144 72.2231 18.4685C71.5817 18.8105 70.8404 18.9791 69.999 18.9744ZM70.4206 23.1999C69.5053 23.1987 68.5939 23.0794 67.7092 22.8449C66.8394 22.6118 66.1158 22.265 65.5383 21.8047L66.6983 19.7368C67.1723 20.1146 67.7147 20.3975 68.2958 20.5701C68.9144 20.7725 69.5603 20.879 70.2111 20.8861C71.2353 20.8914 71.9802 20.6672 72.4459 20.2134C72.9115 19.7595 73.1467 19.0815 73.1515 18.1792L73.1604 16.6792L73.3592 14.18L73.3361 11.6612L73.3476 9.51246L76.0883 9.52755L76.043 17.825C76.033 19.6776 75.5439 21.0385 74.576 21.9076C73.608 22.7768 72.2228 23.2076 70.4206 23.1999ZM70.5865 16.6118C71.0551 16.6228 71.5194 16.5205 71.94 16.3136C72.3251 16.1222 72.6477 15.8251 72.8701 15.4571C73.0912 15.0663 73.2085 14.6255 73.211 14.1765C73.2135 13.7275 73.101 13.2854 72.8843 12.8922C72.6635 12.5258 72.3443 12.2288 71.9631 12.0348C71.5417 11.8316 71.0803 11.7249 70.6125 11.7224C70.1447 11.72 69.6823 11.8218 69.2588 12.0206C68.9684 12.1782 68.7126 12.3926 68.5067 12.6509C68.3007 12.9093 68.1488 13.2064 68.0599 13.5246C67.971 13.8428 67.9469 14.1757 67.9891 14.5034C68.0313 14.8311 68.139 15.147 68.3056 15.4323C68.5293 15.8017 68.8513 16.1016 69.2357 16.2985C69.6541 16.5104 70.1176 16.6179 70.5865 16.6118Z" fill="#6366F1"/>
<path d="M77.957 19.5813L78.028 6.61719L87.8254 6.67044L87.8121 9.0783L81.0154 9.04102L80.9578 19.5973L77.957 19.5813ZM80.7607 14.8774L80.774 12.4695L86.9974 12.5033L86.9841 14.9111L80.7607 14.8774Z" fill="#6366F1"/>
<path d="M88.4375 19.3169L88.4916 9.35262L91.2519 9.36771L91.2359 12.1829L90.8516 11.3655C91.1313 10.6834 91.6383 10.119 92.2867 9.76798C92.9423 9.40765 93.7411 9.23014 94.683 9.23547L94.6688 11.9025C94.5455 11.8901 94.4345 11.8794 94.3351 11.8732C94.2357 11.867 94.1319 11.8625 94.0209 11.8617C93.2298 11.8569 92.5896 12.0788 92.1003 12.5273C91.611 12.9758 91.3631 13.6752 91.3566 14.6254L91.3308 19.3293L88.4375 19.3169Z" fill="#6366F1"/>
<path d="M100.037 19.4961C98.9722 19.4908 98.0317 19.2633 97.2158 18.8136C96.419 18.3857 95.7512 17.7522 95.2818 16.9791C94.804 16.1818 94.5618 15.2654 94.5834 14.3361C94.5887 13.3355 94.831 12.451 95.3102 11.6824C95.7863 10.9157 96.461 10.2922 97.2628 9.87802C98.0852 9.44431 99.0278 9.23012 100.09 9.23545C101.14 9.24137 102.077 9.46591 102.902 9.90908C103.7 10.327 104.369 10.9549 104.837 11.725C105.301 12.4941 105.531 13.3843 105.526 14.3955C105.541 15.3123 105.299 16.2149 104.827 17.0012C104.356 17.7876 103.674 18.4262 102.858 18.8447C102.029 19.2849 101.089 19.5021 100.037 19.4961ZM100.05 17.1256C100.504 17.135 100.952 17.0222 101.348 16.7989C101.736 16.5753 102.053 16.2463 102.261 15.8502C102.496 15.396 102.613 14.8905 102.602 14.3795C102.606 13.8003 102.497 13.3059 102.277 12.8965C102.07 12.5022 101.758 12.1734 101.375 11.9468C100.979 11.7258 100.533 11.6086 100.08 11.6061C99.6264 11.6036 99.1797 11.7159 98.7813 11.9326C98.3944 12.1562 98.0759 12.4812 97.8601 12.8725C97.6293 13.2778 97.511 13.771 97.5051 14.352C97.4889 14.864 97.6044 15.3716 97.8406 15.8262C98.0495 16.2239 98.3648 16.5557 98.7512 16.7847C99.1455 17.0129 99.594 17.1307 100.05 17.1256Z" fill="#6366F1"/>
<path d="M106.457 19.3163L106.511 9.35203L109.27 9.36712L109.255 12.1264L108.742 11.2904C109.092 10.6372 109.63 10.1046 110.288 9.76207C110.992 9.39873 111.776 9.21807 112.569 9.23665C113.303 9.2282 114.029 9.39429 114.686 9.72124C115.312 10.043 115.824 10.55 116.151 11.1732C116.506 11.8241 116.68 12.6554 116.674 13.6672L116.643 19.3722L113.753 19.3562L113.783 14.0959C113.787 13.2935 113.615 12.7001 113.264 12.3155C112.914 11.9309 112.418 11.7368 111.777 11.7333C111.349 11.7238 110.925 11.8201 110.543 12.0137C110.173 12.2083 109.873 12.5145 109.687 12.8888C109.481 13.2829 109.376 13.7885 109.373 14.4056L109.346 19.3323L106.457 19.3163Z" fill="#6366F1"/>
<path d="M117.145 11.9035L117.157 9.68472L124.065 9.72199L124.053 11.9408L117.145 11.9035ZM122.361 19.8265C121.188 19.8206 120.276 19.5161 119.625 18.9132C118.974 18.3103 118.652 17.4163 118.659 16.2311L118.707 7.48987L121.595 7.50584L121.548 16.2107C121.548 16.6302 121.657 16.9556 121.876 17.187C122.095 17.4183 122.397 17.5343 122.781 17.5349C123.201 17.5492 123.613 17.4209 123.95 17.171L124.717 19.2123C124.394 19.4322 124.033 19.5905 123.652 19.6791C123.23 19.7817 122.796 19.8312 122.361 19.8265Z" fill="#6366F1"/>
<path d="M127.562 19.5498L133.412 6.61682L136.376 6.6328L142.1 19.6288L138.952 19.612L134.273 8.1407L135.459 8.14692L130.636 19.5667L127.562 19.5498ZM130.467 16.787L131.272 14.514L137.939 14.5504L138.738 16.8331L130.467 16.787Z" fill="#6366F1"/>
<path d="M143.105 19.5818L143.176 6.61682L146.177 6.63368L146.106 19.5978L143.105 19.5818Z" fill="#6366F1"/>
</svg>
