<svg width="131" height="24" viewBox="0 0 131 24" fill="none" xmlns="http://www.w3.org/2000/svg">
<path d="M1.4611 10.6487L0.594005 10.8784C0.342392 10.9455 0.0830372 10.7945 0.0159404 10.5429C-0.0511563 10.2913 0.0998114 10.0319 0.351424 9.96485L1.21852 9.73518C1.47013 9.66808 1.72949 9.81905 1.79659 10.0707C1.86368 10.3223 1.714 10.5816 1.4611 10.6487Z" fill="white"/>
<path d="M19.8281 17.6651C19.8565 17.1606 19.8888 16.7297 19.9004 16.2987C19.9068 16.06 20.0204 15.9684 20.2423 15.909C24.0114 14.9116 27.7791 13.9064 31.5481 12.9051C32.1094 12.7568 32.4901 12.9619 32.6217 13.4651C32.752 13.9658 32.5068 14.3451 31.9146 14.5026C29.281 15.2045 26.6449 15.8974 24.0101 16.5929C22.7946 16.9142 21.5778 17.2355 20.361 17.5542C20.2036 17.5968 20.041 17.6213 19.8281 17.6651Z" fill="white"/>
<path d="M23.1939 19.1803C23.4339 20.0758 22.9539 20.9429 22.0842 21.1855C21.208 21.4294 20.3164 20.9068 20.0739 20.0074C19.8403 19.1416 20.328 18.299 21.2016 18.059C22.088 17.8152 22.959 18.3055 23.1939 19.1803Z" fill="white"/>
<path d="M29.1046 17.6264C28.8723 16.7606 29.36 15.918 30.2336 15.6729C31.111 15.4277 31.9717 15.9232 32.2168 16.8148C32.4555 17.6858 31.9368 18.5929 31.0775 18.8084C30.2026 19.0264 29.342 18.5103 29.1046 17.6264Z" fill="white"/>
<path d="M17.8328 22.0704C17.8302 22.0704 17.8263 22.0704 17.8238 22.0691C17.8057 22.0665 17.7889 22.0575 17.7734 22.0497C17.4689 21.8884 17.2238 21.6342 17.007 21.3659C16.4547 20.6833 15.9154 19.9904 15.3799 19.2936C15.1618 19.0097 14.9063 18.8626 14.5489 18.811C13.5567 18.6691 12.5644 18.5142 11.5812 18.3194C11.3593 18.2755 11.0973 18.0884 10.9902 17.8923C10.8354 17.6084 11.047 17.3672 11.296 17.1981C13.4573 15.7194 15.6199 14.2407 17.7825 12.7633C18.0405 12.5865 18.3115 12.4188 18.6315 12.6046C18.9502 12.7904 18.9322 13.1013 18.9115 13.4188C18.7489 16.0059 18.5928 18.593 18.4341 21.1801C18.4109 21.5581 18.2973 21.9297 17.896 22.0588C17.8728 22.0652 17.8534 22.0704 17.8328 22.0704Z" fill="white"/>
<path d="M13.7532 14.2344C13.179 14.6796 12.6423 15.1002 12.1016 15.5144C12.0152 15.5802 11.9132 15.6383 11.81 15.6667C10.6629 15.9763 9.51582 16.2822 8.36615 16.5802C7.98292 16.6796 7.65647 16.5183 7.68098 16.2086C7.69518 16.0292 7.85389 15.7505 8.00098 15.7092C9.88486 15.1854 11.779 14.6963 13.6707 14.1996C13.6784 14.197 13.6913 14.2086 13.7532 14.2344Z" fill="white"/>
<path d="M16.5876 22.2125C15.3412 22.5428 14.1696 22.8564 12.9967 23.1635C12.6883 23.2435 12.4573 23.108 12.3799 22.8164C12.3025 22.5209 12.4483 22.2925 12.7502 22.2112C13.7205 21.9493 14.6921 21.6951 15.6676 21.4512C15.7683 21.4267 15.9283 21.4577 15.9979 21.526C16.1954 21.7157 16.3592 21.9402 16.5876 22.2125Z" fill="white"/>
<path d="M14.5967 19.8047C14.0909 19.9389 13.5851 20.0718 13.0793 20.2072C12.3103 20.4137 11.5399 20.6189 10.7709 20.8292C10.4509 20.9169 10.1941 20.8356 10.1077 20.5092C10.0212 20.1853 10.1993 19.9801 10.5206 19.8989C11.1296 19.7427 11.7387 19.5814 12.3477 19.4279C12.4406 19.4047 12.5438 19.384 12.6354 19.3982C13.2883 19.4989 13.9399 19.6098 14.5916 19.7182C14.5941 19.7466 14.5954 19.775 14.5967 19.8047Z" fill="white"/>
<path d="M9.32812 8.56083L8.15651 8.87181C7.90489 8.9389 7.64554 8.78793 7.57844 8.53632C7.51134 8.28471 7.66231 8.02535 7.91392 7.95826L9.08554 7.64729C9.33715 7.58019 9.59651 7.73116 9.6636 7.98277C9.7307 8.23568 9.57973 8.49374 9.32812 8.56083Z" fill="white"/>
<path d="M6.015 9.44706L3.63307 10.0793C3.38145 10.1464 3.1221 9.99545 3.055 9.74384C2.98791 9.49223 3.13887 9.23287 3.39049 9.16577L5.77242 8.53352C6.02404 8.46642 6.28339 8.61739 6.35049 8.869C6.41758 9.1219 6.26791 9.37996 6.015 9.44706Z" fill="white"/>
<path d="M11.5463 11.721L9.16432 12.3532C8.9127 12.4203 8.65335 12.2694 8.58625 12.0178C8.51916 11.7662 8.67012 11.5068 8.92174 11.4397L11.3037 10.8074C11.5553 10.7403 11.8146 10.8913 11.8817 11.1429C11.9475 11.3945 11.7979 11.6539 11.5463 11.721Z" fill="white"/>
<path d="M9.13915 18.7117L5.23463 19.7466C4.98302 19.8136 4.72366 19.6627 4.65657 19.4111C4.58947 19.1595 4.74044 18.9001 4.99205 18.833L8.89657 17.7982C9.14818 17.7311 9.40753 17.882 9.47463 18.1336C9.54173 18.3866 9.39076 18.6459 9.13915 18.7117Z" fill="white"/>
<path d="M9.12288 21.2552L8.719 21.3623C8.46739 21.4294 8.20804 21.2784 8.14094 21.0268C8.07384 20.7752 8.22481 20.5158 8.47642 20.4487L8.88029 20.3416C9.13191 20.2745 9.39126 20.4255 9.45836 20.6771C9.52546 20.93 9.37449 21.1894 9.12288 21.2552Z" fill="white"/>
<path d="M11.0445 23.7L10.0471 23.9645C9.79552 24.0316 9.53616 23.8806 9.46907 23.629C9.40197 23.3774 9.55294 23.1181 9.80455 23.051L10.802 22.7864C11.0536 22.7194 11.3129 22.8703 11.38 23.1219C11.4471 23.3748 11.2975 23.6329 11.0445 23.7Z" fill="white"/>
<path d="M14.4217 22.7829L12.8978 23.1867C12.6359 23.2564 12.3675 23.1003 12.2978 22.8383C12.2282 22.5764 12.3843 22.308 12.6462 22.2383L14.1701 21.8345C14.432 21.7648 14.7004 21.9209 14.7701 22.1829C14.8398 22.4448 14.6837 22.7132 14.4217 22.7829Z" fill="white"/>
<path d="M11.5802 20.6021L10.6409 20.8511C10.3893 20.9182 10.1299 20.7673 10.0628 20.5156C9.99572 20.264 10.1467 20.0047 10.3983 19.9376L11.3377 19.6885C11.5893 19.6215 11.8486 19.7724 11.9157 20.024C11.9828 20.2756 11.8318 20.535 11.5802 20.6021Z" fill="white"/>
<path d="M10.5697 15.9852L8.18775 16.6174C7.93614 16.6845 7.67679 16.5335 7.60969 16.2819C7.54259 16.0303 7.69356 15.771 7.94517 15.7039L10.3271 15.0716C10.5787 15.0045 10.8381 15.1555 10.9052 15.4071C10.9723 15.66 10.8226 15.9181 10.5697 15.9852Z" fill="white"/>
<path fill-rule="evenodd" clip-rule="evenodd" d="M6.56905 3.46757C6.52726 3.46961 6.48547 3.47163 6.44369 3.47365L6.56905 3.46757ZM20.0337 13.9549C19.9975 13.9636 19.9593 13.9728 19.9185 13.983L20.0337 13.9549ZM20.0337 13.9549C19.9975 13.9636 19.9593 13.9728 19.9185 13.983L20.0337 13.9549Z" fill="white"/>
<path fill-rule="evenodd" clip-rule="evenodd" d="M15.3328 13.0918C15.3313 13.0895 15.3343 13.0941 15.3328 13.0918V13.0918Z" fill="white"/>
<path d="M14.9203 12.4558C14.6589 12.0524 14.4017 11.6555 14.143 11.2595C13.747 10.6515 13.3507 10.0437 12.9544 9.43581C11.7175 7.53864 10.4805 5.64134 9.25237 3.73896C9.05031 3.42577 8.83795 3.302 8.4467 3.34115C7.78156 3.40891 7.11241 3.44129 6.44369 3.47365C6.26493 3.4823 6.08603 3.49096 5.90743 3.50028C5.37718 3.52806 5.05671 3.27422 5.00523 2.80316C4.95633 2.35988 5.25362 1.98354 5.75685 1.94312C6.96277 1.84588 8.17128 1.77516 9.37849 1.7057C9.71183 1.68676 9.95379 1.85472 10.1327 2.13509C10.3471 2.47086 10.5651 2.80457 10.7832 3.1383C11.1055 3.63177 11.4279 4.12527 11.7389 4.62552C11.9049 4.89325 12.0658 4.95135 12.3772 4.86926C17.317 3.56743 22.2584 2.27301 27.1994 0.978691L30.7248 0.0550963C31.5112 -0.150756 32.026 0.230638 31.999 1.025C31.9505 2.43564 31.8988 3.84593 31.8471 5.25606L31.8467 5.26716C31.8011 6.51107 31.7553 7.75767 31.712 9.00145C31.694 9.52682 31.4443 9.87917 30.9462 10.061L29.7626 10.4926C28.1857 11.0678 26.6087 11.643 25.0285 12.2117C23.7518 12.6708 22.4725 13.1198 21.1928 13.5689L20.3104 13.8788C20.226 13.9085 20.1384 13.9297 20.0337 13.9549C19.9787 13.9681 19.9186 13.9826 19.8522 14C19.8562 13.9092 19.8592 13.8212 19.8621 13.735C19.8686 13.5444 19.8748 13.3629 19.8908 13.1829C19.9564 12.4277 19.7261 11.8506 18.9706 11.5184C18.9464 11.5078 18.9178 11.4935 18.8959 11.4767C18.0504 11.0764 16.6514 12.1423 16.6514 12.1423L15.3386 13.1008C15.1974 12.8833 15.0582 12.6686 14.9203 12.4558Z" fill="white"/>
<path d="M23.8468 9.45385C23.6674 9.50159 23.4842 9.3932 23.4365 9.21514L23.4081 9.10675L22.9758 9.22159C22.7965 9.26933 22.6132 9.16094 22.5655 8.98288C22.519 8.80611 22.6248 8.6203 22.8042 8.57256L23.83 8.3003C23.9797 8.2603 24.0674 8.10804 24.0287 7.96094C23.9887 7.80998 23.8352 7.72094 23.6868 7.76094L23.1461 7.90417C22.639 8.03836 22.119 7.73772 21.9848 7.23191C21.8558 6.74417 22.1319 6.23965 22.6055 6.08223L22.5771 5.97385C22.5306 5.79707 22.6365 5.61127 22.8158 5.56353C22.9952 5.51578 23.1784 5.62417 23.2261 5.80224L23.2545 5.91062L23.6868 5.79578C23.8661 5.74804 24.0494 5.85643 24.0971 6.03449C24.1448 6.21256 24.0377 6.39707 23.8584 6.44481L22.8326 6.71707C22.6829 6.75707 22.5952 6.90933 22.6339 7.05643C22.6739 7.2074 22.8274 7.29643 22.9758 7.25643L23.5165 7.1132C24.0223 6.97901 24.5435 7.27966 24.679 7.79062C24.8068 8.27449 24.5306 8.77772 24.0584 8.93643L24.0868 9.04481C24.1319 9.22159 24.0248 9.4074 23.8468 9.45385Z" fill="#204C43"/>
<path d="M20.2614 8.57766C20.2588 8.57895 20.2549 8.57896 20.2524 8.58025C20.0717 8.62283 19.8911 8.51186 19.8485 8.33122C19.3995 6.43315 20.5259 4.55315 22.4124 4.05379C23.5053 3.76347 24.6407 4.00476 25.5053 4.67057L25.4691 4.22283C25.4536 4.03831 25.593 3.87831 25.7762 3.86154C25.9607 3.84605 26.122 3.98412 26.1375 4.16863L26.2485 5.52734C26.2601 5.67573 26.1724 5.81508 26.0343 5.86799C25.8975 5.92218 25.7375 5.87573 25.6472 5.75702C24.9324 4.8125 23.7298 4.3996 22.5853 4.70283C21.0524 5.10928 20.1375 6.63573 20.5014 8.17767C20.5427 8.35315 20.4369 8.53121 20.2614 8.57766Z" fill="#204C43"/>
<path d="M24.2512 10.9673C23.1583 11.2576 22.0228 11.0163 21.1583 10.3505L21.1944 10.7982C21.2099 10.9827 21.0732 11.144 20.8873 11.1595C20.7028 11.175 20.5415 11.0369 20.5261 10.8524L20.4151 9.49371C20.4035 9.34532 20.4912 9.20596 20.6293 9.15306C20.7661 9.09887 20.9261 9.14532 21.0164 9.26403C21.7312 10.2085 22.9338 10.6214 24.0783 10.3182C25.6112 9.91177 26.5261 8.38532 26.1622 6.84338C26.1196 6.66274 26.2228 6.47306 26.4112 6.43951C26.5919 6.39693 26.7725 6.5079 26.8151 6.68854C27.2641 8.5879 26.1377 10.4666 24.2512 10.9673Z" fill="#204C43"/>
<path d="M48.6022 7.65132L45.6771 8.6856C45.2838 7.45724 44.4506 6.84367 43.1773 6.84367C41.8185 6.84367 41.1391 7.31018 41.1391 8.24199C41.1391 8.61328 41.2656 8.9279 41.5198 9.18586C41.774 9.44383 42.3485 9.66805 43.2434 9.8573C44.7401 10.1767 45.8344 10.4998 46.5298 10.8253C47.224 11.1508 47.8088 11.6763 48.2853 12.3996C48.7618 13.1241 49 13.9329 49 14.8274C49 16.2293 48.4893 17.442 47.4691 18.4655C46.4488 19.4889 44.935 20 42.9299 20C41.4252 20 40.1451 19.6384 39.0895 18.9139C38.0339 18.1894 37.3363 17.1153 37 15.6905L40.1827 14.9287C40.5406 16.3764 41.5346 17.1009 43.1659 17.1009C43.9524 17.1009 44.5395 16.9394 44.9259 16.6175C45.3123 16.2956 45.505 15.9111 45.505 15.4627C45.505 15.0082 45.3294 14.655 44.9783 14.4055C44.6272 14.156 43.9513 13.9209 42.9493 13.7003C41.0809 13.2904 39.7495 12.7311 38.955 12.0223C38.1604 11.3135 37.7626 10.2768 37.7626 8.91223C37.7626 7.53319 38.2368 6.36872 39.1864 5.42123C40.1348 4.47374 41.4229 4 43.0484 4C45.9279 4.00121 47.7791 5.21872 48.6022 7.65132Z" fill="white"/>
<path d="M61 15.4373C60.8681 16.7989 60.3196 17.8994 59.3544 18.7399C58.3893 19.5804 57.1431 20 55.6159 20C53.9567 20 52.6058 19.4619 51.5642 18.3856C50.5214 17.3093 50 15.8702 50 14.0683C50 12.2664 50.5325 10.8044 51.5987 9.68215C52.6649 8.55991 54.0886 8 55.8723 8C57.3058 8 58.4941 8.42205 59.4358 9.26615C60.3775 10.1102 60.8989 11.1672 61 12.437L57.7668 12.6196C57.6583 11.2361 57.0457 10.5432 55.9302 10.5432C54.5583 10.5432 53.8717 11.6461 53.8717 13.8519C53.8717 15.32 54.064 16.2511 54.4473 16.6466C54.8307 17.042 55.2978 17.2404 55.8488 17.2404C56.9188 17.2404 57.5585 16.5752 57.7668 15.2438L61 15.4373Z" fill="white"/>
<path d="M72 19.7606H68.6255C68.5165 19.3047 68.4621 18.7037 68.4621 17.9577C67.8716 18.7787 67.2824 19.3253 66.6956 19.5949C66.1088 19.8646 65.4428 20 64.6964 20C63.5922 20 62.7009 19.7074 62.02 19.1221C61.3404 18.5369 61 17.7497 61 16.7606C61 16.0387 61.1981 15.3724 61.5942 14.7642C61.9903 14.156 62.6278 13.6784 63.5068 13.3325C64.3844 12.9867 65.9863 12.7304 68.3098 12.5623V11.9008C68.3098 10.7836 67.7391 10.2237 66.599 10.2237C65.3809 10.2237 64.7013 10.7823 64.5614 11.9008L61.3503 11.6046C61.5608 10.2962 62.1946 9.3688 63.2542 8.82104C64.3126 8.27328 65.5122 8 66.8516 8C67.6537 8 68.4088 8.09069 69.1169 8.27327C69.825 8.45586 70.3783 8.72914 70.7757 9.09432C71.1731 9.45949 71.4405 9.84522 71.5816 10.2527C71.7215 10.659 71.792 11.3688 71.792 12.3797V17.6046C71.7896 18.6082 71.8601 19.3265 72 19.7606ZM68.3098 14.2394C65.8811 14.4752 64.6667 15.1935 64.6667 16.3954C64.6667 16.7981 64.7954 17.1463 65.0504 17.4389C65.3067 17.7316 65.6718 17.8779 66.1447 17.8779C66.7575 17.8779 67.2712 17.6288 67.6871 17.1306C68.1018 16.6324 68.3098 16.0181 68.3098 15.2878V14.2394Z" fill="white"/>
<path d="M73 20V4H76V19.9988H73V20Z" fill="white"/>
<path d="M88 14.5695H80.5901C80.5829 14.7751 80.5793 14.9541 80.5793 15.1052C80.5793 15.9262 80.798 16.5466 81.2342 16.9649C81.6716 17.3833 82.1937 17.5925 82.8015 17.5925C83.9338 17.5925 84.6141 16.9879 84.8425 15.7787L87.9202 16.0073C87.0611 18.6687 85.3174 20 82.6879 20C81.5411 20 80.566 19.7703 79.7636 19.3096C78.9624 18.8501 78.3014 18.179 77.7806 17.2963C77.2598 16.4148 77 15.3567 77 14.1246C77 12.2914 77.522 10.8126 78.5673 9.68803C79.6125 8.56228 80.9551 8 82.5973 8C84.0788 8 85.35 8.52237 86.4098 9.56832C87.4695 10.6131 88 12.2805 88 14.5695ZM80.5793 12.5961H84.6721C84.5657 11.0145 83.9156 10.2237 82.7229 10.2237C81.4445 10.2237 80.7303 11.0145 80.5793 12.5961Z" fill="white"/>
<path d="M102.999 10.0166L99.264 10.2551C99.212 8.06405 98.3742 6.96852 96.7506 6.96852C94.8881 6.96852 93.9575 8.65473 93.9575 12.0284C93.9575 13.9771 94.21 15.2973 94.7174 15.9915C95.2235 16.6856 95.9314 17.0315 96.8397 17.0315C98.3148 17.0315 99.2157 16.0533 99.5436 14.0983L103 14.3141C102.777 16.172 102.099 17.583 100.966 18.5498C99.832 19.5166 98.4435 20 96.8013 20C94.7867 20 93.1495 19.2907 91.8897 17.8733C90.6299 16.4559 90 14.4959 90 11.9943C90 9.65181 90.6088 7.73464 91.829 6.24028C93.048 4.74718 94.7124 4 96.8236 4C100.478 4.00126 102.537 6.00678 102.999 10.0166Z" fill="white"/>
<path d="M115 19.7595H111.625C111.516 19.3037 111.462 18.7024 111.462 17.958C110.871 18.7796 110.282 19.3253 109.695 19.5949C109.108 19.8645 108.442 20 107.695 20C106.591 20 105.699 19.7076 105.02 19.1214C104.34 18.5366 104 17.7491 104 16.7604C104 16.0388 104.198 15.3729 104.595 14.764C104.992 14.1563 105.628 13.6791 106.507 13.3322C107.385 12.9866 108.986 12.7296 111.31 12.5625V11.9004C111.31 10.7826 110.74 10.2243 109.599 10.2243C108.381 10.2243 107.702 10.7826 107.562 11.9004L104.35 11.6042C104.56 10.2964 105.195 9.3685 106.253 8.8216C107.312 8.27471 108.51 8 109.849 8C110.652 8 111.406 8.09115 112.115 8.27345C112.823 8.45574 113.376 8.72919 113.773 9.09505C114.169 9.45965 114.439 9.84577 114.579 10.2521C114.719 10.6585 114.789 11.3687 114.789 12.3789V17.6023C114.79 18.6074 114.86 19.3265 115 19.7595ZM111.31 14.2399C108.881 14.4754 107.667 15.1944 107.667 16.3958C107.667 16.7984 107.795 17.1465 108.05 17.439C108.307 17.7314 108.671 17.8783 109.144 17.8783C109.757 17.8783 110.271 17.6289 110.687 17.1313C111.101 16.6338 111.309 16.0198 111.309 15.2894V14.2399H111.31Z" fill="white"/>
<path d="M119.182 20H116V8.25556H119.006V10.4421C119.468 8.81445 120.268 8 121.406 8C121.567 8 121.765 8.01162 122 8.03485V11.454C121.332 11.454 120.813 11.5624 120.442 11.7793C120.072 11.9961 119.769 12.3859 119.534 12.9474C119.299 13.5102 119.182 14.2678 119.182 15.2204V20Z" fill="white"/>
<path d="M128.318 10.5187V15.5797C128.318 16.2125 128.411 16.6348 128.595 16.8479C128.781 17.061 129.216 17.1676 129.902 17.1676C130.218 17.1676 130.584 17.1518 131 17.1202V19.7395C129.993 19.9132 129.27 20 128.828 20C127.389 20 126.367 19.7172 125.763 19.1528C125.16 18.5884 124.857 17.5662 124.857 16.0888V10.5187H123V7.76912H125.056L125.334 4.2368L128.318 4V7.76912H130.838V10.5187H128.318Z" fill="white"/>
</svg>
