<svg width="219" height="24" viewBox="0 0 219 24" fill="none" xmlns="http://www.w3.org/2000/svg">
<path d="M20.4841 3.51418C18.3127 1.34279 15.3127 0 12 0C8.6856 0 5.68558 1.34279 3.51418 3.51418C1.34279 5.68558 0 8.6856 0 12C0 15.3127 1.34279 18.3144 3.51418 20.4841C5.68558 22.6555 8.6856 24 12 24C15.3127 24 18.3127 22.6555 20.4841 20.4841C22.6555 18.3144 23.9983 15.3127 23.9983 12C23.9983 8.6856 22.6555 5.68558 20.4841 3.51418Z" fill="url(#paint0_linear_289_6976)"/>
<path d="M6.96646 11.8341L8.07048 10.73L9.17748 11.837L8.07341 12.9411C7.69369 13.3208 7.50228 13.8243 7.50228 14.3277C7.50228 14.8297 7.69369 15.3331 8.07341 15.7129C8.45471 16.0941 8.95668 16.284 9.46008 16.284C9.96356 16.284 10.4655 16.0941 10.8453 15.7129L11.9508 14.6088L13.0578 15.7158L11.9523 16.8199C11.2663 17.5059 10.3625 17.8488 9.46008 17.8488C8.55626 17.8488 7.65243 17.5059 6.96646 16.8199C6.28049 16.1339 5.9375 15.2301 5.9375 14.3277C5.9375 13.4238 6.28049 12.52 6.96646 11.8341Z" fill="white"/>
<path fill-rule="evenodd" clip-rule="evenodd" d="M7.51953 11.2821L8.36306 10.4386C8.66778 10.1354 9.16533 10.1354 9.47006 10.4386C9.77471 10.7433 9.77471 11.2423 9.47006 11.5456L8.62653 12.3891L7.51953 11.2821Z" fill="white"/>
<path fill-rule="evenodd" clip-rule="evenodd" d="M11.4062 15.1611L12.2482 14.3191C12.5529 14.0144 13.0505 14.0144 13.3552 14.3191C13.6599 14.6223 13.6599 15.1214 13.3552 15.4261L12.5117 16.2681L11.4062 15.1611Z" fill="white"/>
<path d="M11.8267 6.97489L10.7227 8.0789L11.8282 9.1859L12.9337 8.0804C13.3135 7.7006 13.8169 7.50927 14.3188 7.50927C14.8223 7.50927 15.3243 7.7006 15.7055 8.0804C16.0868 8.4617 16.2767 8.9636 16.2767 9.46707C16.2767 9.97055 16.0868 10.4724 15.7055 10.8537L14.6015 11.9577L15.7085 13.0647L16.8125 11.9607C17.4985 11.2747 17.8415 10.3695 17.8415 9.46707C17.8415 8.56325 17.4985 7.66085 16.8125 6.97489C16.1266 6.28745 15.2227 5.94446 14.3188 5.94446C13.4165 5.94446 12.5127 6.28745 11.8267 6.97489Z" fill="white"/>
<path fill-rule="evenodd" clip-rule="evenodd" d="M11.2858 7.52686L10.4423 8.36888C10.139 8.67361 10.139 9.17116 10.4423 9.47588C10.747 9.78061 11.2445 9.78061 11.5493 9.47588L12.3913 8.63386L11.2858 7.52686Z" fill="white"/>
<path fill-rule="evenodd" clip-rule="evenodd" d="M15.1541 11.4056L14.3106 12.2477C14.0058 12.5524 14.0058 13.0514 14.3106 13.3547C14.6153 13.6594 15.1128 13.6594 15.4176 13.3547L16.261 12.5126L15.1541 11.4056Z" fill="white"/>
<path fill-rule="evenodd" clip-rule="evenodd" d="M8.97854 13.7038L13.6994 8.98291C14.0041 8.67969 14.5016 8.67969 14.8063 8.98291C15.1111 9.28764 15.1111 9.78669 14.8063 10.0899L10.0855 14.8108C9.78082 15.1155 9.28327 15.1155 8.97854 14.8108C8.67382 14.5076 8.67382 14.0085 8.97854 13.7038Z" fill="white"/>
<path d="M33.8186 2.94055L40.055 15.5902H40.2789L40.1139 8.76434V2.94055H44.4877V20.353H38.4517L31.9913 7.36144H31.7909L31.9442 14.3405V20.353H27.5586V2.94055H33.8186Z" fill="#053321"/>
<path d="M55.2078 20.7776C52.5023 20.7776 50.4952 20.2088 49.1836 19.0682C47.8692 17.9306 47.2148 16.2831 47.2148 14.1285V13.2916C47.2148 11.1636 47.8396 9.51905 49.0893 8.36373C50.3449 7.20841 52.1456 6.63074 54.4887 6.63074C56.092 6.63074 57.4242 6.88715 58.4852 7.39702C59.552 7.90102 60.3537 8.6113 60.8902 9.53085C61.4236 10.4504 61.6919 11.5439 61.6919 12.8082V13.1029C61.6919 13.433 61.6742 13.772 61.6446 14.1168C61.6122 14.4557 61.568 14.7593 61.515 15.0246H57.5067C57.545 14.5942 57.5716 14.161 57.5892 13.7277C57.6128 13.2975 57.6246 12.9143 57.6246 12.5842C57.6246 11.9947 57.5096 11.4967 57.2827 11.087C57.0528 10.6714 56.7079 10.3561 56.2453 10.1439C55.7795 9.93168 55.196 9.82557 54.4887 9.82557C53.4424 9.82557 52.6644 10.0731 52.1545 10.5683C51.6505 11.0634 51.3999 11.7531 51.3999 12.6313V13.4684L51.4236 13.8692V14.6827C51.4236 15.0305 51.4825 15.3635 51.6003 15.6848C51.7241 16.0089 51.9481 16.3037 52.2723 16.5689C52.5936 16.8282 53.0534 17.0346 53.6517 17.182C54.2559 17.3322 55.034 17.4059 55.9859 17.4059C56.9585 17.4059 57.9016 17.3204 58.8153 17.1466C59.726 16.9668 60.6101 16.7162 61.4678 16.392L61.0669 19.5987C60.342 19.9759 59.4902 20.2677 58.5087 20.4711C57.5243 20.6744 56.4251 20.7776 55.2078 20.7776ZM49.384 15.0246V12.3955H60.6661V15.0246H49.384Z" fill="#053321"/>
<path d="M62.4297 20.3533L67.2042 12.9143V14.0344L62.5711 7.11414H67.4872L70.2693 11.6057H70.5523L73.3345 7.11414H78.2269L73.6056 14.0344V12.9143L78.3684 20.3533H73.4406L70.5523 15.614H70.2693L67.3575 20.3533H62.4297Z" fill="#053321"/>
<path d="M86.3109 20.6947C84.9257 20.6947 83.8351 20.4943 83.0335 20.0934C82.2377 19.6926 81.6689 19.0972 81.324 18.3014C80.9852 17.5087 80.8172 16.5301 80.8172 15.3661V8.95275H85.2027V14.7648C85.2027 15.528 85.3736 16.091 85.7214 16.4506C86.0751 16.8131 86.75 16.9929 87.7492 16.9929C88.3061 16.9929 88.8602 16.9309 89.4114 16.8042C89.9596 16.6805 90.4547 16.5213 90.8968 16.3328L90.4841 19.9047C89.9419 20.1494 89.3171 20.3409 88.6098 20.4824C87.9024 20.6239 87.1361 20.6947 86.3109 20.6947ZM78.7305 10.5914V7.16082H90.8025L90.3898 10.5914H78.7305ZM80.8997 7.49091L80.8761 3.89525L85.2381 3.52979L85.0966 7.49091H80.8997Z" fill="#053321"/>
<path d="M96.3533 20.6158V17.2819H102.109C102.858 17.2819 103.405 17.1379 103.744 16.8503C104.078 16.5505 104.251 16.1187 104.251 15.5551V15.3871C104.251 14.8116 104.078 14.3798 103.744 14.0919C103.405 13.7921 102.858 13.6362 102.109 13.6362H96.307V10.6143H101.925C102.662 10.6143 103.18 10.4703 103.491 10.1824C103.796 9.89455 103.952 9.49897 103.952 8.98327V8.83933C103.952 8.31172 103.796 7.91588 103.491 7.64016C103.18 7.37014 102.662 7.23242 101.925 7.23242H96.307V3.99426H102.294C104.349 3.99426 105.822 4.33004 106.715 5.00159C107.618 5.66123 108.073 6.6507 108.073 7.97594V8.1437C108.073 9.12099 107.797 9.88264 107.244 10.4224C106.703 10.9679 105.874 11.2617 104.757 11.3096V11.4776C106.001 11.6216 106.928 12.0412 107.544 12.725C108.154 13.3965 108.465 14.3497 108.465 15.5789V15.8668C108.465 17.4199 107.987 18.6012 107.037 19.4167C106.099 20.2202 104.619 20.6158 102.593 20.6158H96.3533ZM93.3828 20.6158V3.99426H97.3663V20.6158H93.3828Z" fill="#053321"/>
<path d="M119.091 20.6159L119.229 17.2819L119.16 16.8742V13.4683L119.137 12.8927C119.137 12.1912 118.889 11.6636 118.4 11.3097C117.922 10.962 117.139 10.782 116.051 10.782C115.067 10.782 114.146 10.9019 113.288 11.1416C112.425 11.3697 111.607 11.6335 110.824 11.9333L111.216 8.76713C111.659 8.56338 112.16 8.37155 112.712 8.19162C113.277 7.99979 113.898 7.85584 114.578 7.7598C115.251 7.65184 115.982 7.59204 116.765 7.59204C117.991 7.59204 119.01 7.73598 119.827 8.0236C120.656 8.31148 121.307 8.71923 121.785 9.24684C122.257 9.76254 122.596 10.3621 122.798 11.0458C122.993 11.7353 123.097 12.479 123.097 13.2764V20.6159H119.091ZM114.485 20.9755C113.069 20.9755 111.999 20.6459 111.262 19.9922C110.537 19.3385 110.18 18.4272 110.18 17.2578V17.0181C110.18 15.675 110.617 14.7096 111.492 14.116C112.367 13.5102 113.691 13.1206 115.476 12.9406L119.459 12.5088L119.597 14.9074L115.936 15.3152C115.257 15.399 114.773 15.543 114.485 15.747C114.209 15.9388 114.071 16.2264 114.071 16.6104V16.6823C114.071 17.066 114.209 17.3717 114.485 17.5936C114.773 17.8036 115.228 17.9056 115.844 17.9056C116.454 17.9056 116.984 17.8214 117.433 17.6418C117.893 17.4678 118.267 17.2459 118.561 16.97C118.849 16.6823 119.068 16.3704 119.206 16.0346L119.851 17.7376H119.091C118.935 18.3493 118.688 18.901 118.354 19.3926C118.014 19.8723 117.53 20.256 116.903 20.5439C116.287 20.8318 115.481 20.9755 114.485 20.9755Z" fill="#053321"/>
<path d="M131.965 21.0235C129.691 21.0235 127.993 20.4659 126.876 19.3446C125.771 18.2294 125.219 16.6525 125.219 14.6197V13.8521C125.219 11.8553 125.771 10.3025 126.876 9.19913C127.993 8.09575 129.686 7.54407 131.942 7.54407C132.541 7.54407 133.099 7.59222 133.623 7.68801C134.141 7.77189 134.625 7.89201 135.074 8.04786C135.517 8.1918 135.908 8.35361 136.248 8.52758L136.593 11.9335C136.087 11.6635 135.511 11.4297 134.866 11.2379C134.233 11.046 133.519 10.95 132.725 10.95C131.528 10.95 130.658 11.2078 130.123 11.7176C129.582 12.2152 129.317 12.9349 129.317 13.8762V14.5237C129.317 15.5012 129.599 16.2507 130.169 16.7783C130.751 17.3059 131.631 17.5697 132.817 17.5697C133.6 17.5697 134.296 17.4858 134.912 17.3059C135.54 17.1141 136.144 16.8743 136.731 16.5865L136.386 20.0162C135.862 20.2922 135.217 20.52 134.452 20.7118C133.698 20.9158 132.869 21.0235 131.965 21.0235Z" fill="#053321"/>
<path d="M147.883 20.6162L143.462 15.1715H142.472V12.7732H143.462L147.768 7.97604H152.672L146.916 14.2121V13.4686L152.88 20.6162H147.883ZM138.949 20.6162V3.49109H142.979V20.6162H138.949Z" fill="#053321"/>
<path d="M158.668 20.6158H154.523V3.99426H158.668V20.6158ZM156.757 17.09H166.888V20.6158H156.757V17.09Z" fill="#053321"/>
<path d="M169.099 20.6162V7.97609H173.151V20.6162H169.099ZM171.125 6.65706C170.371 6.65706 169.818 6.48904 169.467 6.15327C169.11 5.80558 168.938 5.32587 168.938 4.71412V4.64215C168.938 4.05447 169.11 3.58097 169.467 3.22707C169.818 2.87939 170.371 2.69946 171.125 2.69946C171.873 2.69946 172.426 2.87939 172.783 3.22707C173.134 3.58097 173.312 4.05447 173.312 4.64215V4.71412C173.312 5.32587 173.134 5.80558 172.783 6.15327C172.426 6.48904 171.873 6.65706 171.125 6.65706Z" fill="#053321"/>
<path d="M185.254 20.6162V13.7565C185.254 13.2467 185.185 12.7911 185.046 12.3893C184.908 11.9937 184.661 11.6818 184.309 11.4539C183.97 11.2142 183.492 11.0941 182.882 11.0941C182.358 11.0941 181.903 11.1842 181.523 11.3579C181.155 11.5199 180.844 11.7537 180.602 12.0535C180.355 12.3414 180.165 12.6653 180.027 13.013L179.497 10.9742H180.119C180.257 10.3506 180.499 9.78696 180.856 9.27126C181.224 8.76151 181.713 8.35998 182.329 8.0721C182.957 7.77231 183.74 7.61646 184.678 7.61646C185.737 7.61646 186.6 7.8202 187.28 8.21604C187.953 8.61783 188.454 9.21741 188.776 10.0148C189.11 10.8002 189.283 11.7656 189.283 12.9169V20.6162H185.254ZM176.066 20.6162V7.97605H180.096L179.958 11.5738L180.119 11.9815V20.6162H176.066Z" fill="#053321"/>
<path d="M201.008 20.6162L196.587 15.1715H195.597V12.7732H196.587L200.893 7.97604H205.797L200.041 14.2121V13.4686L206.005 20.6162H201.008ZM192.074 20.6162V3.49109H196.104V20.6162H192.074Z" fill="#053321"/>
<path d="M212.561 21.0235C211.392 21.0235 210.339 20.9158 209.406 20.7118C208.485 20.52 207.691 20.2922 207.035 20.0162L206.643 16.6105C207.409 16.9341 208.267 17.2101 209.222 17.4499C210.172 17.6898 211.191 17.8097 212.284 17.8097C213.16 17.8097 213.781 17.7377 214.15 17.5938C214.529 17.4379 214.725 17.162 214.725 16.7783V16.7542C214.725 16.4845 214.633 16.2748 214.449 16.1308C214.265 15.9869 213.948 15.867 213.505 15.771C213.056 15.6749 212.446 15.5732 211.663 15.4593C210.385 15.2672 209.372 15.0155 208.624 14.6917C207.887 14.3738 207.357 13.9601 207.035 13.4444C206.724 12.9167 206.574 12.2812 206.574 11.5257V11.4297C206.574 10.1045 207.058 9.12716 208.025 8.5035C208.992 7.86793 210.425 7.54407 212.331 7.54407C213.447 7.54407 214.46 7.65202 215.37 7.85603C216.274 8.04786 217.039 8.28163 217.673 8.55139L218.041 11.6935C217.304 11.3937 216.481 11.1418 215.577 10.95C214.685 10.7581 213.747 10.6621 212.768 10.6621C212.152 10.6621 211.674 10.704 211.341 10.7822C211.018 10.848 210.788 10.95 210.65 11.0939C210.523 11.2257 210.465 11.3818 210.465 11.5736V11.5975C210.465 11.8255 210.535 12.0052 210.673 12.1491C210.811 12.2931 211.087 12.4251 211.502 12.5331C211.916 12.6289 212.526 12.7368 213.344 12.8448C214.616 13.0366 215.646 13.2706 216.429 13.5404C217.212 13.8161 217.776 14.2 218.133 14.6917C218.501 15.1893 218.686 15.867 218.686 16.7304V16.7783C218.686 18.2534 218.179 19.3327 217.166 20.0162C216.164 20.6877 214.633 21.0235 212.561 21.0235Z" fill="#053321"/>
<defs>
<linearGradient id="paint0_linear_289_6976" x1="-9.00216e-10" y1="12" x2="30.6108" y2="12.1208" gradientUnits="userSpaceOnUse">
<stop stop-color="#FF4405"/>
<stop offset="1" stop-color="#FFC400"/>
</linearGradient>
</defs>
</svg>
