<svg width="147" height="24" viewBox="0 0 147 24" fill="none" xmlns="http://www.w3.org/2000/svg">
<path d="M7.91797 0.0357905C8.17174 -0.0331254 8.44186 -0.00181949 8.67383 0.123681C8.90588 0.249352 9.08282 0.460424 9.16895 0.713525C9.255 0.966571 9.24449 1.24378 9.13867 1.48892C9.03283 1.7339 8.83966 1.92864 8.59863 2.03481C8.35741 2.14101 8.08552 2.15077 7.83789 2.06118L6.7666 5.05044C7.67479 4.76901 8.61916 4.62648 9.56836 4.62759H20.8311C26.1081 4.62772 30.4004 8.97285 30.4004 14.3141C30.4004 19.6554 26.1081 24.0005 20.8311 24.0006H2.12865e-06V14.3131C-0.00157086 11.9253 0.868704 9.62248 2.44141 7.85317L5.28321 4.56606L7.56836 1.9147C7.35692 1.75566 7.21185 1.52071 7.16309 1.25747C7.11448 0.994379 7.16576 0.722316 7.30567 0.495751C7.44563 0.269149 7.66418 0.104763 7.91797 0.0357905ZM9.27149 8.50942C9.07578 8.51976 8.88276 8.53964 8.69238 8.56899C8.40947 8.61312 8.12986 8.67804 7.85645 8.76431C7.67689 8.82032 7.50013 8.8861 7.32715 8.9606C7.2417 8.99561 7.15216 9.0361 7.07227 9.07681C6.82261 9.19922 6.58157 9.34027 6.35156 9.4977C6.12211 9.65491 5.90332 9.82835 5.69727 10.0163C5.56019 10.1414 5.42942 10.2726 5.30567 10.4108C5.0561 10.6875 4.83353 10.9888 4.64063 11.3092C4.54383 11.465 4.45305 11.6296 4.37305 11.7985C4.33703 11.8834 4.29366 11.969 4.25684 12.0563C4.18372 12.2293 4.11907 12.4072 4.0625 12.5895C4.03209 12.6801 4.00643 12.7727 3.98242 12.8649C3.88611 13.241 3.8278 13.6261 3.80762 14.0143C3.80042 14.113 3.79981 14.2127 3.79981 14.3122C3.79981 17.5116 6.39599 20.1235 9.56836 20.1237H20.8291C20.9282 20.1237 21.0267 20.1217 21.125 20.1168C21.6051 20.0924 22.0808 20.0066 22.54 19.862C22.7201 19.8048 22.8972 19.7399 23.0693 19.6657C23.1557 19.6314 23.2403 19.5902 23.3242 19.5495C23.5751 19.4268 23.8175 19.2862 24.0488 19.1286C24.2787 18.972 24.4976 18.7985 24.7031 18.61C24.84 18.4851 24.9708 18.3524 25.0957 18.2145C25.3447 17.9375 25.5674 17.637 25.7607 17.317C25.8568 17.162 25.9473 16.9958 26.0273 16.8268C26.0681 16.7421 26.1068 16.6563 26.1436 16.57C26.2164 16.3962 26.2819 16.2179 26.3379 16.0368C26.3675 15.9455 26.394 15.8543 26.418 15.7614C26.515 15.3851 26.5741 14.9995 26.5947 14.611L26.5928 14.6139C26.5968 14.5127 26.6006 14.4135 26.6006 14.3131C26.6005 11.1137 24.0043 8.50174 20.8311 8.50161H9.56738C9.46892 8.50161 9.36915 8.50453 9.27149 8.50942ZM9.91016 12.3766C10.9591 12.3767 11.8093 13.2437 11.8096 14.3131C11.8096 15.3828 10.9593 16.2506 9.91016 16.2506C8.86099 16.2506 8.01074 15.3828 8.01074 14.3131C8.01098 13.2436 8.86114 12.3766 9.91016 12.3766ZM20.5977 12.3766C21.6467 12.3766 22.4968 13.2436 22.4971 14.3131C22.4971 15.3828 21.6468 16.2506 20.5977 16.2506C19.5485 16.2506 18.6982 15.3828 18.6982 14.3131C18.6985 13.2436 19.5486 12.3766 20.5977 12.3766Z" fill="#6366F1"/>
<path d="M36.7891 19.5831L36.8601 6.61816L42.3973 6.64923C44.2002 6.65929 45.5992 7.08352 46.5944 7.92194C47.5897 8.76036 48.0837 9.91414 48.0766 11.3833C48.0713 12.346 47.8382 13.1743 47.3772 13.8684C46.9163 14.5624 46.2655 15.0929 45.4247 15.4597C44.5833 15.8254 43.5822 16.0049 42.4213 15.9984L38.4762 15.9771L39.8173 14.6698L39.7898 19.5956L36.7891 19.5831ZM39.8146 15.0062L38.4887 13.5915L42.2669 13.6119C43.1923 13.6172 43.8848 13.4205 44.3446 13.0217C44.8043 12.6229 45.0357 12.0717 45.0386 11.3682C45.0433 10.6523 44.8179 10.0952 44.3623 9.69699C43.9067 9.29879 43.2165 9.09761 42.2917 9.09347L38.5109 9.07217L39.8519 7.65213L39.8146 15.0062ZM45.0306 19.6284L41.8151 14.9059L45.0191 14.9236L48.2736 19.6462L45.0306 19.6284Z" fill="#6366F1"/>
<path d="M50.7447 8.09531C50.2122 8.09176 49.7812 7.93497 49.4516 7.62493C49.2944 7.47737 49.1694 7.29898 49.0843 7.10091C48.9992 6.90283 48.9559 6.68933 48.9571 6.47376C48.9582 6.25818 49.0038 6.04517 49.0911 5.84802C49.1783 5.65088 49.3053 5.47386 49.464 5.32801C49.7971 5.02211 50.23 4.87034 50.7625 4.87271C51.295 4.87507 51.7263 5.023 52.0565 5.31647C52.2177 5.45485 52.3458 5.62764 52.4313 5.8221C52.5169 6.01656 52.5577 6.22774 52.5508 6.44008C52.556 6.66255 52.5144 6.88363 52.4286 7.08897C52.3428 7.29432 52.2148 7.47933 52.0529 7.63203C51.7251 7.94443 51.2891 8.09886 50.7447 8.09531ZM49.2359 19.4406L49.2901 9.4763L52.1798 9.49228L52.1275 19.461L49.2359 19.4406Z" fill="#6366F1"/>
<path d="M53.8438 19.3164L53.8988 9.3521L56.6581 9.36719L56.643 12.1274L56.1291 11.2905C56.4804 10.6366 57.0208 10.104 57.6796 9.76214C58.3842 9.3995 59.1684 9.21917 59.9606 9.23761C60.6948 9.22878 61.4206 9.39457 62.0782 9.72131C62.7021 10.0445 63.2114 10.5517 63.5373 11.1742C63.8923 11.825 64.0669 12.6564 64.0609 13.6681L64.0299 19.3723L61.141 19.3563L61.1703 14.0968C61.1744 13.2933 61.0016 12.6996 60.652 12.3156C60.3023 11.9315 59.8064 11.7375 59.1645 11.7333C58.7365 11.7243 58.3128 11.8206 57.9308 12.0138C57.5607 12.2086 57.2611 12.5147 57.0743 12.8889C56.8684 13.283 56.7637 13.7885 56.7602 14.4057L56.7335 19.3323L53.8438 19.3164Z" fill="#6366F1"/>
<path d="M69.999 18.9753C69.1253 18.983 68.2636 18.7715 67.4926 18.3603C66.7573 17.9633 66.1405 17.3783 65.7051 16.6651C65.259 15.9397 65.0383 15.0957 65.043 14.133C65.0484 13.1573 65.2785 12.3097 65.7335 11.5902C66.1747 10.8827 66.7983 10.3069 67.5388 9.92348C68.3157 9.52615 69.1789 9.32735 70.0514 9.34481C70.8909 9.34895 71.6306 9.52291 72.2702 9.86667C72.9228 10.2225 73.4453 10.7767 73.7621 11.4491C74.1171 12.1592 74.2911 13.0706 74.284 14.1836C74.2775 15.2824 74.0934 16.1859 73.7319 16.8941C73.4064 17.5643 72.8787 18.1154 72.2231 18.4695C71.5817 18.8115 70.8404 18.9801 69.999 18.9753ZM70.4206 23.2009C69.5053 23.1997 68.5939 23.0803 67.7092 22.8459C66.8394 22.6127 66.1158 22.266 65.5383 21.8057L66.6983 19.7377C67.1723 20.1155 67.7147 20.3985 68.2958 20.5711C68.9144 20.7734 69.5603 20.88 70.2111 20.8871C71.2353 20.8924 71.9802 20.6682 72.4459 20.2143C72.9115 19.7605 73.1467 19.0824 73.1515 18.1801L73.1604 16.6802L73.3592 14.1809L73.3361 11.6621L73.3476 9.51344L76.0883 9.52853L76.043 17.826C76.033 19.6786 75.5439 21.0394 74.576 21.9086C73.608 22.7778 72.2228 23.2086 70.4206 23.2009ZM70.5865 16.6128C71.0551 16.6237 71.5194 16.5214 71.94 16.3145C72.3251 16.1231 72.6477 15.8261 72.8701 15.4581C73.0912 15.0673 73.2085 14.6264 73.211 14.1775C73.2135 13.7285 73.101 13.2863 72.8843 12.8931C72.6635 12.5268 72.3443 12.2298 71.9631 12.0358C71.5417 11.8326 71.0803 11.7259 70.6125 11.7234C70.1447 11.721 69.6823 11.8228 69.2588 12.0216C68.9684 12.1792 68.7126 12.3935 68.5067 12.6519C68.3007 12.9103 68.1488 13.2074 68.0599 13.5256C67.971 13.8438 67.9469 14.1767 67.9891 14.5044C68.0313 14.8321 68.139 15.1479 68.3056 15.4332C68.5293 15.8027 68.8513 16.1026 69.2357 16.2995C69.6541 16.5113 70.1176 16.6188 70.5865 16.6128Z" fill="#6366F1"/>
<path d="M77.957 19.5823L78.028 6.61816L87.8254 6.67142L87.8121 9.07927L81.0154 9.042L80.9578 19.5982L77.957 19.5823ZM80.7607 14.8784L80.774 12.4705L86.9974 12.5042L86.9841 14.9121L80.7607 14.8784Z" fill="#6366F1"/>
<path d="M88.4375 19.3178L88.4916 9.3536L91.2519 9.36868L91.2359 12.1839L90.8516 11.3665C91.1313 10.6844 91.6383 10.1199 92.2867 9.76896C92.9423 9.40862 93.7411 9.23112 94.683 9.23644L94.6688 11.9035C94.5455 11.891 94.4345 11.8804 94.3351 11.8742C94.2357 11.868 94.1319 11.8635 94.0209 11.8626C93.2298 11.8579 92.5896 12.0798 92.1003 12.5283C91.611 12.9768 91.3631 13.6761 91.3566 14.6264L91.3308 19.3303L88.4375 19.3178Z" fill="#6366F1"/>
<path d="M100.037 19.4971C98.9722 19.4918 98.0317 19.2643 97.2158 18.8146C96.419 18.3866 95.7512 17.7532 95.2818 16.9801C94.804 16.1828 94.5618 15.2663 94.5834 14.337C94.5887 13.3365 94.831 12.4519 95.3102 11.6833C95.7863 10.9167 96.461 10.2932 97.2628 9.87899C98.0852 9.44529 99.0278 9.2311 100.09 9.23643C101.14 9.24234 102.077 9.46689 102.902 9.91006C103.7 10.328 104.369 10.9559 104.837 11.7259C105.301 12.4951 105.531 13.3853 105.526 14.3965C105.541 15.3132 105.299 16.2159 104.827 17.0022C104.356 17.7885 103.674 18.4271 102.858 18.8457C102.029 19.2859 101.089 19.503 100.037 19.4971ZM100.05 17.1265C100.504 17.136 100.952 17.0232 101.348 16.7999C101.736 16.5763 102.053 16.2473 102.261 15.8512C102.496 15.3969 102.613 14.8915 102.602 14.3805C102.606 13.8013 102.497 13.3069 102.277 12.8975C102.07 12.5032 101.758 12.1744 101.375 11.9478C100.979 11.7268 100.533 11.6096 100.08 11.6071C99.6264 11.6046 99.1797 11.7169 98.7813 11.9336C98.3944 12.1572 98.0759 12.4822 97.8601 12.8735C97.6293 13.2788 97.511 13.772 97.5051 14.353C97.4889 14.865 97.6044 15.3726 97.8406 15.8272C98.0495 16.2248 98.3648 16.5567 98.7512 16.7857C99.1455 17.0139 99.594 17.1316 100.05 17.1265Z" fill="#6366F1"/>
<path d="M106.457 19.3173L106.511 9.35301L109.27 9.3681L109.255 12.1274L108.742 11.2914C109.092 10.6382 109.63 10.1056 110.288 9.76305C110.992 9.39971 111.776 9.21904 112.569 9.23763C113.303 9.22918 114.029 9.39527 114.686 9.72222C115.312 10.0439 115.824 10.551 116.151 11.1742C116.506 11.8251 116.68 12.6564 116.674 13.6682L116.643 19.3732L113.753 19.3572L113.783 14.0968C113.787 13.2945 113.615 12.7011 113.264 12.3165C112.914 11.9319 112.418 11.7378 111.777 11.7342C111.349 11.7248 110.925 11.8211 110.543 12.0147C110.173 12.2093 109.873 12.5154 109.687 12.8898C109.481 13.2839 109.376 13.7895 109.373 14.4066L109.346 19.3332L106.457 19.3173Z" fill="#6366F1"/>
<path d="M117.145 11.9045L117.157 9.6857L124.065 9.72297L124.053 11.9418L117.145 11.9045ZM122.361 19.8275C121.188 19.8215 120.276 19.5171 119.625 18.9142C118.974 18.3113 118.652 17.4172 118.659 16.2321L118.707 7.49084L121.595 7.50682L121.548 16.2117C121.548 16.6312 121.657 16.9566 121.876 17.188C122.095 17.4193 122.397 17.5353 122.781 17.5359C123.201 17.5502 123.613 17.4219 123.95 17.172L124.717 19.2133C124.394 19.4332 124.033 19.5915 123.652 19.6801C123.23 19.7827 122.796 19.8321 122.361 19.8275Z" fill="#6366F1"/>
<path d="M127.562 19.5508L133.412 6.6178L136.376 6.63377L142.1 19.6298L138.952 19.6129L134.273 8.14168L135.459 8.14789L130.636 19.5677L127.562 19.5508ZM130.467 16.788L131.272 14.515L137.939 14.5514L138.738 16.8341L130.467 16.788Z" fill="#6366F1"/>
<path d="M143.105 19.5828L143.176 6.6178L146.177 6.63466L146.106 19.5987L143.105 19.5828Z" fill="#6366F1"/>
</svg>
