<svg width="168" height="24" viewBox="0 0 168 24" fill="none" xmlns="http://www.w3.org/2000/svg">
<g clip-path="url(#clip0_289_7067)">
<path d="M18.5577 7.12865C18.2281 7.12865 17.9609 6.87841 17.9609 6.56972L17.9609 5.35873C17.9609 5.05004 18.2281 4.7998 18.5577 4.7998L19.3534 4.7998C19.683 4.7998 19.9501 5.05004 19.9501 5.35873V6.56972C19.9501 6.87841 19.683 7.12865 19.3534 7.12865H18.5577Z" stroke="#2563EB" stroke-width="1.2" stroke-linecap="round" stroke-linejoin="round"/>
<path d="M18.9531 11.4177V9.08887" stroke="#2563EB" stroke-width="1.2" stroke-linecap="round" stroke-linejoin="round"/>
<path d="M10.7999 19.1999C10.4703 19.1999 10.2031 18.9497 10.2031 18.641L10.2031 17.43C10.2031 17.1213 10.4703 16.8711 10.7999 16.8711L11.5956 16.8711C11.9252 16.8711 12.1923 17.1213 12.1923 17.43V18.641C12.1923 18.9497 11.9252 19.1999 11.5956 19.1999H10.7999Z" stroke="#2563EB" stroke-width="1.2" stroke-linecap="round" stroke-linejoin="round"/>
<path d="M14.1172 16.677L15.8399 15.7067" stroke="#2563EB" stroke-width="1.2" stroke-linecap="round" stroke-linejoin="round"/>
<path d="M18.5577 15.7068C18.2281 15.7068 17.9609 15.4565 17.9609 15.1478L17.9609 13.9369C17.9609 13.6282 18.2281 13.3779 18.5577 13.3779L19.3534 13.3779C19.683 13.3779 19.9501 13.6282 19.9501 13.9369V15.1478C19.9501 15.4565 19.683 15.7068 19.3534 15.7068H18.5577Z" stroke="#2563EB" stroke-width="1.2" stroke-linecap="round" stroke-linejoin="round"/>
<path d="M22.0781 15.7065L23.8008 16.6769" stroke="#2563EB" stroke-width="1.2" stroke-linecap="round" stroke-linejoin="round"/>
<path d="M26.3155 19.1999C25.9859 19.1999 25.7188 18.9497 25.7188 18.641L25.7188 17.43C25.7187 17.1213 25.9859 16.8711 26.3155 16.8711L27.1112 16.8711C27.4408 16.8711 27.708 17.1213 27.708 17.43V18.641C27.708 18.9497 27.4408 19.1999 27.1112 19.1999H26.3155Z" stroke="#2563EB" stroke-width="1.2" stroke-linecap="round" stroke-linejoin="round"/>
<path d="M7.20312 1.19995C6.40748 1.19995 5.64441 1.48441 5.0818 1.99076C4.5192 2.49711 4.20313 3.18387 4.20312 3.89995V7.94995C4.20312 9.02408 3.88705 10.0542 3.32445 10.8137C2.76184 11.5733 1.99877 12 1.20312 12C1.99877 12 2.76184 12.4266 3.32445 13.1862C3.88705 13.9457 4.20312 14.9758 4.20312 16.05V20.1C4.20313 20.816 4.5192 21.5028 5.0818 22.0091C5.64441 22.5155 6.40748 22.8 7.20312 22.8" stroke="#2563EB" stroke-width="1.8" stroke-linecap="round" stroke-linejoin="round"/>
<path d="M31.3125 1.19995C32.1081 1.19995 32.8712 1.48441 33.4338 1.99076C33.9964 2.49711 34.3125 3.18387 34.3125 3.89995V7.94995C34.3125 9.02408 34.6286 10.0542 35.1912 10.8137C35.7538 11.5733 36.5169 12 37.3125 12C36.5169 12 35.7538 12.4266 35.1912 13.1862C34.6286 13.9457 34.3125 14.9758 34.3125 16.05V20.1C34.3125 20.816 33.9964 21.5028 33.4338 22.0091C32.8712 22.5155 32.1081 22.8 31.3125 22.8" stroke="#2563EB" stroke-width="1.8" stroke-linecap="round" stroke-linejoin="round"/>
<path d="M45.9698 19.279C44.9902 19.279 44.1067 19.1085 43.3193 18.7675C42.5381 18.4265 41.8933 17.9398 41.3849 17.3074C40.8827 16.6688 40.5634 15.9124 40.427 15.0382L42.752 14.6848C42.9504 15.4784 43.3565 16.0922 43.9703 16.5262C44.5903 16.9602 45.3033 17.1772 46.1093 17.1772C46.5867 17.1772 47.0362 17.1028 47.4578 16.954C47.8794 16.8052 48.2204 16.5882 48.4808 16.303C48.7474 16.0178 48.8807 15.6675 48.8807 15.2521C48.8807 15.0661 48.8497 14.8956 48.7877 14.7406C48.7257 14.5794 48.6327 14.4368 48.5087 14.3128C48.3909 14.1888 48.2359 14.0772 48.0437 13.978C47.8577 13.8726 47.6407 13.7827 47.3927 13.7083L43.9331 12.6853C43.6355 12.5985 43.3131 12.4838 42.9659 12.3412C42.6249 12.1924 42.2994 11.9909 41.9894 11.7367C41.6856 11.4763 41.4345 11.1477 41.2361 10.7509C41.0439 10.3479 40.9478 9.8519 40.9478 9.2629C40.9478 8.4011 41.1648 7.6788 41.5988 7.096C42.039 6.507 42.628 6.0668 43.3658 5.7754C44.1098 5.484 44.9344 5.3414 45.8396 5.3476C46.7572 5.3538 47.5756 5.5119 48.2948 5.8219C49.014 6.1257 49.6154 6.569 50.099 7.1518C50.5826 7.7346 50.9236 8.4383 51.122 9.2629L48.7133 9.6814C48.6141 9.2102 48.4219 8.8103 48.1367 8.4817C47.8577 8.1469 47.5136 7.8927 47.1044 7.7191C46.7014 7.5455 46.2705 7.4525 45.8117 7.4401C45.3653 7.4339 44.9499 7.5021 44.5655 7.6447C44.1873 7.7811 43.8804 7.9795 43.6448 8.2399C43.4154 8.5003 43.3007 8.8041 43.3007 9.1513C43.3007 9.4799 43.3999 9.7496 43.5983 9.9604C43.7967 10.165 44.0416 10.3293 44.333 10.4533C44.6306 10.5711 44.9313 10.6703 45.2351 10.7509L47.6345 11.4205C47.9631 11.5073 48.332 11.6251 48.7412 11.7739C49.1504 11.9227 49.5441 12.1304 49.9223 12.397C50.3005 12.6636 50.6105 13.0139 50.8523 13.4479C51.1003 13.8819 51.2243 14.4337 51.2243 15.1033C51.2243 15.7977 51.0786 16.4084 50.7872 16.9354C50.502 17.4562 50.1145 17.8902 49.6247 18.2374C49.1349 18.5846 48.5738 18.845 47.9414 19.0186C47.3152 19.1922 46.658 19.279 45.9698 19.279ZM58.3431 19.279C57.0039 19.279 55.8569 18.9876 54.9021 18.4048C53.9473 17.8158 53.2126 16.9974 52.698 15.9496C52.1896 14.9018 51.9354 13.6866 51.9354 12.304C51.9354 10.9214 52.1896 9.7062 52.698 8.6584C53.2126 7.6106 53.9473 6.7953 54.9021 6.2125C55.8569 5.6235 57.0039 5.329 58.3431 5.329C59.8869 5.329 61.1734 5.7165 62.2026 6.4915C63.2318 7.2603 63.9541 8.2988 64.3695 9.607L62.1096 10.2301C61.8492 9.3559 61.4059 8.6739 60.7797 8.1841C60.1535 7.6881 59.3413 7.4401 58.3431 7.4401C57.4441 7.4401 56.6939 7.6416 56.0925 8.0446C55.4973 8.4476 55.0478 9.0149 54.744 9.7465C54.4464 10.4719 54.2945 11.3244 54.2883 12.304C54.2883 13.2836 54.4371 14.1392 54.7347 14.8708C55.0385 15.5962 55.4911 16.1604 56.0925 16.5634C56.6939 16.9664 57.4441 17.1679 58.3431 17.1679C59.3413 17.1679 60.1535 16.9199 60.7797 16.4239C61.4059 15.9279 61.8492 15.2459 62.1096 14.3779L64.3695 15.001C63.9541 16.3092 63.2318 17.3508 62.2026 18.1258C61.1734 18.8946 59.8869 19.279 58.3431 19.279ZM65.8534 19V5.608H68.0947V11.2438H74.4373V5.608H76.6693V19H74.4373V13.3456H68.0947V19H65.8534ZM78.7186 19V5.608H87.3676V7.7098H80.9599V11.0113H86.2516V13.1131H80.9599V16.8982H87.3676V19H78.7186ZM89.0409 19V5.608H91.059L95.6904 15.094L100.322 5.608H102.34V19H100.247V10.4161L96.1368 19H95.244L91.1427 10.4161V19H89.0409ZM103.465 19L107.687 5.608H110.97L115.192 19H112.886L109.054 6.9844H109.556L105.771 19H103.465ZM105.818 16.0984V14.0059H112.848V16.0984H105.818ZM119.481 19V5.608H125.014C125.145 5.608 125.312 5.6142 125.517 5.6266C125.721 5.6328 125.91 5.6514 126.084 5.6824C126.859 5.8002 127.498 6.0575 128 6.4543C128.508 6.8511 128.883 7.3533 129.125 7.9609C129.373 8.5623 129.497 9.2319 129.497 9.9697C129.497 10.7013 129.373 11.3709 129.125 11.9785C128.877 12.5799 128.499 13.079 127.99 13.4758C127.488 13.8726 126.853 14.1299 126.084 14.2477C125.91 14.2725 125.718 14.2911 125.507 14.3035C125.303 14.3159 125.138 14.3221 125.014 14.3221H121.722V19H119.481ZM121.722 12.2296H124.921C125.045 12.2296 125.185 12.2234 125.34 12.211C125.495 12.1986 125.638 12.1738 125.768 12.1366C126.14 12.0436 126.431 11.8793 126.642 11.6437C126.859 11.4081 127.011 11.1415 127.098 10.8439C127.191 10.5463 127.237 10.2549 127.237 9.9697C127.237 9.6845 127.191 9.3931 127.098 9.0955C127.011 8.7917 126.859 8.522 126.642 8.2864C126.431 8.0508 126.14 7.8865 125.768 7.7935C125.638 7.7563 125.495 7.7346 125.34 7.7284C125.185 7.716 125.045 7.7098 124.921 7.7098H121.722V12.2296ZM130.988 19V5.608H133.23V19H130.988ZM135.643 19V5.608H137.885V16.8982H143.799V19H135.643ZM150.117 19.279C148.778 19.279 147.631 18.9876 146.676 18.4048C145.722 17.8158 144.987 16.9974 144.472 15.9496C143.964 14.9018 143.71 13.6866 143.71 12.304C143.71 10.9214 143.964 9.7062 144.472 8.6584C144.987 7.6106 145.722 6.7953 146.676 6.2125C147.631 5.6235 148.778 5.329 150.117 5.329C151.457 5.329 152.604 5.6235 153.558 6.2125C154.519 6.7953 155.254 7.6106 155.762 8.6584C156.277 9.7062 156.534 10.9214 156.534 12.304C156.534 13.6866 156.277 14.9018 155.762 15.9496C155.254 16.9974 154.519 17.8158 153.558 18.4048C152.604 18.9876 151.457 19.279 150.117 19.279ZM150.117 17.1679C151.016 17.1741 151.763 16.9757 152.359 16.5727C152.96 16.1697 153.41 15.6024 153.707 14.8708C154.011 14.1392 154.163 13.2836 154.163 12.304C154.163 11.3244 154.011 10.475 153.707 9.7558C153.41 9.0304 152.96 8.4662 152.359 8.0632C151.763 7.6602 151.016 7.4525 150.117 7.4401C149.218 7.4339 148.471 7.6323 147.876 8.0353C147.281 8.4383 146.831 9.0056 146.528 9.7372C146.23 10.4688 146.081 11.3244 146.081 12.304C146.081 13.2836 146.23 14.1361 146.528 14.8615C146.825 15.5807 147.272 16.1418 147.867 16.5448C148.468 16.9478 149.218 17.1555 150.117 17.1679ZM160.682 19V7.7098H156.348V5.608H167.257V7.7098H162.923V19H160.682Z" fill="#2563EB"/>
</g>
<defs>
<clipPath id="clip0_289_7067">
<rect width="167.505" height="24" fill="white"/>
</clipPath>
</defs>
</svg>
