<svg width="125" height="24" viewBox="0 0 125 24" fill="none" xmlns="http://www.w3.org/2000/svg">
<g clip-path="url(#clip0_289_6945)">
<path d="M14.8874 4.48883C14.4966 5.03543 13.5672 5.5873 12.9229 5.9253C12.5321 6.13126 12.2416 6.25801 12.2416 6.25801C12.2818 6.07876 12.2969 5.89481 12.2865 5.71141C12.2865 5.57674 12.2627 5.43415 12.2416 5.28892C12.004 3.83926 10.9926 1.92222 10.9609 1.8562C13.0391 2.45825 14.8874 4.48883 14.8874 4.48883Z" fill="#1D217C"/>
<path d="M14.8874 4.48892C14.4966 5.03552 13.5672 5.58739 12.9229 5.92539L12.2865 5.7115C12.2865 5.57683 12.2627 5.43424 12.2416 5.28901C12.7697 5.10681 13.4219 4.78203 13.4642 4.28032C13.5328 3.43798 11.0005 1.88534 10.9609 1.86157C13.0391 2.45834 14.8874 4.48892 14.8874 4.48892Z" fill="url(#paint0_linear_289_6945)"/>
<path d="M23.8005 21.1085C23.8005 21.1085 21.4531 19.3156 18.9815 20.6412C18.8416 20.7177 18.7016 20.797 18.5643 20.8815C16.2538 22.2625 14.0939 24.6046 10.9965 23.8574C10.9965 23.8574 13.9011 22.8355 13.7163 19.247C13.6238 17.5227 11.5827 16.3265 9.26956 15.5792C8.54483 15.3442 7.80792 15.1485 7.06206 14.993C6.08402 14.7765 5.09241 14.6265 4.09407 14.5441C3.27965 14.4837 2.51447 14.1311 1.93938 13.5513L1.51953 13.1314C1.63043 13.1103 9.19298 11.7557 13.6476 14.3408C12.2944 12.8061 10.5102 11.7147 8.52756 11.2091C8.52756 11.2091 14.0991 12.0013 17.281 15.6083C17.281 15.6083 15.4537 12.2574 13.6687 11.2593C15.3021 11.9517 16.8414 12.8478 18.2501 13.9262C20.3625 15.5291 22.6519 17.8897 23.8005 21.1085Z" fill="#DCE2FF"/>
<path d="M23.803 21.1086C22.6544 17.8898 20.3703 15.5291 18.2579 13.9263C16.8492 12.8478 15.3099 11.9517 13.6765 11.2593C15.4615 12.2575 17.2888 15.6083 17.2888 15.6083C14.1201 12.0013 8.53536 11.2092 8.53536 11.2092C10.5161 11.7157 12.2984 12.807 13.6501 14.3409C9.1955 11.7557 1.63295 13.1104 1.52204 13.1315L0.154237 11.761C0.0948363 11.6976 0.0520229 11.6204 0.0295959 11.5364C0.00716888 11.4524 0.00582184 11.3642 0.0256743 11.2796C0.0455268 11.1949 0.0859648 11.1165 0.1434 11.0513C0.200835 10.986 0.27349 10.9359 0.354919 10.9055L6.16414 8.93564C7.32637 8.54468 8.32033 7.7687 8.98161 6.73605L9.00274 6.69909C9.26787 6.28512 9.68519 5.99204 10.1646 5.88316L13.6528 4.88767C13.7969 4.84607 13.9271 4.76614 14.0294 4.6564C14.1317 4.54666 14.2023 4.41121 14.2337 4.2645C14.4764 2.85597 14.5173 1.42006 14.3551 0C14.3551 0 25.023 8.65574 23.803 21.1086Z" fill="url(#paint1_linear_289_6945)"/>
<path d="M23.8051 21.1086C22.6564 17.8898 20.3723 15.5291 18.2599 13.9263C18.8303 12.7037 19.2369 10.3299 18.656 8.64518C18.5923 8.45789 18.5137 8.27599 18.421 8.10122C17.9681 7.20575 17.2935 6.44107 16.4616 5.87996C15.6296 5.31885 14.6679 4.97998 13.668 4.89559C13.8121 4.85399 13.9423 4.77407 14.0446 4.66432C14.1469 4.55458 14.2175 4.41913 14.2489 4.27242C14.488 2.86068 14.5245 1.42204 14.3572 0C14.5288 0.134668 25.0171 8.75344 23.8051 21.1086Z" fill="url(#paint2_linear_289_6945)"/>
<path d="M18.5644 20.8814C16.848 21.9165 15.2135 23.4639 13.2173 23.889C12.4842 24.047 11.7248 24.0362 10.9966 23.8573C10.9966 23.8573 13.9012 22.8354 13.7163 19.2469C13.6654 18.6203 13.3897 18.0333 12.94 17.5939H12.9268C12.1082 16.7278 10.7431 16.0624 9.26172 15.5765C9.26964 15.5792 15.3878 16.3713 18.5644 20.8814Z" fill="url(#paint3_linear_289_6945)"/>
<path d="M13.2168 23.8891C12.4837 24.0471 11.7243 24.0363 10.9961 23.8574C10.9961 23.8574 13.9007 22.8355 13.7159 19.247C13.6649 18.6204 13.3892 18.0333 12.9395 17.594C13.1349 17.7815 15.4005 20.158 13.2168 23.8891Z" fill="url(#paint4_linear_289_6945)"/>
<path d="M18.6482 8.63461C18.5844 8.44732 18.5059 8.26543 18.4132 8.09066C17.9602 7.19518 17.2857 6.43051 16.4538 5.8694C15.6218 5.30829 14.6601 4.96941 13.6602 4.88503C13.8043 4.84343 13.9345 4.7635 14.0368 4.65376C14.1391 4.54401 14.2097 4.40857 14.2411 4.26185C14.481 2.85382 14.5192 1.41881 14.3546 0C14.4497 0.14259 18.4 6.00726 18.6482 8.63461Z" fill="#1D217C"/>
<path d="M13.6501 4.88757C13.4468 4.95095 10.1567 5.97548 9.80018 6.43758C9.44371 6.89968 8.57232 8.28597 7.24677 8.94346C5.92121 9.60096 0.0354117 11.1378 0.154237 11.7609C0.0948363 11.6975 0.0520229 11.6203 0.0295959 11.5363C0.00716888 11.4523 0.00582184 11.3641 0.0256743 11.2795C0.0455268 11.1948 0.0859648 11.1164 0.1434 11.0512C0.200835 10.9859 0.27349 10.9358 0.354919 10.9054L6.16414 8.93554C7.32637 8.54458 8.32033 7.7686 8.98161 6.73596L9.00274 6.69899C9.26787 6.28502 9.68519 5.99195 10.1646 5.88306L13.6501 4.88757Z" fill="#1D217C"/>
<path d="M30.5286 13.047C29.967 12.4872 29.6854 11.7073 29.6836 10.7075H31.532C31.5086 11.1103 31.6377 11.5072 31.8937 11.8191C32.0209 11.9555 32.1764 12.0624 32.3493 12.1322C32.5222 12.202 32.7083 12.233 32.8945 12.2231H34.4102C34.7541 12.2351 35.0937 12.1431 35.3846 11.9591C35.4996 11.8878 35.5944 11.7883 35.6601 11.6699C35.7257 11.5516 35.76 11.4184 35.7595 11.2831V10.8263C35.7595 10.3791 35.4321 10.1019 34.7772 9.99451L32.2687 9.57202C31.5897 9.48924 30.9485 9.21442 30.4203 8.77985C30.2137 8.59412 30.05 8.36565 29.9406 8.1103C29.8311 7.85495 29.7786 7.57884 29.7866 7.30114V6.55122C29.7769 6.09844 29.9099 5.65408 30.1668 5.28112C30.4457 4.89726 30.8288 4.6013 31.2706 4.42822C31.7979 4.21919 32.3617 4.11774 32.9288 4.12984H34.4683C35.013 4.11597 35.5524 4.23947 36.0368 4.48895C36.4795 4.72491 36.8459 5.08212 37.093 5.51877C37.3507 5.98827 37.4801 6.51746 37.4679 7.05293H35.6196C35.636 6.71693 35.5237 6.38731 35.3053 6.13138C35.201 6.01548 35.0723 5.92412 34.9285 5.86386C34.7847 5.8036 34.6293 5.77592 34.4736 5.78282H32.9341C32.6089 5.76686 32.2867 5.8527 32.0126 6.02839C31.9041 6.0992 31.8154 6.19648 31.7548 6.31105C31.6943 6.42562 31.664 6.55371 31.6667 6.68325V7.05293C31.6667 7.5071 31.9782 7.78964 32.6067 7.89791L35.102 8.3336C35.7897 8.42052 36.4425 8.68639 36.9953 9.10464C37.2064 9.27566 37.3753 9.49301 37.4888 9.73983C37.6024 9.98665 37.6576 10.2563 37.6501 10.5279V11.4283C37.6538 11.8896 37.5084 12.3397 37.2356 12.7116C36.9489 13.0998 36.5592 13.3998 36.1107 13.5777C35.5783 13.7923 35.0078 13.8965 34.434 13.884H32.8655C31.8691 13.884 31.0901 13.605 30.5286 13.047Z" fill="#1D217C"/>
<path d="M40.3533 13.435C39.8263 13.1397 39.3976 12.6963 39.1202 12.1596C38.8205 11.5715 38.6708 10.9184 38.6845 10.2584V7.74992C38.6706 7.08933 38.8222 6.43575 39.1254 5.84872C39.4101 5.31032 39.8461 4.86698 40.3797 4.57333C40.9556 4.2648 41.6013 4.11018 42.2545 4.12444H43.7015C44.3286 4.11109 44.9483 4.26125 45.4997 4.56013C46.0105 4.84279 46.4294 5.26622 46.7065 5.78007C47.0028 6.33987 47.151 6.96618 47.1369 7.59941H45.2885C45.3118 7.1201 45.1555 6.64932 44.8502 6.27913C44.709 6.11578 44.533 5.98616 44.3351 5.89979C44.1373 5.81343 43.9226 5.77251 43.7068 5.78007H42.2545C42.0202 5.77294 41.7875 5.82055 41.5748 5.9191C41.3621 6.01765 41.1753 6.16443 41.0293 6.34779C40.7047 6.7704 40.5401 7.29419 40.5645 7.8265V10.1713C40.5397 10.7016 40.6992 11.2241 41.0161 11.65C41.1544 11.832 41.3341 11.9784 41.5403 12.0772C41.7465 12.1759 41.9732 12.2241 42.2017 12.2177H43.6725C43.8992 12.2229 44.1241 12.175 44.329 12.0778C44.5339 11.9806 44.7133 11.8368 44.8528 11.6579C45.1731 11.2356 45.3348 10.714 45.3096 10.1845H47.158C47.177 10.8638 47.0292 11.5375 46.7276 12.1464C46.4535 12.6884 46.0267 13.1383 45.4997 13.4403C44.9427 13.7538 44.3115 13.9116 43.6725 13.8971H42.2017C41.5558 13.9072 40.9185 13.7479 40.3533 13.435Z" fill="#1D217C"/>
<path d="M48.3281 4.22489H53.4006C54.1262 4.19013 54.8384 4.42849 55.3969 4.89295C55.6455 5.11169 55.8425 5.38292 55.9735 5.68704C56.1046 5.99117 56.1665 6.3206 56.1547 6.65156V7.6048C56.1633 8.05008 56.0219 8.48532 55.7534 8.84058C55.449 9.21183 55.0436 9.48698 54.5862 9.63274V9.65915C54.8528 9.82492 55.0785 10.0488 55.2464 10.314C55.4352 10.6429 55.5867 10.9918 55.6979 11.3544L56.4637 13.7811H54.5123L53.7914 11.5181C53.7083 11.1891 53.5387 10.8882 53.3003 10.6467C53.0842 10.4505 52.7997 10.3471 52.5081 10.3589H50.2056V13.7916H48.3281V4.22489ZM53.0468 8.71383C53.3745 8.73235 53.6965 8.62248 53.9446 8.40753C54.0515 8.3057 54.1359 8.1826 54.1923 8.04615C54.2487 7.90971 54.2758 7.76295 54.272 7.61536V6.74134C54.2773 6.62444 54.2583 6.50771 54.216 6.3986C54.1737 6.28949 54.1091 6.19038 54.0264 6.1076C53.9392 6.02621 53.8365 5.96304 53.7245 5.92178C53.6125 5.88052 53.4935 5.862 53.3742 5.86731H50.2056V8.73231L53.0468 8.71383Z" fill="#1D217C"/>
<path d="M63.1701 11.5551H59.5975L58.7525 13.7758H56.7773L60.5243 4.22493H61.3693C61.6321 4.20818 61.893 4.2796 62.1106 4.42788C62.3282 4.57615 62.4901 4.7928 62.5707 5.0435L65.9638 13.7573H64.0019L63.1701 11.5551ZM60.1018 9.97078H62.6658L61.3957 6.53806H61.3825L60.1018 9.97078Z" fill="#1D217C"/>
<path d="M66.8633 4.2248H71.8935C72.4029 4.21436 72.9076 4.3238 73.367 4.54431C73.7802 4.74612 74.126 5.06349 74.3625 5.45794C74.6022 5.86952 74.7246 6.33894 74.7163 6.81519V8.08265C74.7261 8.57333 74.599 9.05705 74.3493 9.47951C74.1029 9.88551 73.7456 10.2126 73.3194 10.4222C72.8413 10.6521 72.3157 10.7661 71.7853 10.7549H68.7434V13.7757H66.8633V4.2248ZM71.7589 9.11775C71.9024 9.12337 72.0456 9.09904 72.1793 9.04631C72.3129 8.99357 72.4341 8.91359 72.5352 8.81145C72.6372 8.70346 72.7165 8.57603 72.7682 8.43675C72.8199 8.29747 72.843 8.14921 72.8362 8.0008V6.90497C72.8513 6.62745 72.7565 6.35516 72.5722 6.14713C72.4812 6.05386 72.3717 5.98075 72.2507 5.93253C72.1297 5.88431 71.9999 5.86206 71.8698 5.86723H68.7434V9.12567L71.7589 9.11775Z" fill="#1D217C"/>
<path d="M75.8906 4.22485H77.7733V13.7757H75.8906V4.22485Z" fill="#1D217C"/>
<path d="M79.5951 4.22485H81.2719L85.8532 10.7153V4.22485H87.7016V13.7757H86.0249L81.4382 7.28526V13.7757H79.5898L79.5951 4.22485Z" fill="#1D217C"/>
<path d="M90.8027 13.4351C90.2707 13.1412 89.8364 12.6978 89.5538 12.1597C89.2496 11.5729 89.0971 10.9193 89.1101 10.2585V7.74998C89.0971 7.08916 89.2496 6.43557 89.5538 5.84878C89.8377 5.30983 90.2739 4.86629 90.808 4.57339C91.3839 4.26486 92.0297 4.11024 92.6828 4.1245H94.2091C94.8336 4.11048 95.452 4.25012 96.0099 4.53114C96.515 4.79381 96.9339 5.1962 97.2167 5.69034C97.5094 6.21995 97.657 6.81754 97.6444 7.42255H95.796C95.806 7.20587 95.7726 6.98939 95.6978 6.7858C95.6229 6.58221 95.5082 6.39561 95.3603 6.23694C95.2114 6.08592 95.0325 5.96773 94.8351 5.88997C94.6377 5.81221 94.4263 5.77659 94.2143 5.7854H92.6855C92.4507 5.77787 92.2175 5.82527 92.0043 5.92383C91.7911 6.0224 91.6039 6.1694 91.4576 6.35312C91.134 6.7761 90.9703 7.29986 90.9955 7.83183V10.1766C90.9697 10.7079 91.1314 11.2313 91.4523 11.6554C91.5945 11.8384 91.7779 11.9852 91.9876 12.0838C92.1974 12.1825 92.4274 12.2302 92.6591 12.2231H94.2698C94.4869 12.2282 94.7025 12.1857 94.9014 12.0986C95.1003 12.0114 95.2777 11.8818 95.4211 11.7187C95.7293 11.3741 95.8929 10.9239 95.8779 10.4618V10.1634H93.2373V8.5263H97.7263V10.4618C97.7369 11.0814 97.5858 11.6929 97.2879 12.2363C97.0027 12.7482 96.5778 13.1686 96.0627 13.4483C95.5119 13.7437 94.8948 13.8937 94.2698 13.884H92.6617C92.0135 13.8989 91.3727 13.7441 90.8027 13.4351Z" fill="#1D217C"/>
<path d="M99.0938 4.22485H106.236V5.85936H100.974V8.42333H105.727V10.0605H100.974V13.7573H99.0938V4.22485Z" fill="#3453EC"/>
<path d="M108.53 13.4272C107.986 13.1336 107.537 12.6889 107.239 12.1465C106.924 11.5585 106.767 10.899 106.782 10.2321V7.77642C106.767 7.10956 106.924 6.45005 107.239 5.86202C107.538 5.31954 107.986 4.87416 108.53 4.57871C109.115 4.26684 109.769 4.11044 110.432 4.12453H111.879C112.541 4.11044 113.195 4.26684 113.78 4.57871C114.32 4.87577 114.764 5.321 115.06 5.86202C115.375 6.45005 115.533 7.10956 115.517 7.77642V10.2321C115.529 10.8999 115.368 11.5595 115.05 12.1465C114.755 12.6874 114.31 13.1319 113.769 13.4272C113.186 13.7411 112.531 13.8985 111.868 13.884H110.421C109.762 13.8967 109.111 13.7393 108.53 13.4272ZM111.879 12.2231C112.12 12.2311 112.361 12.1836 112.581 12.0843C112.802 11.985 112.997 11.8365 113.151 11.6501C113.49 11.2257 113.663 10.6926 113.637 10.1503V7.85828C113.663 7.31593 113.49 6.78284 113.151 6.35844C112.997 6.17209 112.802 6.02355 112.581 5.92423C112.361 5.8249 112.12 5.77743 111.879 5.78544H110.432C110.19 5.77743 109.949 5.8249 109.729 5.92423C109.508 6.02355 109.313 6.17209 109.159 6.35844C108.82 6.78284 108.647 7.31593 108.673 7.85828V10.1503C108.647 10.6926 108.82 11.2257 109.159 11.6501C109.313 11.8365 109.508 11.985 109.729 12.0843C109.949 12.1836 110.19 12.2311 110.432 12.2231H111.879Z" fill="#3453EC"/>
<path d="M119.024 8.9092L115.834 4.22485H117.975L120.101 7.35919L122.229 4.22485H124.355L121.165 8.9092L124.492 13.7757H122.351L120.101 10.4486L117.838 13.7757H115.699L119.024 8.9092Z" fill="#3453EC"/>
<path d="M29.8817 19.7645C29.8555 19.7383 29.8352 19.7069 29.822 19.6723C29.8088 19.6377 29.8031 19.6008 29.8051 19.5638V16.8361H31.0752C31.2958 16.8253 31.5136 16.8895 31.6931 17.0183C31.7678 17.0743 31.8279 17.1474 31.8683 17.2315C31.9088 17.3157 31.9284 17.4083 31.9254 17.5016V17.7287C31.9254 17.834 31.901 17.9379 31.8541 18.0323C31.8071 18.125 31.7371 18.204 31.6508 18.262C31.7846 18.2942 31.9037 18.3705 31.9888 18.4786C32.0733 18.5851 32.1181 18.7176 32.1156 18.8535V19.0595C32.1203 19.1642 32.1028 19.2687 32.0641 19.3662C32.0254 19.4636 31.9664 19.5517 31.8911 19.6246C31.8094 19.6983 31.7139 19.7552 31.6101 19.7919C31.5064 19.8286 31.3963 19.8445 31.2864 19.8385H30.0823C30.0456 19.8408 30.0087 19.8354 29.9742 19.8227C29.9396 19.81 29.9081 19.7902 29.8817 19.7645ZM31.165 18.1934C31.2249 18.1961 31.2848 18.1862 31.3408 18.1644C31.3967 18.1425 31.4475 18.1093 31.4898 18.0666C31.5314 18.0212 31.5636 17.9679 31.5845 17.9099C31.6053 17.8518 31.6144 17.7902 31.6112 17.7287V17.5016C31.6096 17.4489 31.5954 17.3974 31.5696 17.3514C31.5439 17.3055 31.5074 17.2664 31.4633 17.2375C31.3494 17.1622 31.2143 17.1251 31.0778 17.1319H30.1246V18.1934H31.165ZM31.2468 19.5586C31.3945 19.5666 31.5398 19.5185 31.6535 19.4239C31.7026 19.3782 31.7412 19.3225 31.7667 19.2605C31.7922 19.1985 31.804 19.1318 31.8013 19.0648V18.8588C31.8027 18.8038 31.7919 18.7492 31.7695 18.699C31.7471 18.6487 31.7138 18.6041 31.6719 18.5683C31.5744 18.4938 31.454 18.4555 31.3313 18.4601H30.1246V19.5586H31.2468Z" fill="#1D217C"/>
<path d="M33.9879 18.6873L32.8789 16.8389H33.2222L34.1464 18.4021L35.0706 16.8389H35.4138L34.3048 18.6873V19.8438H33.9879V18.6873Z" fill="#1D217C"/>
<path d="M38.6135 19.7408C38.4653 19.6469 38.3464 19.5134 38.2703 19.3553C38.1857 19.1773 38.1441 18.9819 38.1488 18.7849V17.8924C38.1444 17.6954 38.186 17.5001 38.2703 17.322C38.346 17.1621 38.4673 17.028 38.6188 16.9365C38.779 16.8436 38.9618 16.797 39.1469 16.8019H39.6011C39.7724 16.7978 39.9417 16.8388 40.0922 16.9207C40.2336 16.9999 40.3491 17.1181 40.425 17.2613C40.5045 17.4164 40.5444 17.5888 40.5411 17.763H40.2322C40.2406 17.5828 40.1781 17.4065 40.0579 17.2719C39.9997 17.2097 39.9287 17.1608 39.8499 17.1284C39.7711 17.0961 39.6862 17.0811 39.6011 17.0844H39.1469C39.0535 17.0813 38.9607 17.0997 38.8755 17.1381C38.7904 17.1766 38.7152 17.2341 38.6558 17.3062C38.5259 17.4731 38.4603 17.6812 38.4709 17.8924V18.7849C38.4607 18.9961 38.5241 19.2043 38.6505 19.3738C38.7079 19.4447 38.7809 19.5013 38.8638 19.5394C38.9467 19.5774 39.0373 19.5957 39.1284 19.5929H39.5932C39.682 19.5963 39.7704 19.5795 39.8518 19.5438C39.9332 19.5082 40.0055 19.4545 40.0632 19.387C40.1851 19.2385 40.2489 19.0508 40.2428 18.8588H40.5517C40.553 19.042 40.5114 19.2228 40.4302 19.387C40.3555 19.5387 40.238 19.6654 40.0922 19.7514C39.9406 19.8388 39.7682 19.8835 39.5932 19.8807H39.1284C38.947 19.8836 38.7685 19.8351 38.6135 19.7408Z" fill="#1D217C"/>
<path d="M42.1059 19.7435C41.9531 19.6554 41.83 19.524 41.752 19.3659C41.6644 19.1897 41.6209 18.9949 41.6253 18.7982V17.8792C41.6213 17.6826 41.6647 17.4878 41.752 17.3115C41.8308 17.1539 41.9537 17.0227 42.1059 16.9339C42.2665 16.8425 42.4492 16.7968 42.634 16.8019H43.0908C43.2756 16.7972 43.4581 16.8428 43.6189 16.9339C43.7705 17.0234 43.8933 17.1544 43.9728 17.3115C44.0601 17.4878 44.1035 17.6826 44.0995 17.8792V18.7982C44.1042 18.9941 44.0606 19.1881 43.9728 19.3632C43.8931 19.521 43.7692 19.6522 43.6163 19.7408C43.4564 19.8346 43.2735 19.8822 43.0882 19.8781H42.6287C42.4454 19.8815 42.2647 19.8349 42.1059 19.7435ZM43.0802 19.593C43.1758 19.5973 43.2712 19.5798 43.359 19.5418C43.4468 19.5038 43.5249 19.4464 43.5872 19.3738C43.7224 19.2133 43.7922 19.0078 43.7826 18.7982V17.8792C43.7922 17.6696 43.7224 17.4641 43.5872 17.3036C43.5244 17.2316 43.4462 17.1746 43.3585 17.1367C43.2708 17.0988 43.1757 17.0809 43.0802 17.0844H42.6419C42.5465 17.0813 42.4515 17.0993 42.3639 17.1372C42.2762 17.1751 42.198 17.2319 42.1349 17.3036C42.0018 17.4651 41.9331 17.6701 41.9422 17.8792V18.7982C41.9319 19.0074 42.0007 19.2129 42.1349 19.3738C42.197 19.446 42.2746 19.5032 42.362 19.5412C42.4493 19.5792 42.5441 19.5969 42.6393 19.593H43.0802Z" fill="#1D217C"/>
<path d="M45.4196 19.7697C45.3945 19.7419 45.3753 19.7093 45.3631 19.6739C45.3508 19.6385 45.3458 19.6011 45.3483 19.5637V16.836H46.5946C46.7874 16.8315 46.9784 16.8732 47.1518 16.9575C47.3097 17.0342 47.4419 17.1554 47.532 17.306C47.6235 17.4667 47.6691 17.6494 47.664 17.8342V18.7795C47.6843 19.0681 47.5894 19.3529 47.4 19.5716C47.2928 19.6672 47.1673 19.7399 47.0311 19.7853C46.8949 19.8307 46.7509 19.8478 46.6078 19.8357H45.6255C45.5885 19.8389 45.5513 19.8347 45.5159 19.8234C45.4806 19.8121 45.4478 19.7938 45.4196 19.7697ZM46.6025 19.5584C46.7033 19.5658 46.8044 19.5519 46.8994 19.5178C46.9945 19.4837 47.0813 19.4301 47.1544 19.3604C47.2899 19.1943 47.3569 18.9827 47.3419 18.7689V17.8236C47.3457 17.7287 47.329 17.634 47.293 17.5461C47.257 17.4582 47.2026 17.379 47.1333 17.314C46.9826 17.18 46.7856 17.1099 46.5841 17.1186H45.6651V19.5584H46.6025Z" fill="#1D217C"/>
<path d="M48.9297 16.8362H49.2466V19.8438H48.9297V16.8362Z" fill="#1D217C"/>
<path d="M51.0238 19.7435C50.8711 19.6554 50.7479 19.524 50.67 19.3659C50.5824 19.1897 50.5389 18.9949 50.5433 18.7982V17.8792C50.5392 17.6826 50.5827 17.4878 50.67 17.3115C50.7487 17.1539 50.8717 17.0227 51.0238 16.9339C51.1845 16.8425 51.3672 16.7968 51.552 16.8019H52.0061C52.1908 16.7977 52.3732 16.8433 52.5342 16.9339C52.6858 17.0234 52.8086 17.1544 52.8881 17.3115C52.9754 17.4878 53.0189 17.6826 53.0148 17.8792V18.7982C53.0195 18.9941 52.976 19.1881 52.8881 19.3632C52.8084 19.521 52.6845 19.6522 52.5316 19.7408C52.3716 19.8345 52.1888 19.882 52.0035 19.8781H51.544C51.3616 19.8815 51.1817 19.8349 51.0238 19.7435ZM51.9982 19.593C52.0937 19.5967 52.1889 19.5789 52.2766 19.541C52.3643 19.5031 52.4425 19.4459 52.5052 19.3738C52.6394 19.2129 52.7083 19.0074 52.698 18.7982V17.8792C52.7083 17.67 52.6394 17.4645 52.5052 17.3036C52.4421 17.2319 52.3639 17.1751 52.2763 17.1372C52.1886 17.0993 52.0937 17.0813 51.9982 17.0844H51.5599C51.4644 17.0813 51.3695 17.0993 51.2818 17.1372C51.1942 17.1751 51.116 17.2319 51.0529 17.3036C50.9186 17.4645 50.8498 17.67 50.8601 17.8792V18.7982C50.8501 19.0069 50.9179 19.212 51.0503 19.3738C51.1129 19.4461 51.191 19.5033 51.2787 19.5412C51.3665 19.5792 51.4617 19.5969 51.5572 19.593H51.9982Z" fill="#1D217C"/>
<path d="M54.6645 19.7435C54.5123 19.6547 54.3894 19.5235 54.3106 19.3659C54.223 19.1897 54.1795 18.9949 54.1839 18.7982V17.8792C54.1798 17.6826 54.2233 17.4878 54.3106 17.3115C54.3901 17.1544 54.5129 17.0234 54.6645 16.9339C54.8255 16.8433 55.0079 16.7977 55.1926 16.8019H55.6468C55.8316 16.7968 56.0142 16.8425 56.1749 16.9339C56.3212 17.0251 56.4384 17.1561 56.5129 17.3115C56.6022 17.4872 56.6467 17.6822 56.6423 17.8792V18.7982C56.6473 18.9944 56.6028 19.1888 56.5129 19.3632C56.4332 19.521 56.3093 19.6522 56.1564 19.7408C55.9966 19.835 55.8137 19.8826 55.6283 19.8781H55.1926C55.0076 19.8822 54.825 19.8356 54.6645 19.7435ZM55.6415 19.593C55.737 19.5967 55.8321 19.5789 55.9199 19.541C56.0076 19.5031 56.0857 19.4459 56.1485 19.3738C56.2827 19.2129 56.3515 19.0074 56.3412 18.7982V17.8792C56.3515 17.67 56.2827 17.4645 56.1485 17.3036C56.0854 17.2319 56.0072 17.1751 55.9195 17.1372C55.8319 17.0993 55.7369 17.0813 55.6415 17.0844H55.1926C55.0971 17.0813 55.0022 17.0993 54.9145 17.1372C54.8269 17.1751 54.7487 17.2319 54.6856 17.3036C54.5514 17.4645 54.4825 17.67 54.4928 17.8792V18.7982C54.4828 19.0069 54.5506 19.212 54.683 19.3738C54.745 19.446 54.8227 19.5032 54.91 19.5412C54.9973 19.5792 55.0921 19.5969 55.1873 19.593H55.6415Z" fill="#1D217C"/>
</g>
<defs>
<linearGradient id="paint0_linear_289_6945" x1="12.8394" y1="3.70706" x2="12.5349" y2="5.78297" gradientUnits="userSpaceOnUse">
<stop stop-color="#3453EC"/>
<stop offset="1" stop-color="#8FC4F8"/>
</linearGradient>
<linearGradient id="paint1_linear_289_6945" x1="1.89073" y1="5.2231" x2="26.3697" y2="12.824" gradientUnits="userSpaceOnUse">
<stop stop-color="#8FC4F8"/>
<stop offset="1" stop-color="#3453EC"/>
</linearGradient>
<linearGradient id="paint2_linear_289_6945" x1="19.5007" y1="24.9879" x2="18.4029" y2="4.89998" gradientUnits="userSpaceOnUse">
<stop stop-color="#3453EC"/>
<stop offset="1" stop-color="#8FC4F8"/>
</linearGradient>
<linearGradient id="paint3_linear_289_6945" x1="8.18908" y1="19.0354" x2="18.1703" y2="22.1347" gradientUnits="userSpaceOnUse">
<stop stop-color="#3453EC"/>
<stop offset="1" stop-color="#8FC4F8"/>
</linearGradient>
<linearGradient id="paint4_linear_289_6945" x1="12.5158" y1="19.8455" x2="12.5587" y2="21.6754" gradientUnits="userSpaceOnUse">
<stop stop-color="#3453EC"/>
<stop offset="1" stop-color="#8FC4F8"/>
</linearGradient>
<clipPath id="clip0_289_6945">
<rect width="124.489" height="24" fill="white"/>
</clipPath>
</defs>
</svg>
