<svg width="126" height="24" viewBox="0 0 126 24" fill="none" xmlns="http://www.w3.org/2000/svg">
<circle cx="22.634" cy="12.4127" r="1.64571" fill="#FF0033"/>
<circle cx="20.0155" cy="9.25833" r="1.23429" fill="#FF0033"/>
<circle cx="20.0155" cy="15.5669" r="1.23429" fill="#FF0033"/>
<circle cx="17.2851" cy="12.4126" r="1.23429" fill="#FF0033"/>
<circle cx="17.1358" cy="6.37833" r="0.96" fill="#FF0033"/>
<circle cx="14.2621" cy="3.29274" r="0.754286" fill="#FF0033"/>
<circle cx="14.3246" cy="21.807" r="0.754286" fill="#FF0033"/>
<circle cx="8.0121" cy="15.6355" r="0.754286" fill="#FF0033"/>
<circle cx="8.0121" cy="9.46388" r="0.754286" fill="#FF0033"/>
<circle cx="5.20567" cy="6.51561" r="0.822857" fill="#FF0033"/>
<circle cx="5.20567" cy="12.5498" r="0.822857" fill="#FF0033"/>
<circle cx="5.20567" cy="18.584" r="0.822857" fill="#FF0033"/>
<circle cx="17.1358" cy="18.584" r="0.96" fill="#FF0033"/>
<circle cx="11.8606" cy="18.6526" r="1.02857" fill="#FF0033"/>
<circle cx="11.8606" cy="6.30982" r="1.02857" fill="#FF0033"/>
<circle cx="14.7473" cy="15.6354" r="1.02857" fill="#FF0033"/>
<circle cx="14.7473" cy="9.32679" r="1.02857" fill="#FF0033"/>
<circle cx="11.1731" cy="12.4811" r="1.02857" fill="#FF0033"/>
<circle cx="1.30982" cy="12.4811" r="1.02857" fill="#FF0033"/>
<circle cx="9.12232" cy="3.0182" r="1.02857" fill="#FF0033"/>
<circle cx="9.12232" cy="21.8069" r="1.02857" fill="#FF0033"/>
<path d="M36.6715 8.45312C36.6052 7.83286 36.3259 7.3499 35.8334 7.00426C35.3458 6.65862 34.7113 6.48579 33.93 6.48579C33.3808 6.48579 32.9097 6.56865 32.5167 6.73437C32.1237 6.90009 31.823 7.125 31.6147 7.40909C31.4064 7.69318 31.2998 8.01752 31.2951 8.3821C31.2951 8.68513 31.3638 8.94792 31.5011 9.17045C31.6431 9.39299 31.8349 9.58239 32.0763 9.73864C32.3178 9.89015 32.5853 10.018 32.8789 10.1222C33.1725 10.2263 33.4684 10.3139 33.7667 10.3849L35.1303 10.7259C35.6796 10.8537 36.2075 11.0265 36.7141 11.2443C37.2255 11.4621 37.6824 11.7367 38.0849 12.0682C38.4921 12.3996 38.814 12.7997 39.0508 13.2685C39.2875 13.7372 39.4059 14.2865 39.4059 14.9162C39.4059 15.7685 39.1881 16.5189 38.7525 17.1676C38.3169 17.8116 37.6871 18.3158 36.8633 18.6804C36.0441 19.0402 35.0522 19.2202 33.8874 19.2202C32.7558 19.2202 31.7733 19.045 30.94 18.6946C30.1114 18.3442 29.4627 17.8329 28.994 17.1605C28.5299 16.4882 28.279 15.669 28.2411 14.7031H30.8334C30.8713 15.2098 31.0276 15.6312 31.3022 15.9673C31.5768 16.3035 31.9343 16.5545 32.3746 16.7202C32.8197 16.8859 33.3169 16.9687 33.8661 16.9687C34.439 16.9687 34.9409 16.8835 35.3718 16.7131C35.8074 16.5379 36.1483 16.2964 36.3945 15.9886C36.6407 15.6761 36.7662 15.3116 36.7709 14.8949C36.7662 14.5161 36.6549 14.2036 36.4371 13.9574C36.2193 13.7064 35.9139 13.4981 35.5209 13.3324C35.1327 13.1619 34.6781 13.0104 34.1573 12.8778L32.5025 12.4517C31.3046 12.1439 30.3576 11.6776 29.6616 11.0526C28.9703 10.4228 28.6246 9.58712 28.6246 8.54545C28.6246 7.68845 28.8566 6.93797 29.3207 6.29403C29.7894 5.65009 30.4263 5.15057 31.2312 4.79545C32.0361 4.4356 32.9476 4.25568 33.9656 4.25568C34.9977 4.25568 35.9021 4.4356 36.6786 4.79545C37.4599 5.15057 38.073 5.64536 38.5181 6.27983C38.9632 6.90956 39.1928 7.63399 39.207 8.45312H36.6715ZM44.2124 4.45454V19H41.6413V4.45454H44.2124ZM49.9954 19.2202C49.3041 19.2202 48.6815 19.0971 48.1275 18.8509C47.5782 18.5999 47.1426 18.2306 46.8207 17.7429C46.5034 17.2552 46.3448 16.6539 46.3448 15.9389C46.3448 15.3234 46.4584 14.8144 46.6857 14.4119C46.913 14.0095 47.2231 13.6875 47.6161 13.446C48.0091 13.2045 48.4518 13.0223 48.9442 12.8991C49.4414 12.7713 49.9551 12.679 50.4854 12.6222C51.1246 12.5559 51.6431 12.4967 52.0408 12.4446C52.4386 12.3878 52.7274 12.3026 52.9073 12.1889C53.092 12.0705 53.1843 11.8883 53.1843 11.642V11.5994C53.1843 11.0644 53.0257 10.6501 52.7085 10.3565C52.3912 10.063 51.9343 9.91619 51.3377 9.91619C50.708 9.91619 50.2085 10.0535 49.8391 10.3281C49.4745 10.6027 49.2283 10.9271 49.1005 11.3011L46.6999 10.9602C46.8893 10.2973 47.2018 9.74337 47.6374 9.29829C48.073 8.84848 48.6057 8.51231 49.2354 8.28977C49.8652 8.0625 50.5612 7.94886 51.3235 7.94886C51.8491 7.94886 52.3723 8.01042 52.8931 8.13352C53.4139 8.25663 53.8898 8.46023 54.3207 8.74432C54.7515 9.02367 55.0972 9.40483 55.3576 9.88778C55.6228 10.3707 55.7553 10.9744 55.7553 11.6989V19H53.2837V17.5014H53.1985C53.0423 17.8045 52.8221 18.0885 52.538 18.3537C52.2586 18.6141 51.9059 18.8248 51.4798 18.9858C51.0584 19.142 50.5636 19.2202 49.9954 19.2202ZM50.663 17.331C51.1791 17.331 51.6265 17.2292 52.0053 17.0256C52.3841 16.8172 52.6753 16.5426 52.8789 16.2017C53.0872 15.8608 53.1914 15.4891 53.1914 15.0866V13.8011C53.1109 13.8674 52.9736 13.929 52.7795 13.9858C52.5901 14.0426 52.377 14.0923 52.1403 14.1349C51.9035 14.1776 51.6692 14.2154 51.4371 14.2486C51.2051 14.2817 51.0039 14.3101 50.8335 14.3338C50.4499 14.3859 50.1067 14.4711 49.8036 14.5895C49.5006 14.7079 49.2615 14.8736 49.0863 15.0866C48.9111 15.295 48.8235 15.5649 48.8235 15.8963C48.8235 16.3698 48.9963 16.7273 49.342 16.9687C49.6876 17.2102 50.128 17.331 50.663 17.331ZM63.788 8.09091V10.0795H57.5167V8.09091H63.788ZM59.065 5.47727H61.636V15.7187C61.636 16.0644 61.6881 16.3295 61.7923 16.5142C61.9012 16.6941 62.0432 16.8172 62.2184 16.8835C62.3936 16.9498 62.5877 16.983 62.8008 16.983C62.9618 16.983 63.1085 16.9711 63.2411 16.9474C63.3784 16.9238 63.4826 16.9025 63.5536 16.8835L63.9869 18.8935C63.8495 18.9408 63.6531 18.9929 63.3974 19.0497C63.1464 19.1065 62.8387 19.1397 62.4741 19.1491C61.8301 19.1681 61.2501 19.071 60.734 18.858C60.2179 18.6402 59.8084 18.304 59.5053 17.8494C59.207 17.3949 59.0602 16.8267 59.065 16.1449V5.47727ZM70.6506 19.2131C69.5568 19.2131 68.6122 18.9858 67.8168 18.5312C67.026 18.072 66.4176 17.4233 65.9915 16.5852C65.5653 15.7424 65.3523 14.7505 65.3523 13.6094C65.3523 12.4872 65.5653 11.5024 65.9915 10.6548C66.4223 9.80256 67.0237 9.13968 67.7955 8.66619C68.5672 8.18797 69.474 7.94886 70.5156 7.94886C71.188 7.94886 71.8224 8.05776 72.419 8.27557C73.0204 8.48863 73.5507 8.82007 74.0099 9.26989C74.474 9.7197 74.8385 10.2926 75.1037 10.9886C75.3688 11.6799 75.5014 12.5038 75.5014 13.4602V14.2486H66.5597V12.5156H73.0369C73.0322 12.0232 72.9257 11.5852 72.7173 11.2017C72.509 10.8134 72.2178 10.508 71.8438 10.2855C71.4744 10.063 71.0436 9.9517 70.5511 9.9517C70.0256 9.9517 69.5639 10.0795 69.1662 10.3352C68.7685 10.5862 68.4583 10.9176 68.2358 11.3295C68.018 11.7367 67.9067 12.1842 67.902 12.6719V14.1847C67.902 14.8191 68.018 15.3636 68.25 15.8182C68.482 16.268 68.8063 16.6136 69.223 16.8551C69.6397 17.0919 70.1274 17.2102 70.6861 17.2102C71.0601 17.2102 71.3987 17.1581 71.7017 17.054C72.0047 16.9451 72.2675 16.7865 72.4901 16.5781C72.7126 16.3698 72.8807 16.1117 72.9943 15.804L75.3949 16.0739C75.2434 16.7083 74.9545 17.2623 74.5284 17.7358C74.107 18.2045 73.5672 18.5691 72.9091 18.8295C72.2509 19.0852 71.4981 19.2131 70.6506 19.2131Z" fill="#FF0033"/>
<path d="M82.7191 19H77.7901V4.45454H82.8185C84.2627 4.45454 85.5032 4.74574 86.5401 5.32812C87.5818 5.90577 88.382 6.73674 88.9407 7.82102C89.4994 8.9053 89.7788 10.2027 89.7788 11.7131C89.7788 13.2282 89.497 14.5303 88.9336 15.6193C88.3749 16.7083 87.5676 17.544 86.5117 18.1264C85.4606 18.7088 84.1964 19 82.7191 19ZM80.4251 16.7202H82.5913C83.6045 16.7202 84.4497 16.5355 85.1268 16.1662C85.8039 15.7921 86.3129 15.2358 86.6538 14.4972C86.9947 13.7538 87.1651 12.8258 87.1651 11.7131C87.1651 10.6004 86.9947 9.67708 86.6538 8.94318C86.3129 8.20454 85.8086 7.65293 85.141 7.28835C84.4781 6.91903 83.6542 6.73437 82.6694 6.73437H80.4251V16.7202ZM96.9982 19.2131C95.9045 19.2131 94.9599 18.9858 94.1644 18.5312C93.3737 18.072 92.7653 17.4233 92.3391 16.5852C91.913 15.7424 91.6999 14.7505 91.6999 13.6094C91.6999 12.4872 91.913 11.5024 92.3391 10.6548C92.77 9.80256 93.3713 9.13968 94.1431 8.66619C94.9149 8.18797 95.8216 7.94886 96.8633 7.94886C97.5356 7.94886 98.1701 8.05776 98.7667 8.27557C99.368 8.48863 99.8983 8.82007 100.358 9.26989C100.822 9.7197 101.186 10.2926 101.451 10.9886C101.717 11.6799 101.849 12.5038 101.849 13.4602V14.2486H92.9073V12.5156H99.3846C99.3799 12.0232 99.2733 11.5852 99.065 11.2017C98.8567 10.8134 98.5655 10.508 98.1914 10.2855C97.8221 10.063 97.3912 9.9517 96.8988 9.9517C96.3732 9.9517 95.9116 10.0795 95.5139 10.3352C95.1161 10.5862 94.806 10.9176 94.5835 11.3295C94.3656 11.7367 94.2544 12.1842 94.2496 12.6719V14.1847C94.2496 14.8191 94.3656 15.3636 94.5977 15.8182C94.8297 16.268 95.154 16.6136 95.5707 16.8551C95.9873 17.0919 96.475 17.2102 97.0337 17.2102C97.4078 17.2102 97.7463 17.1581 98.0494 17.054C98.3524 16.9451 98.6152 16.7865 98.8377 16.5781C99.0603 16.3698 99.2283 16.1117 99.342 15.804L101.743 16.0739C101.591 16.7083 101.302 17.2623 100.876 17.7358C100.455 18.2045 99.9149 18.5691 99.2567 18.8295C98.5986 19.0852 97.8458 19.2131 96.9982 19.2131ZM112.646 10.9744L110.303 11.2301C110.236 10.9934 110.12 10.7708 109.955 10.5625C109.794 10.3542 109.576 10.1861 109.301 10.0582C109.027 9.9304 108.69 9.86648 108.293 9.86648C107.758 9.86648 107.308 9.98248 106.943 10.2145C106.583 10.4465 106.406 10.7472 106.411 11.1165C106.406 11.4337 106.522 11.6918 106.759 11.8906C107 12.0895 107.398 12.2528 107.952 12.3807L109.813 12.7784C110.845 13.0009 111.612 13.3537 112.114 13.8366C112.62 14.3196 112.876 14.9517 112.881 15.733C112.876 16.4195 112.675 17.0256 112.277 17.5511C111.884 18.072 111.337 18.4792 110.636 18.7727C109.936 19.0663 109.131 19.2131 108.222 19.2131C106.886 19.2131 105.812 18.9337 104.997 18.375C104.183 17.8116 103.697 17.0279 103.541 16.0241L106.048 15.7827C106.162 16.2751 106.403 16.6468 106.773 16.8977C107.142 17.1487 107.623 17.2741 108.214 17.2741C108.825 17.2741 109.315 17.1487 109.685 16.8977C110.059 16.6468 110.246 16.3366 110.246 15.9673C110.246 15.6548 110.125 15.3968 109.884 15.1932C109.647 14.9896 109.277 14.8333 108.776 14.7244L106.915 14.3338C105.868 14.116 105.094 13.7491 104.592 13.233C104.09 12.7121 103.842 12.054 103.847 11.2585C103.842 10.5862 104.024 10.0038 104.393 9.51136C104.768 9.0142 105.286 8.63068 105.949 8.36079C106.616 8.08617 107.386 7.94886 108.257 7.94886C109.536 7.94886 110.542 8.22112 111.276 8.76562C112.014 9.31013 112.471 10.0464 112.646 10.9744ZM117.344 15.5767L117.337 12.473H117.749L121.67 8.09091H124.674L119.852 13.4602H119.319L117.344 15.5767ZM115.001 19V4.45454H117.572V19H115.001ZM121.847 19L118.296 14.0355L120.029 12.2244L124.923 19H121.847Z" fill="black"/>
</svg>
