<svg width="32" height="32" viewBox="0 0 32 32" fill="none" xmlns="http://www.w3.org/2000/svg">
<rect width="32" height="32" rx="16" fill="#6C5CE7"/>
<path d="M14.2067 9.52167C14.9224 8.06655 16.5073 7.56799 17.7468 8.4081C18.9863 9.24822 19.411 11.1089 18.6954 12.564L13.8363 22.4442C13.1206 23.8993 11.5357 24.3979 10.2962 23.5578C9.05669 22.7177 8.632 20.857 9.34763 19.4019L14.2067 9.52167Z" fill="white"/>
<path d="M18.6954 20.9577C18.6954 19.2775 19.8556 17.9154 21.2869 17.9154C22.7182 17.9154 23.8784 19.2775 23.8784 20.9577C23.8784 22.6379 22.7182 24 21.2869 24C19.8556 24 18.6954 22.6379 18.6954 20.9577Z" fill="white"/>
</svg>
